<svg width="104" height="24" viewBox="0 0 104 24" fill="none" xmlns="http://www.w3.org/2000/svg">
<g clip-path="url(#clip0_541_374)">
<path d="M31.5009 5.71683C30.3961 6.0143 29.4058 6.73922 28.3557 7.27416V5.68183L23.4141 6.26427C23.5732 6.53956 23.7547 6.80124 23.9565 7.04669C24.6557 7.74662 24.8274 8.57403 24.8125 9.54643C24.7627 13.0111 24.7428 16.4782 24.8125 19.9428C24.8448 21.3827 24.7303 22.6925 23.6231 23.7249C23.5584 23.7874 23.5559 23.9149 23.5285 23.9949H29.998C29.6596 23.61 29.4008 23.3425 29.1694 23.05C28.8932 22.695 28.4354 22.3326 28.4229 21.9501L28.3856 17.7631C28.6344 17.8306 28.8061 17.8631 28.9654 17.918C31.3541 18.7505 34.3126 17.9755 35.7956 15.9183C37.5374 13.4985 37.6419 10.8013 36.4774 8.11408C35.5891 6.09929 33.6483 5.14189 31.5009 5.71683ZM33.0187 15.2833C32.3494 17.3606 30.747 17.8781 28.9554 17.1981C28.9554 17.1981 28.4055 16.9282 28.3956 16.4357C28.3956 16.4357 28.3781 13.9035 28.3781 12.6361C28.3781 11.6362 28.3781 10.6288 28.3781 9.61392C28.3781 7.9191 30.2045 6.80672 31.6601 7.71912C32.2723 8.13357 32.7369 8.73343 32.9864 9.43144C33.6364 11.3256 33.6478 13.382 33.0187 15.2833Z" fill="black"/>
<path d="M75.4223 6.85422C75.1734 7.0617 74.9545 7.28418 74.6036 7.60414V0.00244141C73.6631 0.119929 72.8942 0.219918 72.1154 0.309909C71.3365 0.399899 70.5826 0.479892 69.6445 0.584881C69.8934 0.939843 70.0426 1.18732 70.2143 1.39479C70.8293 2.11044 71.1433 3.03813 71.0902 3.98202C71.0429 7.12419 71.0554 10.2689 71.1101 13.411C71.14 15.0534 71.7919 16.4307 73.2251 17.3431C75.2954 18.663 78.968 18.5355 80.8939 17.0207C83.4046 15.0459 83.7753 12.3436 83.1757 9.45145C82.3869 5.59685 78.3957 4.30199 75.4223 6.85422ZM79.2616 15.4633C79.1206 15.9307 78.9056 16.3721 78.6246 16.7707C77.6119 18.1805 75.8876 18.0755 75.2008 16.4857C74.8276 15.6158 74.7454 14.6034 74.6235 13.6435C74.5741 12.9546 74.5683 12.2633 74.6061 11.5737V9.67392C74.6061 8.40656 74.8748 7.9966 75.9523 7.61164C77.0297 7.22668 78.025 7.44916 78.6545 8.30657C78.9772 8.74103 79.2192 9.23051 79.3686 9.75142C79.8781 11.6264 79.841 13.6089 79.2616 15.4633Z" fill="black"/>
<path d="M67.9074 15.0909C67.9074 13.2736 67.9298 11.4563 67.8875 9.63898C67.8427 7.71918 66.9394 6.38932 65.2798 5.88937C62.8239 5.13945 60.5173 5.67689 58.345 6.94176C58.1883 7.03425 58.1136 7.26922 57.9021 7.58419C58.8601 7.27672 59.5792 6.97176 60.3282 6.81677C63.1772 6.22183 64.8617 7.91416 64.2223 10.7289C63.7246 10.7914 63.2145 10.8463 62.7069 10.9263C61.112 11.1763 59.522 11.4613 58.2579 12.5862C57.1706 13.5511 56.964 14.8009 57.3373 16.1383C57.6806 17.3707 58.7282 18.0831 60.1166 18.2081C61.7987 18.3606 63.222 17.8656 64.3467 16.4758C64.6652 17.6256 65.342 18.2256 66.4617 18.2256C67.6262 18.2256 68.7235 18.0756 69.5471 16.9007C67.9945 16.6607 67.9074 16.5483 67.9074 15.0909ZM64.3318 15.3784C64.3094 16.0158 63.3763 16.5858 62.478 16.6132C61.6295 16.6357 61.0199 16.0933 60.8382 15.1559C60.4227 12.9961 61.7589 11.4588 64.3442 11.2738C64.3317 12.6862 64.3641 14.0335 64.3193 15.3784H64.3318Z" fill="black"/>
<path d="M22.3059 11.0691C22.266 8.42684 21.2409 6.69702 19.2627 5.9771C17.5689 5.33501 15.6913 5.3898 14.0374 6.12958C11.6263 7.18447 10.3224 9.65421 10.5787 12.5164C10.8275 15.4261 12.1264 17.2184 14.4803 17.9533C17.8096 18.9907 21.1364 17.4784 22.1143 14.4762C22.164 14.3187 22.383 13.6763 22.1765 13.7263C20.3974 15.8236 18.4043 16.3785 16.1275 15.3111C14.7863 14.6812 14.0847 12.8864 14.2763 11.0616L22.3059 11.0691ZM15.2367 6.97199C16.1972 5.64963 17.6827 5.83961 18.4491 7.27446C18.9576 8.2798 19.2082 9.39681 19.1781 10.5241H14.2887C14.2738 9.21176 14.4803 8.00188 15.2367 6.97199Z" fill="black"/>
<path d="M97.0667 11.069C97.0194 8.42673 96.0017 6.69691 94.0335 5.97699C92.3433 5.33833 90.4709 5.3931 88.8206 6.12947C86.4095 7.18436 85.1056 9.65411 85.3619 12.5163C85.6107 15.426 86.9071 17.2183 89.2635 17.9532C92.5928 18.9906 95.9196 17.4783 96.895 14.4761C96.9472 14.3186 97.1662 13.6762 96.9572 13.7262C95.1806 15.8235 93.1875 16.3784 90.9107 15.311C89.5671 14.6811 88.8654 12.8863 89.057 11.0615L97.0667 11.069ZM89.995 6.97188C90.958 5.64952 92.4435 5.8395 93.2074 7.27435C93.716 8.27969 93.9666 9.39671 93.9364 10.524H89.057C89.0346 9.21165 89.2411 8.00178 89.995 6.97188Z" fill="black"/>
<path d="M45.7396 10.7688C45.0926 10.4588 44.4133 10.2138 43.7838 9.87638C43.3231 9.64641 42.9029 9.34245 42.5397 8.97648C42.2409 8.63966 42.0831 8.19991 42.0994 7.74903C42.1156 7.29815 42.3045 6.87099 42.6268 6.55673C43.3981 5.87014 44.1687 5.92013 44.9384 6.70672L47.5038 9.31894C47.5038 8.21656 47.5237 7.36165 47.4863 6.51174C47.4654 6.41128 47.4208 6.31732 47.3563 6.23773C47.2918 6.15814 47.2093 6.09524 47.1156 6.05428C45.3265 5.50184 43.5151 5.30436 41.7061 5.9393C40.3226 6.42424 39.4219 7.37165 39.2527 8.87899C39.0835 10.3863 39.5861 11.6787 40.9198 12.5011C41.5767 12.9061 42.3133 13.1735 42.995 13.541C43.6124 13.8303 44.1965 14.1865 44.7368 14.6034C45.0917 14.9265 45.305 15.3775 45.3302 15.8579C45.3553 16.3384 45.1903 16.8094 44.8712 17.1681C44.5006 17.5246 44.0087 17.7259 43.4956 17.731C42.9825 17.7361 42.4868 17.5447 42.1092 17.1956C41.196 16.2882 40.2754 15.3883 39.2204 14.3509C39.2204 15.2858 39.2552 16.0332 39.2079 16.7757C39.178 17.2756 39.3846 17.4881 39.8225 17.6456C41.395 18.2231 43.0881 18.3883 44.7418 18.1255C46.8493 17.7956 48.086 16.5857 48.31 14.8109C48.5339 13.0361 47.7003 11.7112 45.7396 10.7688Z" fill="black"/>
<path d="M4.86952 9.03407V5.8544L0 6.43684L0.58474 7.27425C1.13794 7.9643 1.43132 8.82816 1.41333 9.714V14.3035C1.483 15.6059 1.28145 16.7533 0.293614 17.6782C0.200859 17.8077 0.130997 17.9523 0.0870886 18.1056H6.88252L5.63839 16.9382C5.39756 16.725 5.20598 16.4615 5.07704 16.1662C4.94811 15.8709 4.88492 15.5508 4.89191 15.2284V11.3313C4.81975 10.3114 5.26515 9.709 6.13604 9.41403C7.15622 9.06157 8.21622 8.82909 9.37077 8.51662V5.73191C8.32322 5.69442 7.40256 5.96189 6.72327 6.66432C6.04397 7.36674 5.53637 8.15916 4.86952 9.03407Z" fill="black"/>
<path d="M54.4046 0.00244141L50.2891 0.502389V0.599879C50.7015 1.73604 50.9316 2.93081 50.9708 4.13951V14.251C50.9708 15.9108 50.4085 17.7156 50.3612 18.0006V18.0981H55.0167V18.0006C54.9695 17.7056 54.4046 15.9008 54.4046 14.251V0.00244141Z" fill="black"/>
<path d="M102.854 14.251V0.00244141L98.7383 0.502389V0.599879C99.1519 1.73579 99.3829 2.93063 99.4226 4.13951V14.251C99.4226 15.9108 98.8577 17.7156 98.8104 18.0006V18.0981H103.466V18.0006C103.419 17.7131 102.854 15.9083 102.854 14.251Z" fill="black"/>
</g>
<defs>
<clipPath id="clip0_541_374">
<rect width="103.467" height="24" fill="black"/>
</clipPath>
</defs>
</svg>
