<?xml version="1.0" encoding="UTF-8"?> <svg xmlns="http://www.w3.org/2000/svg" id="Layer_1" data-name="Layer 1" viewBox="0 0 796.88 290.85"><defs><style> .cls-1 { stroke-width: 0px; } </style></defs><g id="ZbFBZ9"><g><path class="cls-1" d="m306.46,0c-.04,1.02-.13,2.04-.13,3.06,0,73.95,0,147.91,0,221.86,0,20.99,0,41.99,0,62.98,0,.86.18,1.75-.27,2.66-.32.06-.67.17-1.02.19-3.81.2-22.3.05-24.03-.2-.08-.35-.23-.75-.25-1.16-.04-.8-.02-1.61-.02-2.41,0-83.54,0-167.07,0-250.61,0-.91.17-1.86-.16-2.69-.21-.06-.28-.1-.35-.09-.07.01-.13.07-.19.11-.12.08-.24.16-.36.25-.06.04-.11.09-.17.14-.17.14-.34.27-.51.41-41.63,34.15-83.26,68.29-124.88,102.44-.06.05-.12.09-.18.13-.06.04-.12.09-.18.13-.06.04-.13.06-.24.11-.69-.02-1.1-.6-1.59-1-15.45-12.66-30.89-25.33-46.33-37.99-25.85-21.2-51.69-42.4-77.55-63.6-.54-.44-1-1.04-1.66-1.17-.47.23-.37.57-.38.83-.02.8-.01,1.61-.01,2.41,0,83.54,0,167.07,0,250.61,0,1.01-.03,2.02-.05,3.14-.47.09-.81.21-1.15.21-7.98.01-15.95.01-23.93,0-.28,0-.57-.11-.85-.17,0-96.86,0-193.72,0-290.58,8.78,0,17.56,0,26.34,0,.28.32.52.68.85.95,2.59,2.15,5.2,4.28,7.8,6.41,29.69,24.35,59.39,48.69,89.08,73.04,9.22,7.56,18.43,15.13,27.66,22.68.55.45,1.01,1.06,1.86,1.16.66-.53,1.35-1.06,2.03-1.62C196.96,68.72,238.3,34.81,279.63.91c.33-.27.62-.6.92-.91,8.63,0,17.27,0,25.9,0Z"></path><path class="cls-1" d="m733.66,0c.06.94.16,1.89.16,2.83,0,34.73,0,69.46,0,104.19,0,51.55,0,103.1,0,154.65,0,.94.03,1.88.05,2.92.54.09.95.2,1.36.22.58.04,1.17.01,1.75.01,19.09,0,38.18,0,57.27,0,.87,0,1.74-.09,2.62-.13v25.9c-.8.06-1.6.18-2.39.18-27.87,0-55.75,0-83.62,0-.79,0-1.6.13-2.43-.29-.05-.35-.14-.7-.15-1.05-.02-.8-.01-1.61-.01-2.41,0-94.65,0-189.29,0-283.94,0-1.02-.05-2.04-.08-3.07,8.49,0,16.98,0,25.47,0Z"></path><path class="cls-1" d="m677.56,290.55c-.35.08-.63.2-.91.2-112.9,0-225.8,0-338.7,0-.28,0-.56-.12-.91-.2-.07-.37-.17-.72-.19-1.07-.03-.8-.02-1.61-.02-2.41,0-59.62,0-119.24,0-178.86,0-6.7.96-13.26,2.79-19.68,7.22-25.33,27.28-44.66,52.89-51.01,8.24-2.04,16.6-2.49,25.05-1.63,28,2.85,52.68,22.39,61.63,50.13,2.31,7.15,3.48,14.48,3.5,22,0,.79.04,1.57.07,2.39.85.18,1.39-.26,1.96-.5,8.39-3.6,16.78-7.22,25.17-10.84,55.02-23.76,110.04-47.51,165.06-71.27.79-.34,1.6-.65,2.41-.97.61.62.39,1.31.39,1.93.02,6.58.01,13.17.01,19.75v5.82c-.75.35-1.46.7-2.19,1.02-47.44,20.48-94.88,40.96-142.32,61.44-16.04,6.92-32.08,13.84-48.11,20.77-.79.34-1.56.74-2.26,1.07-.19,1.56-.35,123.04-.17,125.43.02.28.14.55.19.76.15.08.2.12.27.15.07.03.14.05.21.06.07.01.14.02.22.02.07,0,.15.01.22.01s.15,0,.22,0c.07,0,.15,0,.22,0,.07,0,.15,0,.22,0,.07,0,.15,0,.22,0,.15,0,.29,0,.44,0,.07,0,.15,0,.22,0,63.37,0,126.73,0,190.1,0,.07,0,.15,0,.22,0,.07,0,.15,0,.22,0s.15,0,.22,0c.07,0,.15,0,.22,0s.15,0,.22,0c.07,0,.15,0,.22,0,.07,0,.15,0,.22.02.07.01.14.03.21.05.07.02.14.05.33.11.07.35.22.76.22,1.17.01,7.61.01,15.21,0,22.82,0,.42-.12.84-.2,1.29Zm-220.62-25.64c.33-.98.19-1.93.19-2.86,0-50.83,0-101.67,0-152.5,0-.73,0-1.46,0-2.19-.03-4.12-.68-8.15-1.82-12.11-6.42-22.2-28.5-37.58-53.04-33.63-13.54,2.18-24.2,9.18-31.9,20.54-5.5,8.11-7.99,17.15-7.99,26.92,0,51.05,0,102.11,0,153.16,0,.51-.03,1.03.02,1.53.04.41.18.81.3,1.3,31.18,0,62.27,0,93.35,0,.28,0,.55-.09.87-.15Z"></path><path class="cls-1" d="m677.37,247.38c-1.68.24-22.07.29-24.71.05-.21-.44-.46-.95-.68-1.47-2.38-5.66-4.74-11.33-7.12-16.98-.31-.73-.67-1.44-.97-2.1-2.01-.28-71.34-.27-73.34.02-3.04,6.75-5.91,13.69-8.93,20.47-1.86.25-22.74.29-24.89.06-.03-.14-.12-.31-.08-.42,20.08-46.41,40.17-92.82,60.16-139,.29-.22.34-.27.41-.3.06-.03.13-.07.2-.07,6.8-.02,13.6-.04,20.41-.05.36,0,.72.05,1.24.09,19.43,46.34,38.88,92.7,58.31,139.07.08.18,0,.42,0,.63Zm-96.45-43.78c.98,0,1.78,0,2.58,0,16.68-.02,33.36-.04,50.03-.06.07,0,.15-.02.21-.06.05-.04.07-.12.18-.34-.09-.29-.2-.7-.37-1.09-8.5-20.28-17-40.56-25.57-60.93-.27.29-.46.42-.54.6-8.82,20.31-17.63,40.63-26.43,60.95-.08.18-.05.42-.1.92Z"></path><path class="cls-1" d="m90.97,152.35c.5-.15.7-.27.91-.27,7.83-.01,15.66-.02,23.48-.02.28,0,.56.09.94.16.08.44.19.85.21,1.27.03.73.01,1.46.01,2.19,0,23.92,0,47.83,0,71.75,0,4.79.57,9.5,2.37,13.97,5.18,12.81,14.57,20.75,28.15,23.11,19.25,3.35,36.88-9.21,41.33-27.18.78-3.15,1.04-6.34,1.04-9.57,0-24.28,0-48.57,0-72.85,0-.86-.11-1.74.21-2.7.44-.06.86-.16,1.28-.16,7.46-.01,14.92-.01,22.39,0,.49,0,.98.1,1.48.16.37.87.23,1.69.23,2.47.01,8.63,0,17.26,0,25.89,0,15.94.05,31.89-.02,47.83-.06,14.96-4.78,28.31-14.38,39.81-9.59,11.49-21.83,18.6-36.54,21.36-3.15.59-6.38.79-9.58,1.14-.72.08-1.46.07-2.19.03-10.75-.51-20.99-2.94-30.3-8.51-16.06-9.6-26.08-23.55-29.86-41.92-.81-3.95-1.16-7.96-1.16-11.99-.01-24.65,0-49.3,0-73.95v-2.04Z"></path></g></g></svg> 