<?xml version="1.0" encoding="UTF-8"?> <svg xmlns="http://www.w3.org/2000/svg" id="Layer_1" data-name="Layer 1" viewBox="0 0 1357.24 150"><defs><style> .cls-1 { stroke-width: 0px; } </style></defs><path class="cls-1" d="m38.69,138.24c23.08,0,40.72-4.07,54.52-14.93,14.25-10.86,23.08-28.28,23.08-48.42,0-21.27-10.18-38.91-24.66-49.55-13.57-9.95-31-13.57-53.17-13.57H13.12v126.47h25.57ZM0,.23h39.59c24.89,0,44.12,4.98,59.28,15.38,19,13.12,30.54,34.62,30.54,59.05s-11.31,44.34-26.92,56.79c-15.16,12.22-35.75,18.33-65.61,18.33H0V.23ZM295.02.23h14.71l-59.95,81.9v67.87h-13.12v-67.87L176.47,0h15.16l24.89,34.16c8.82,11.99,17.65,24.21,26.47,36.65h.45c8.37-11.76,17.42-24.21,26.47-36.65L295.02.23Zm79.64,149.55V.23h12.44l71.04,90.95c10.41,13.12,19.23,25.11,29.19,38.01l.45-.23c-.23-14.48-.23-29.86-.23-44.8V0h12.67v149.55h-12.44l-71.04-91.18c-9.73-12.67-19.46-25.34-29.19-38.01l-.45.23c.23,14.48.23,29.86.23,44.8v84.16c0,.23-12.67.23-12.67.23Zm278.28-93.21c-5.88-13.57-11.54-27.38-17.19-41.18h-.45c-5.66,13.57-11.31,27.38-17.19,40.95l-15.84,37.1h66.29l-15.61-36.88ZM629.41.23h12.44l64.93,149.55h-14.25l-19-44.57h-76.24l-19,44.57h-13.57L629.41.23Zm178.05,53.62c-7.69-10.63-15.84-22.17-23.08-32.35l-.45.23c.23,11.99.23,25.11.23,38.24v89.82h-12.67V.23h12.67l60.41,83.48L904.98.23h12.67v149.55h-13.12V59.95c0-13.12,0-26.24.23-38.24l-.45-.23c-7.24,10.41-15.38,21.72-23.3,32.35l-36.88,50.9-36.65-50.9h0Zm191.63,95.93h13.12V.23h-13.12v149.55ZM1134.16,11.76h-53.39V.23h119.91v11.54h-53.39v138.01h-13.12V11.76ZM1269.46.23h85.97v11.54h-73.08v54.52h64.71v11.54h-64.71v60.41h74.89v11.54h-88.01c.23,0,.23-149.55.23-149.55Z"></path></svg> 