<?xml version="1.0" encoding="UTF-8"?> <svg xmlns="http://www.w3.org/2000/svg" id="Layer_1" data-name="Layer 1" viewBox="0 0 1428.3 164.47"><defs><style> .cls-1 { stroke-width: 0px; } </style></defs><g id="F4NJvb"><g><path class="cls-1" d="m0,4.57c31.73-.09,63.46-.13,95.18-.31,3.61-.02,4.3,1.63,4.23,4.73-.15,6.14-.24,12.3.01,18.44.18,4.4-1.46,5.89-5.87,5.84-18.44-.19-36.89.07-55.33-.21-5.37-.08-7.43,1.4-7.14,7.04.44,8.5.33,17.06,0,25.58-.19,4.85,1.29,6.59,6.33,6.51,16.06-.27,32.13.05,48.19-.18,4.84-.07,6.88,1.34,6.55,6.4-.35,5.33-.29,10.72,0,16.06.24,4.46-1.55,5.9-5.88,5.86-16.06-.16-32.13.14-48.19-.18-5.55-.11-7.12,1.74-7,7.16.33,15.66-.06,31.34.22,47,.09,5.31-1.89,7.02-6.96,6.77-8.1-.4-16.23-.37-24.35-.52C0,108.57,0,56.57,0,4.57Z"></path><path class="cls-1" d="m1111.74,164.13c-46.01-.27-79.57-35.01-79.48-82.07.1-48.59,36.02-82.78,82.53-81.47,41.98,1.18,78.71,30.62,78.24,84.8-.38,44.41-36.04,79.02-81.29,78.75Zm.29-29.31c28.95.19,49.25-21,49.47-51.65.22-30.71-20.32-53-48.94-53.14-28.46-.13-48.87,21.31-49.01,51.48-.15,31.11,19.87,53.12,48.49,53.31Z"></path><path class="cls-1" d="m729.97,161.23c-11.06,0-21.07.12-31.08-.17-1.08-.03-2.5-2.23-3.07-3.7-3.4-8.65-6.82-17.31-9.78-26.11-1.41-4.19-3.4-5.96-8.04-5.89-17.45.26-34.91.16-52.37.04-3.81-.03-5.97.74-7.26,4.98-2.76,9.07-6.28,17.91-9.79,26.73-.67,1.69-2.67,3.97-4.13,4.03-9.27.37-18.56.19-29.12.19,2.85-7.59,5.33-14.34,7.91-21.06,16.73-43.54,33.54-87.05,50.12-130.65,1.47-3.85,3.33-5.2,7.33-5.07,8.12.27,16.27.22,24.4.02,3.61-.09,5.6.82,7.01,4.57,15.6,41.44,31.43,82.79,47.2,124.16,3.42,8.98,6.86,17.95,10.68,27.94Zm-56.77-64.52c-7.28-19.56-14.13-37.99-20.98-56.41l-1.66.42c-6.63,18.45-13.25,36.91-20.11,55.99h42.75Z"></path><path class="cls-1" d="m937.33,150.14c-15.9,16.06-33.75,16.53-51.77,8.54-20.93-9.28-29.99-27.2-31.07-49.45-.86-17.82,4.13-33.62,16.95-46.51,13.57-13.65,43.95-21.23,65.32-2.46V.2h28.95v6.86c0,42.43-.03,84.86.03,127.29.01,7.33.31,14.66.76,21.98.21,3.45-1.12,4.69-4.37,4.66-5.55-.06-11.12-.29-16.65.09-5.05.35-7.5-1.36-7.26-6.58.05-1.08-.43-2.19-.89-4.36Zm-53-43.36c0,1.39-.08,2.78.01,4.16,1.44,21.13,21.81,33.03,39.78,23.09,9.94-5.49,12.8-15.18,13.76-25.57,1.73-18.75-11.27-33.27-28.7-32.33-15.02.82-24.89,12.95-24.86,30.64Z"></path><path class="cls-1" d="m1364.51,119.76c-8.84,6.99-13.39,14.48-12.6,25.76,1.08,15.38.27,15.44-15.32,15.44-1.19,0-2.38,0-3.57,0-10.93,0-10.01,1.28-10.02-9.7,0-47.6,0-95.19,0-142.79V.46h28.99v90.15c.54.14,1.08.27,1.62.41,7.14-7.55,14.48-14.91,21.37-22.68,14.06-15.83,13.96-15.94,35.01-15.91,4.95,0,9.9.16,14.84.28.32,0,.63.41,1.45.98-.88,1.19-1.63,2.47-2.63,3.52-11.36,11.89-22.63,23.87-34.22,35.53-3.72,3.74-4.24,6.42-.94,10.95,12.7,17.43,24.95,35.2,37.34,52.85.64.91,1.08,1.96,2.45,4.48-5.9,0-10.82-.72-15.46.13-14.74,2.73-24.06-3.32-30.99-16.1-4.84-8.92-11.48-16.87-17.35-25.29Z"></path><path class="cls-1" d="m455.5,90.12c10.39-11.16,20.87-22.23,31.11-33.52,2.95-3.26,6.16-4.41,10.45-4.27,8.13.27,16.27.06,24.4.09,1.87,0,3.74.17,7.13.33-7.92,8.43-14.74,15.76-21.64,23.02-5.87,6.18-11.74,12.36-17.79,18.36-2.79,2.76-2.86,4.92-.53,8.17,11.78,16.41,23.32,32.99,34.92,49.52,1.79,2.55,3.45,5.18,6.14,9.23-7.37,0-13.5-.81-19.33.17-12.33,2.06-19.78-3.03-25.73-13.49-5.53-9.72-12.65-18.54-18.94-27.55-10.3,6.44-13.31,15.2-12.68,26.82.88,16.37,2.32,13.88-13.4,13.98-15.63.1-15.63.02-15.63-15.46,0-45.24-.02-90.49.02-135.73,0-3.11.43-6.22.68-9.76,8.51,0,16.42.1,24.32-.04,4.77-.08,4.21,3.3,4.22,6.15.07,16.27.04,32.54.05,48.81,0,9.92-.02,19.84.03,29.77,0,1.8.32,3.61.49,5.41.57,0,1.14-.02,1.7-.02Z"></path><path class="cls-1" d="m1231.69,89.72c-7.23-1.46-14.19-2.82-21.13-4.27-3.29-.69-4.44-2.26-3.26-5.94,5.88-18.34,19.13-27.68,37.4-30.3,12.98-1.86,25.77-.47,37.38,6.42,12.46,7.39,17.54,19.05,17.8,32.91.33,17.84.09,35.7.13,53.55,0,3.37-.08,6.76.26,10.11.94,9.34,1.16,8.73-8.03,8.81-3.57.03-7.17-.29-10.7.07-5.53.56-8.25-1.58-8.19-7.19,0-.95-.33-1.9-.66-3.65-1.43,1.11-2.48,1.76-3.33,2.62-14.96,15.27-42.09,15.27-56.8-.02-16.19-16.84-9.01-44.94,13.77-51.6,11.14-3.26,22.89-4.43,34.38-6.47,4.52-.8,9.54-.99,10.46-6.84.89-5.68-1.6-9.9-6.62-12.79-12.57-7.24-26.96-1.21-32.86,14.59Zm38.42,22.43c-9.39,1.75-18.59,2.89-27.46,5.29-7.42,2-10.56,8.04-9.3,14.88,1.09,5.86,7.23,10.32,14.13,10.25,16.35-.15,26.07-12.53,22.63-30.42Z"></path><path class="cls-1" d="m184.8,84.4c4.94-21.33,20.11-34.59,41.31-35.36,9.28-.34,19.1.93,27.93,3.77,16.46,5.3,23.79,18.44,24.25,35.12.64,22.98.61,45.98.62,68.97,0,1.35-2.16,3.8-3.44,3.88-6.32.42-12.69.47-19.01.05-1.48-.1-3.26-2.32-4.07-3.97-.88-1.8-.78-4.08-.95-5.11-7.27,3.83-13.95,8.52-21.36,11.01-16.07,5.39-36.3-2.49-43.64-15.94-11.12-20.39,1.38-43.74,25.71-47.87,9.37-1.59,18.81-2.8,28.2-4.32,3.92-.63,8.08-1.26,9.19-6.12,1.13-4.96-.58-9.15-4.51-12.08-8.93-6.66-27.95-6.25-33.23,9.12-1.22,3.56-2.7,4.13-5.99,3.35-6.86-1.64-13.8-2.97-21.02-4.5Zm65.16,32.22c-.46-.52-2.05-3.61-3.25-3.47-8.6,1.02-17.26,2.14-25.61,4.34-6.73,1.78-9.98,7.94-9.06,14.16.89,6.04,6.07,10.37,13.02,10.87,14.4,1.04,24.53-8.73,24.91-25.91Z"></path><path class="cls-1" d="m330.75,63.17c9.19-9.97,19.61-14.4,31.94-14.2,19.8.32,35.9,14.35,36.77,34.08,1.08,24.35.56,48.76.79,73.15.03,3.59-1.61,4.91-5.09,4.83-5.75-.13-11.51-.26-17.25.05-5.13.28-7.02-1.61-6.95-6.84.24-18.24.22-36.49.04-54.74-.04-4.3-.33-8.85-1.79-12.82-3.32-9.03-12.11-12.81-23.16-10.77-8.21,1.52-14.95,9.8-15.27,19.61-.34,10.3-.11,20.62-.12,30.94,0,9.92-.1,19.83.04,29.75.05,3.51-1.03,5-4.77,4.85-6.54-.25-13.1-.28-19.63.02-4.14.19-4.95-1.63-4.94-5.3.1-32.92.1-65.85,0-98.77-.01-3.55,1.02-5.04,4.73-4.9,5.74.22,11.51.26,17.25,0,4.65-.22,7.31,1.01,6.59,6.26-.15,1.07.35,2.23.81,4.8Z"></path><path class="cls-1" d="m769.55,63.59c17.3-19.9,43.65-16.79,56.05-6.2,10.29,8.8,13.72,20.69,13.94,33.52.36,21.42.01,42.86.17,64.28.03,4.46-1.67,6.01-5.96,5.87-5.95-.2-11.91-.25-17.85.06-4.34.23-5.44-1.62-5.41-5.6.13-18.05.06-36.11.05-54.17,0-1.98.07-3.98-.13-5.95-1.44-14.06-8.39-20.44-21.53-19.83-11.41.53-19.11,9.24-19.2,22.21-.14,18.45-.02,36.9-.02,55.36q0,7.85-7.83,7.87c-4.96.01-9.93-.21-14.88.1-4.95.31-6.53-1.64-6.5-6.55.18-28.17.09-56.35.09-84.52,0-4.17.22-8.35-.06-12.5-.29-4.28,1.57-5.59,5.58-5.44,5.55.21,11.12.31,16.66-.03,5-.3,6.93,1.63,6.31,6.52-.16,1.26.25,2.58.52,4.99Z"></path><path class="cls-1" d="m174.23,79.84c-6.03.55-11.19.58-16.17,1.56-12.09,2.38-19.4,10.55-19.86,23.16-.59,16.04-.34,32.12-.42,48.18-.04,8.21-.02,8.21-8.24,8.22-5.35,0-10.71-.1-16.06.12-3.64.15-4.93-1.34-4.92-4.88.07-33.12.09-66.24.02-99.36,0-3.75,1.69-4.79,5.09-4.7,5.55.14,11.12.28,16.65-.05,4.78-.29,7.15,1.1,6.44,6.27-.29,2.11-.05,4.29-.05,6.44.73.57,1.46,1.14,2.18,1.72.6-1.44.89-3.14,1.86-4.26,7.79-9.03,18.21-11.43,29.5-10.92,1.38.06,3.73,2.49,3.8,3.9.37,8.09.18,16.21.18,24.62Z"></path></g></g></svg> 