<?xml version="1.0" encoding="UTF-8"?> <svg xmlns="http://www.w3.org/2000/svg" id="Layer_1" data-name="Layer 1" viewBox="0 0 489.74 532.38"><defs><style> .cls-1 { stroke-width: 0px; } </style></defs><g id="M8t0c9"><g><path class="cls-1" d="m339.63,196.44c-1.29,4.39-2.42,8.56-3.74,12.66-1.93,5.99-4.37,11.77-7.89,17.02-.64.95-.39,1.57.21,2.35,3.36,4.36,7.9,7.1,12.81,9.28,6.97,3.11,14.06,5.97,20.98,9.19,5.88,2.73,11.19,6.4,16.01,10.77.39.36.89.6,1.47.99-1.85,2.46-3.41,4.6-5.06,6.66-.24.3-1,.46-1.4.32-9.3-3.23-19-2.94-28.63-3.35-5.2-.22-10.55.04-15.54-1.15-9.69-2.32-18.67-6.49-25.87-13.69-.99-.99-1.69-1.13-2.87-.48-5.63,3.1-11.55,5.45-17.86,6.81-.52.11-1.14.47-1.41.91-3.11,4.94-7.82,7.82-12.99,10.08-7.98,3.49-16.43,5.28-24.95,6.78-1.92.34-3.86.61-5.78.97-3.21.59-4.36,2.01-3.25,5.12,1.46,4.1,3.29,8.1,5.29,11.97,2.87,5.58,6.07,10.98,9.03,16.51.75,1.39,1.23,2.95,1.63,4.49.41,1.56-.44,3.02-1.77,3.46-1.34.44-2.69-.36-3.43-1.8-3.15-6.15-6.3-12.31-9.57-18.4-2.52-4.7-5.3-9.27-6.55-14.52-.9-3.8-.95-7.58,2.4-10.27,1.44-1.16,3.44-1.85,5.29-2.23,5.22-1.07,10.51-1.83,15.32-4.33,2.67-1.39,5.06-3.1,6.03-6.18.96-3.02-.08-6.32-2.63-8.18-7.75-5.66-12.7-13.44-16.7-21.95-.25-.54-.49-1.08-.76-1.6-.08-.15-.23-.26-.38-.44-2.47,1.37-4.9,2.81-7.41,4.1-2.37,1.22-4.75,2.46-7.25,3.34-1.22.43-2.84.42-4.08,0-3.76-1.24-7.39-2.88-11.13-4.18-4.66-1.61-9.19-.2-12.28,3.69-.38.47-.51,1.18-.65,1.8-.81,3.74-2,7.29-4.39,10.37-1.7,2.19-3.79,3.73-6.49,4.37-3.54.84-7.05,2.22-10.8.63-.03.15-.05.3-.08.45,3.14,1.42,6.26,2.91,9.45,4.21.5.2,1.43-.27,2-.67,3.08-2.13,6.37-3.63,10.19-3.66.58,0,1.2.06,1.75.24,3.39,1.14,3.3,1.17,2.26,4.3-1.21,3.64-2.93,6.37-6.52,7.48-2.14.66-4.49.79-6.76.88-7.71.3-15.43.08-22.94-1.81-7.99-2.02-14.32-6.88-20-12.67-.77-.78-.5-1.31.24-1.86,1.89-1.43,3.77-2.87,5.64-4.32.4-.31.76-.68,1.17-1.04-2.53-1.83-4.88-3.59-7.32-5.24-.35-.24-1.23-.08-1.64.21-11.37,8.13-21.99,17.21-32.94,25.88-10.67,8.45-21.71,16.43-32.64,24.55-1.78,1.32-3.79,2.31-5.99,3.63-.72-2.43-1.38-4.5-1.91-6.6-.08-.31.38-.95.75-1.16,18.61-10.7,35.6-23.59,51.44-38.04,5.52-5.04,11.34-9.68,18.2-13.29-.46-.62-.8-1.14-1.19-1.62-7.25-8.68-12.09-18.63-15.4-29.37-.4-1.29-.89-2.02-2.37-2.07-5.03-.18-8.94-2.74-11.98-6.46-3.7-4.53-7.27-9.21-10.53-14.06-3.8-5.66-4.1-11.99-2.27-18.43.78-2.75,2.48-5,4.92-6.54,1.46-.92,1.57-1.91.74-3.24-1.78-2.86-3.65-5.68-5.34-8.59-14.04-24.23-28.05-48.47-42.08-72.71-2.46-4.25-4.96-8.49-7.51-12.68-4.09-6.73-3.62-14.31,1.48-20.42,5.08-6.08,11.13-11.13,17.42-15.88,8.29-6.28,17.02-11.86,26.84-15.44,3.18-1.16,6.6-1.96,9.96-2.26,3.57-.32,6.75,1.05,8.76,4.33,5.22,8.52,10.55,16.99,15.64,25.59,11.39,19.26,22.66,38.59,33.97,57.9,1.79,3.06,3.54,6.16,5.27,9.26.43.77.8,1.6,1.04,2.44.54,1.86-.25,2.78-2.16,2.5-8.1-1.16-15.82.34-23.21,3.55-10.51,4.56-19.02,11.66-25.69,20.96-.62.86-1.16,1.79-1.66,2.73-1.38,2.6-1.33,4.03.81,6.06,3.29,3.11,4.88,6.85,5.86,11.25.87,3.93,2.88,7.6,4.4,11.39.84,2.08,1.96,4.09,2.47,6.24.26,1.11-.18,2.79-.94,3.65-1,1.13-2.63.56-3.75-.25-1.03-.74-1.81-1.82-2.72-2.75-2.47-2.52-4.75-5.28-7.47-7.5-6.33-5.16-10.83-.09-11.73,4.98-.65,3.63-.02,7.12,2.18,10.15,3.06,4.21,6.15,8.41,9.36,12.5,3.17,4.05,7.18,6.34,12.54,5.06,1.55-.37,1.88.53,2.21,1.74,2.43,9.14,5.67,17.96,10.75,25.99,5.07,8.02,11.42,14.67,20.52,18.13,1.82.69,3.72,1.35,5.63,1.56,2.5.27,4.57,1.35,6.76,2.42,2.42,1.18,5,2.24,7.62,2.77,4.83.98,7.93-.75,10.12-5.19,1.96-3.95,2.52-8.23,2.71-12.58.02-.53-.01-1.07.01-1.6.07-1.46.71-2.54,2.21-2.82,1.53-.29,2.63.43,3.3,1.81.18.37.3.76.66,1.69,1.42-2.21,2.79-4.03,3.82-6.03,3.6-6.93,3.91-14.42,3.39-22-.1-1.46.02-3.41-.83-4.21-.82-.77-2.77-.26-4.21-.47-7-1.02-13.56-2.94-17.86-9.22-.53-.78-1.18-1.48-1.86-2.14-1.91-1.86-4.15-1.63-5.44.69-.86,1.54-1.5,3.22-2.07,4.89-2.35,6.8-6.4,12.43-11.97,16.87-5.77,4.59-12.45,5.41-19.5,3.83-.96-.22-1.9-.7-2.73-1.23-1.1-.7-1.94-1.66-1.34-3.11.57-1.38,1.71-1.95,3.14-1.8.87.09,1.74.36,2.59.62,5.79,1.73,9.54-1.36,12.69-5.54,3.58-4.76,5.44-10.34,6.04-16.13.69-6.6,4.09-10.35,10.25-11.97,2.38-.63,4.8-1.53,7.21-1.57,4.45-.08,6.82,3.41,9.2,6.48,3.27,4.21,6.75,8.12,11.85,10.13,1.2.47,2.47.83,3.74,1.08,2.36.46,4.27-.16,5.62-2.36.73-1.19,1.74-2.25,2.8-3.17.53-.46,1.45-.48,2.19-.7.11.73.54,1.59.29,2.16-1.27,2.91-2.6,5.81-4.15,8.57-.54.96-.94,1.7-.86,2.87.37,5.24.79,10.5.78,15.75,0,4.52-1.16,8.9-3,13.07-.14.31-.19.66-.27.93,3.59,1.1,7.08,2.17,10.56,3.26.62.19,1.27.38,1.82.71,3.03,1.83,5.98,1.53,8.85-.31,2.48-1.6,4.91-3.29,7.39-4.89.98-.63,1.06-1.32.67-2.37-2.75-7.6-4.09-15.42-3.74-23.52.33-7.6,2.21-14.86,4.72-21.97,3.66-10.38,7.7-20.63,11.12-31.09,2.21-6.79,3.8-13.81,5.25-20.81.55-2.64-.09-5.53-.2-8.3-.06-1.66-.28-3.32-.17-4.97.12-1.83-.54-2.72-2.28-3.37-7.82-2.94-14.7-7.37-20.41-13.5-10.04-10.76-13.64-23.56-11.74-38,.83-6.34,3.06-12.23,5.9-17.96,4.61-9.27,11.98-15.28,21.49-18.84,12.36-4.63,24.91-5.62,37.53-1.15,8.07,2.86,13.93,8.12,16.59,16.54.27.85,1.06,1.71,1.84,2.18,7.5,4.58,15.79,6.91,24.4,8.2,25.78,3.88,50.4,11.45,73.76,23.05,11.32,5.62,21.29,13.06,29.18,23.04,7.01,8.86,10.54,19.12,11.31,30.31.62,8.93-.69,17.6-4.13,25.91-1.7,4.11-4.2,7.65-7.41,10.74-.64.61-1.09,1.66-1.19,2.55-.57,5.52-2.48,10.59-4.96,15.47-4.78,9.36-11.11,17.48-19.64,23.73-14.12,10.32-29.68,12.35-46.24,7.54-4.47-1.3-8.73-3.3-13.09-4.99-.71-.27-1.38-.63-2.18-1.01Zm80.56-38.18c-.11-.09-.23-.19-.34-.28-1.89.64-3.75,1.36-5.66,1.88-1.71.47-3.06-.39-3.58-2.05-.47-1.49.23-2.96,1.73-3.63.38-.17.78-.26,1.18-.39,8.29-2.61,13.71-8.06,16.45-16.31,2.59-7.78,3.46-15.69,2.39-23.81-1.32-10.02-5.25-18.86-12.04-26.4-8.98-9.96-19.95-17.06-32.21-22.19-20.35-8.52-41.54-14.21-63.22-18.03-10.9-1.92-21.39-4.68-30.65-11.01-.79-.54-1.58-1.51-1.78-2.41-1.68-7.35-6.47-11.8-13.24-14.37-8.6-3.26-17.41-3.14-26.21-.99-11.59,2.83-20.62,8.85-25.41,20.36-4.78,11.47-6.02,23.03-1.22,34.7,4.56,11.08,13.07,18.34,23.78,23.28,5.28,2.44,10.6,3.28,16.15,1.08,1.49-.59,2.96-1.2,4.46-1.76,4.64-1.73,9.42-2.31,14.32-1.44,2.01.35,3.06,1.85,2.72,3.67-.31,1.63-1.74,2.58-3.62,2.29-4.46-.68-8.75-.01-12.86,1.74-4.08,1.74-8.22,3.05-12.72,2.72-1.02-.07-1.37.39-1.33,1.36.21,4.53.4,9.07.59,13.63.34.07.56.13.79.15,4.16.36,8.98,4.43,10,8.46.41,1.64-.3,3.48-1.53,3.99-1.35.56-2.34-.08-3.54-1.81-1-1.43-2.09-2.9-3.46-3.95-1.7-1.31-3.79-.28-4.33,1.82-.6,2.35-1.08,4.75-1.87,7.03-3.94,11.47-7.94,22.92-11.98,34.36-2.71,7.67-5.28,15.38-5.55,23.58-.55,16.93,5.85,31.48,16.16,44.42,5.28,6.63,12.45,10.24,21.13,10.44,6.93.16,13.32-1.82,19.51-4.67,8.52-3.91,15.95-9.48,23.41-15.04,4.32-3.22,7.36-7.3,9.6-12.09,4.19-8.97,6.79-18.44,8.4-28.16.44-2.65-.14-5.48-.38-8.22-.05-.58-.64-1.11-1.05-1.77-1.26,1.64-2.21,3.16-3.42,4.41-3.46,3.56-8.96,3.37-12.12-.29-1.07-1.25-1.13-3.11-.13-4.23,1.07-1.2,2.67-1.23,4.15-.09,1.91,1.48,2.29,1.56,3.73-.3,3.42-4.41,5.68-9.45,7.05-14.81.85-3.29-1.34-5.81-4.71-5.69-1.09.04-2.24.87-3.19,1.58-2.13,1.58-4.09,3.38-6.23,4.95-1.11.82-2.47.87-3.67.02-1.27-.91-1.8-2.23-1.53-3.74.23-1.27.83-2.47,1.06-3.74.42-2.3.98-4.64.93-6.95-.07-3.75-1.77-7.07-3.56-10.31-.46-.83-.95-1.65-1.27-2.54-1.21-3.36.83-6.33,4.4-6.34,1.33,0,2.66.26,3.98.4-2.3-4.34-8.52-9.97-13.12-11.76-8.6-3.35-17.58-4.13-26.71-3.72-1.24.06-2.48.31-3.71.26-1.64-.06-2.86-1.33-2.92-2.79-.06-1.52.98-2.76,2.69-3.02,15.4-2.35,29.83-.08,42.86,8.96,1.1.77,2.34,1.42,3.61,1.84,1.76.58,2.82-.08,3.05-1.9.22-1.81.18-3.65.16-5.48-.01-1.6-.23-3.19-.21-4.79.02-2.03,1.28-3.32,2.98-3.26,1.68.06,2.75,1.27,2.81,3.24.04,1.24,0,2.49.01,3.73.16,9.02,1.68,17.79,5.03,26.19,3.38,8.45,8.51,15.55,16.25,20.56,4.54,2.94,9.53,4.69,14.81,5.73,1.93.38,2.9,1.83,2.59,3.6-.29,1.65-1.72,2.44-3.59,2.4-3.3-.07-6.64-.23-9.89.18-4.83.6-9.15,2.48-11.99,6.76-1.16,1.76-1.13,2.14.79,2.89,5.34,2.08,10.63,4.39,16.13,5.91,9.22,2.54,18.53,2.3,27.6-.99,2.88-1.05,5.77-2.28,8.34-3.91,8.31-5.27,15.51-11.84,21.66-19.53.89-1.11,1.54-2.41,2.3-3.62ZM140.33,87.07c-4.15.42-9.23,2.35-14.2,4.61-10.64,4.84-19.03,12.53-26.5,21.29-2.29,2.69-4.25,5.68-6.14,8.67-.55.87-.84,2.51-.39,3.3,1.69,2.91,3.72,5.62,5.67,8.37.65.92,1.41.72,2-.14.3-.44.62-.89.81-1.38,2.16-5.65,5.96-10.21,9.99-14.55,10.09-10.87,21.82-19.05,36.79-21.69,1.63-.29,2.18-1.25,1.45-2.87-1.77-3.91-4.12-5.83-9.48-5.62ZM66.95,24.44c.77,1.55,1.28,2.73,1.92,3.83,6.17,10.59,12.35,21.16,18.53,31.74,6.21,10.63,12.42,21.26,18.65,31.88.99,1.69,2.5,2.22,3.84,1.44,1.29-.75,1.67-2.51.84-4.09-.6-1.15-1.26-2.28-1.91-3.4-9.4-16.1-18.81-32.2-28.22-48.29-2.72-4.65-5.44-9.3-8.16-13.95-.74-1.27-1.88-2.02-3.25-1.39-.87.4-1.45,1.41-2.24,2.22Zm-6,7.36c-2.41.03-3.77,2.03-3.09,3.7.4.98.95,1.91,1.49,2.82,10.77,18.3,21.55,36.6,32.32,54.9,1.38,2.34,2.74,4.7,4.17,7.02.92,1.49,2.31,1.91,3.63,1.22,1.25-.65,1.74-2.2,1.13-3.7-.22-.54-.54-1.05-.84-1.56-9.1-15.44-18.21-30.88-27.31-46.32-3.09-5.25-6.14-10.52-9.3-15.73-.62-1.02-1.66-1.79-2.19-2.35Zm30.87,78.01c-.56-1.2-.89-2.08-1.36-2.88-9.91-16.97-19.84-33.94-29.76-50.9-1.76-3.01-3.5-6.04-5.32-9.02-.84-1.37-2.28-1.75-3.52-1.1-1.25.65-1.77,2.24-1.15,3.7.2.49.51.94.77,1.4,9.32,15.95,18.64,31.89,27.97,47.84,2.33,3.99,4.69,7.95,7.05,11.92.71,1.19,1.81,1.95,3.1,1.31.89-.44,1.48-1.47,2.22-2.25Zm42.81-33.39c-.53-1.18-.81-2.01-1.25-2.76-9.55-16.29-19.11-32.57-28.67-48.85-2.19-3.73-4.35-7.47-6.58-11.17-1.02-1.69-2.37-2.13-3.7-1.4-1.43.79-1.8,2.47-.93,4.19.11.21.23.41.35.61,10.27,17.44,20.54,34.89,30.81,52.33,1.62,2.75,3.26,5.5,4.92,8.23.66,1.09,1.78,1.64,2.88,1.06.87-.46,1.45-1.47,2.16-2.25Zm-52.04-60.14c-2.03-.07-3.34,1.1-3.24,2.57.06.95.48,1.94.96,2.79,6.07,10.5,12.18,20.98,18.29,31.47,4.98,8.54,9.95,17.08,14.94,25.61.99,1.7,2.34,2.2,3.66,1.48,1.45-.79,1.85-2.46.98-4.17-.16-.32-.35-.62-.53-.93-6.25-10.74-12.5-21.48-18.76-32.22-4.76-8.18-9.51-16.38-14.33-24.53-.55-.93-1.53-1.61-1.98-2.06Zm86.63,231.14c-1.97-1.03-3.83-2.36-5.92-3.02-3.78-1.2-7.7-1.99-11.75-3.01,5.26,4.13,11.24,5.69,17.67,6.02Z"></path><path class="cls-1" d="m344.63,527.84c-20.15.47-38.33-16.72-38.36-38.44-.03-21.32,17.24-38.44,38.61-38.31,20.97.13,38.23,17.55,38.2,38.56-.03,20.98-17.36,38.19-38.45,38.19Zm-.12-17.9c11.3-.03,20.67-9.43,20.66-20.74,0-11.05-9.55-20.41-20.82-20.4-11.06,0-20.55,9.66-20.54,20.92,0,11.05,9.42,20.25,20.7,20.22Z"></path><path class="cls-1" d="m158.14,490.14c.01,20.73-17.64,38.25-38.56,38.28-20.88.03-38.28-17.34-38.29-38.24-.02-21.38,17.12-38.57,38.44-38.55,21.09.02,38.39,17.37,38.41,38.51Zm-38.65,20.22c11.38.06,20.61-8.94,20.7-20.19.09-11.37-9.27-20.85-20.69-20.95-10.97-.1-20.64,9.66-20.68,20.86-.05,11.04,9.31,20.21,20.67,20.28Z"></path><path class="cls-1" d="m46.9,490.69c0-.69,0-1.37,0-2.06-.01-10.84-.03-21.67-.04-32.51,0-2.35,1.32-3.72,3.68-3.74,3.49-.03,6.99-.04,10.48-.01,2.47.02,3.36.9,3.36,3.27.08,23.03.15,46.06.2,69.1,0,1.16.49,2.56-1.08,3.26-1.62.73-3.6.44-4.93-.85-6.9-6.74-13.79-13.5-20.68-20.25-6.26-6.13-12.51-12.27-18.77-18.4-.37-.36-.77-.69-1.49-1.34,0,1.1,0,1.83,0,2.55.02,11.43.04,22.86.05,34.28,0,2.35-1.05,3.42-3.46,3.44-3.61.03-7.22.03-10.84.02-2.47,0-3.15-.7-3.16-3.18-.03-14.45-.03-28.9-.06-43.34-.02-8.58-.09-17.17-.13-25.75,0-1.22-.31-2.57,1.13-3.28,1.21-.59,4.25-.17,5.19.72,3.77,3.6,7.52,7.21,11.29,10.81,9.02,8.64,18.04,17.28,27.06,25.92.55.52,1.14,1,1.71,1.5.16-.05.33-.11.49-.16Z"></path><path class="cls-1" d="m446.68,490.51c0-1.39,0-2.26,0-3.12-.02-10.72-.04-21.44-.05-32.16,0-2.76.69-3.53,3.41-3.56,3.67-.05,7.34-.05,11.01,0,2.22.02,3.09.96,3.1,3.15.08,23.04.17,46.07.22,69.11,0,1.21.54,2.69-1.14,3.4-1.8.76-3.53.44-5.04-1.03-9.97-9.79-19.94-19.58-29.91-29.37-3.13-3.07-6.27-6.12-9.42-9.17-.37-.36-.78-.67-1.48-1.26-.05,1.02-.11,1.7-.11,2.38.06,11.25.13,22.5.18,33.75.01,3.12-1.02,4.12-4.16,4.12-2.9,0-5.8,0-8.71.01-4.33,0-4.57-.23-4.58-4.47-.02-15.69-.03-31.39-.07-47.08-.02-6.87-.1-13.74-.15-20.61,0-1.32-.03-2.69,1.34-3.43,1.21-.66,4.09-.1,5.12.89,13.01,12.44,26.02,24.87,39.04,37.3.29.28.61.52,1.38,1.16Z"></path><path class="cls-1" d="m174.85,489.65c0-11.31,0-22.61,0-33.92,0-2.89.75-3.65,3.7-3.66,10.18-.03,20.36-.12,30.54-.03,16.89.15,28.01,17.57,21,32.9-2.14,4.68-5.82,7.99-10.24,10.52-2.6,1.48-2.75,1.54-1.31,4.26,3.1,5.86,6.37,11.62,9.54,17.43,1.1,2.02,2.25,4.04,3.15,6.15.97,2.29-.04,3.69-2.55,3.71-4.08.04-8.17-.05-12.25.06-2,.05-3.22-.82-4.08-2.5-4.16-8.17-8.35-16.33-12.47-24.53-.63-1.26-1.36-1.83-2.84-1.82-4.61.05-4.6-.01-4.59,4.49.02,6.81.03,13.61.03,20.42,0,2.67-1.21,3.91-3.84,3.93-3.49.02-6.98.02-10.48,0-2.09,0-3.12-1.04-3.13-3.16-.02-10-.03-20.01-.04-30.01,0-1.42,0-2.84,0-4.26-.06,0-.11,0-.17,0Zm26.86-6.11s0-.09,0-.14c2.48,0,4.97-.01,7.45,0,1.52.01,2.74-.51,3.72-1.7,2.2-2.65,2.59-7.62.78-10.55-1.17-1.9-2.87-2.98-5.12-2.99-4.79-.03-9.58.03-14.37,0-1.27-.01-1.61.52-1.6,1.7.05,4.02.06,8.05,0,12.07-.02,1.26.48,1.65,1.68,1.63,2.48-.05,4.97-.02,7.45-.02Z"></path><path class="cls-1" d="m283.18,364.77c2.29-3.67,4.31-7.01,6.44-10.27,1.72-2.62,3.57-5.16,5.38-7.72,1.06-1.5,2.43-2.21,4.38-2.14,3.96.13,7.94.04,11.9.04,4.01,0,4.93,1.44,2.78,4.87-5.15,8.23-10.43,16.37-15.66,24.55-1.18,1.85-2.33,3.71-3.54,5.54-.73,1.1-.85,2.18-.16,3.32,2.46,4.04,4.87,8.12,7.42,12.1,4.26,6.62,8.62,13.18,12.92,19.77.35.54.65,1.14.86,1.75.58,1.68-.28,3.06-2.05,3.08-4.8.07-9.6.18-14.39-.04-1.11-.05-2.49-1.14-3.18-2.14-2.45-3.55-4.64-7.29-6.95-10.93-1.46-2.29-2.97-4.56-4.47-6.83-.39-.58-.81-1.14-1.41-1.98-1.99,3.12-3.62,5.77-5.34,8.37-2.65,4-5.37,7.94-8.04,11.93-.83,1.23-1.86,1.79-3.41,1.76-4.26-.09-8.53,0-12.79-.02-2.93,0-4.03-1.82-2.43-4.29,3.09-4.77,6.46-9.36,9.51-14.15,3.71-5.84,7.19-11.82,10.81-17.72.95-1.54.97-2.9-.06-4.42-4.3-6.38-8.57-12.78-12.81-19.2-2.31-3.51-4.61-7.03-6.75-10.64-1.64-2.78-.51-4.57,2.74-4.59,4.15-.03,8.3.08,12.44-.07,2.15-.08,3.67.73,4.79,2.43,2.15,3.26,4.3,6.52,6.37,9.83,1.13,1.8,2.08,3.72,3.14,5.57.4.69.9,1.33,1.55,2.27Zm-15.05,48.66c.07-.53.22-1.03.18-1.51-.05-.51-.28-1-.44-1.5-.48.2-1,.33-1.43.62-.54.36-.99.85-1.48,1.29-.16-.19-.32-.38-.49-.58.57-.31,1.14-.62,1.88-1.02-.72-.69-1.11-1.06-1.38-1.31-1.02.57-1.83,1.03-2.65,1.48-.84.46-1.68.92-2.57,1.4.66.8,1.11,1.35,1.61,1.96.34-.2.72-.43,1.18-.7-.36-.5-.64-.89-.95-1.31q.99-.34,3.4,2.84c.4-1.01.71-1.79,1.13-2.85.56.33,1.17.69,1.99,1.18Z"></path><path class="cls-1" d="m93.67,382.93c0-11.43,0-22.86,0-34.29,0-2.64.62-3.28,3.21-3.28,13.98-.03,27.95-.05,41.93-.07,2.19,0,2.99.78,3,3,.02,3.32.02,6.63.01,9.95,0,2.61-.93,3.55-3.51,3.55-8.41.02-16.82.07-25.23,0-1.71-.01-2.28.49-2.19,2.21.14,2.72.1,5.45.01,8.17-.05,1.47.47,1.97,1.95,1.95,6.75-.11,13.5-.14,20.25-.18,2.72-.02,3.98,1.23,4,3.97.03,2.84.04,5.69.01,8.53-.02,2.65-1.23,3.82-3.9,3.82-6.75.01-13.5.06-20.26,0-1.58-.01-2.07.53-2.01,2.06.12,3.25.16,6.51.12,9.77-.02,1.51.59,1.91,2.01,1.9,8.71-.06,17.41-.05,26.12-.08,2.05,0,2.69.49,2.73,2.55.07,3.55.08,7.1.03,10.65-.03,1.93-.85,2.69-2.73,2.7-14.21.09-28.43.16-42.64.22-2.3,0-2.84-.55-2.84-2.83,0-11.43,0-22.86,0-34.29h-.07Zm17.77,32.21c.47-.56,1.23-1.47,2.04-2.43-1.78.19-3.23.34-4.69.5,1.2-.6-.45-3.91,2.72-2.41-.33-.54-.43-.95-.62-.99-1.62-.36-2.29.77-2.9,1.95-.62,1.19-.24,2.16.67,3,.14.13.42.1.64.13.59.08,1.19.14,2.14.26Z"></path><path class="cls-1" d="m29.03,382.87c0-11.19,0-22.38,0-33.57,0-3.06.79-3.87,3.88-3.88,13.79-.02,27.59-.04,41.38-.05,2.2,0,3.49,1.28,3.5,3.5.02,3.14.03,6.28,0,9.41-.01,2.27-1.35,3.57-3.65,3.57-8.41.01-16.81.06-25.22-.01-1.71-.02-2.33.54-2.28,2.21.1,3.55.14,7.1.11,10.65-.01,1.44.75,1.61,1.91,1.6,6.99-.03,13.97-.02,20.96-.03,2.15,0,2.83.65,2.85,2.86.03,3.43.04,6.87.02,10.3-.01,2.02-1.05,3.01-3.08,3.02-6.69.03-13.38.05-20.06.07-2.73,0-2.78.05-2.78,2.76,0,7.1.02,14.21.01,21.31,0,2.6-.92,3.51-3.51,3.51-3.55,0-7.1.01-10.66,0-2.37,0-3.28-.92-3.28-3.34,0-11.31,0-22.61,0-33.92h-.1Z"></path><path class="cls-1" d="m278.7,497.24c0,8.76,0,17.53,0,26.29,0,2.44-.84,3.37-3.25,3.4-3.49.05-6.99.06-10.48.03-2.49-.02-3.79-1.36-3.8-3.85-.03-17.41-.05-34.82-.08-52.22q0-2.53-2.56-2.52c-3.79.01-7.58.03-11.37.02-2.43,0-3.01-.6-3.02-3.07-.02-3.2-.02-6.39-.02-9.59,0-3.22.5-3.74,3.68-3.74,13.91-.02,27.83.03,41.74-.07,6.16-.04,6.2.77,6.06,6.04-.07,2.48.01,4.97,0,7.46-.02,2.23-.63,2.83-2.86,2.85-3.97.03-7.93.08-11.9.04-1.66-.02-2.26.57-2.24,2.29.07,8.88.03,17.76.03,26.64h.07Z"></path><path class="cls-1" d="m409.69,412.6h-4.16c.82-.97,1.31-1.55,1.76-2.08-.65-.16-2.78.95-2.75,1.64.1,2.27-1.34,1.64-2.58,1.46-1.67,3.79-4.98,4.89-8.69,5.42-2.14.31-4.26.89-6.41,1.09-5.17.48-10.28.25-15.02-2.26-1.4-.74-2.75-1.55-4.11-2.35-.41-.24-.86-.44-1.18-.78-7.13-7.61-10.76-18.46-1.67-29.23,2.08-2.46,4.73-4.46,7.2-6.56.84-.72,1.12-1.36.49-2.23-1.07-1.49-2.18-2.94-3.31-4.38-1.96-2.5-3.6-5.16-4.13-8.34-.24-1.45-.95-3.01.47-4.31.08-.07.16-.27.12-.31-1.28-1.62.24-2.77.58-4.17.96-3.97,3.64-6.47,6.93-8.29,7.88-4.37,16.05-4.81,24.16-.76,9.43,4.71,12.49,14.75,7.19,23.88-1.81,3.12-4.44,5.8-6.89,8.51-1.1,1.22-1.18,1.94,0,3.05,2.08,1.94,4.02,4.02,6.06,5.99,1.09,1.06,1.82.91,2.36-.53.65-1.71,1.21-3.45,1.69-5.22.69-2.56,2-3.82,4.57-3.39,2.65.44,5.24,1.32,7.78,2.23,1.39.5,2.27,1.56,1.83,3.34-.49,2-.66,4.08-1.13,6.08-.53,2.26-1.78,4.11-3.48,5.21-.09.91.06,1.7-.26,2.19-.96,1.48-.63,2.74.45,3.86,1.98,2.07,4.05,4.06,6.08,6.08.5.5,1.12.94,1.44,1.54.27.5.44,1.38.18,1.78-1.19,1.79-2.56,3.47-3.83,5.16-.66-2.38-1.26-4.55-1.98-7.14-1.15,1.34-2.13,2.48-3.1,3.62.07.13.15.26.22.38.84-.38,1.69-.75,2.43-1.08.4,1.48.9,3.03,1.21,4.62.35,1.77-1.14,2.44-2.26,3.24-.84.59-1.56.77-2.61-.15-1.99-1.75-4.29-3.13-6.45-4.66.29-.86.51-1.52.73-2.17.55.17,1.1.5,1.64.48.85-.04,1.81-.12,2.5-.55,1.03-.64,1.88-1.59,2.79-2.41.37-.33.83-.62,1.08-1.04.67-1.13,1.24-2.31,1.84-3.44-1.31.82-.76-.97-1.18-1.37-.78,1.16-1.5,2.22-2.21,3.28-.33-2.62-1.95-4.19-3.38-5.69-.11-.65-.21-1.27-.31-1.9-.24.05-.48.1-.72.15.18,1.02-1.02,2.29.88,3.01.26.1.32.74.47,1.13-.42.06-.9.28-1.25.15-1.2-.46-2.18-1.12-1.37-2.66.07-.13,0-.33,0-.71-.45.61-.75,1.01-1.08,1.46-1.24-1.08-1.27-2.31-.33-3.2,2.51-2.39,3.41-5.58,4.79-8.57.9-1.95,1.28-3.73-.16-5.7-2.31,4.61-4.6,9.17-6.89,13.72-.23-.05-.46-.09-.68-.14-.34-.93-.69-1.86-1.01-2.75-.26.28-.61.65-.88.95-2.07-1.86-4.12-3.57-6.02-5.44-3.58-3.52-7.08-7.12-10.61-10.69-1.53-1.55-1.44-1.76.35-3.01,2.52-1.76,5.11-3.45,7.41-5.46,4.75-4.15,6.07-10.1,3.68-15.43-3.68-8.21-16.69-10.54-23.04-4.05-1.76,1.8-3.2,3.9-4.76,5.88-.13.16-.21.46-.16.66.68,2.55,1.09,5.23,2.18,7.61,1.01,2.22,2.66,4.18,4.18,6.14,1.46,1.88,3.11,3.62,4.78,5.53-.69.45-1.31.78-1.86,1.22-2.81,2.25-5.88,4.26-8.33,6.85-6.32,6.68-7.05,15.05-2.27,21.7,1.22,1.69,2.46,3.35,3.76,5.12.21-.15.68-.74,1.03-.67,1.75.34,3.48.83,5.2,1.31.86.24,1.69.59,2.77.97v1.24c.43-.06.79,0,.98-.15,3.66-2.98,8.47-2.58,12.86-4.36-.3.76-.53,1.34-.77,1.93.18.06.36.12.54.19.23-.76.39-1.56.73-2.26.23-.48.69-.87,1.11-1.21.24-.19.71-.11.92-.31,1.92-1.88,3.79-3.8,5.69-5.69.23-.23.57-.35.97-.59.06.59.1,1.02.12,1.2,1-.04,2.15-.43,2.64-.03.54.45.47,1.63.58,2.14.88.39,1.64.73,2.4,1.07-.37.48-.73.97-1.1,1.45.11.02.22.04.34.06l-.83,2.94Z"></path><path class="cls-1" d="m170.13,363.33c2.34-3.3,4.48-6.31,6.62-9.32.15,0,.31,0,.46-.01,0,1.83,0,3.66,0,5.48.03,13.73.06,27.46.09,41.2q0,2.93,2.84,2.93c6.98-.02,13.97-.03,20.95-.06,2.17,0,3.2.93,3.22,3.07.04,3.37.03,6.75.02,10.12-.01,1.99-1.05,3.03-3.07,3.07-1.83.04-3.67,0-5.5,0-10.59.06-21.19.13-31.78.18-3.2.02-4.14-.93-4.14-4.08-.03-22.43-.06-44.87-.08-67.3,0-.65-.21-1.49.12-1.91.55-.7,1.37-1.33,2.21-1.64,1.05-.4,1.33.52,1.62,1.36,1.8,5.13,3.63,10.24,5.47,15.35.13.37.42.69.96,1.55Z"></path><path class="cls-1" d="m169.66,359.79c-3.2-7.54-5.65-15.03-7.01-22.89-3.4-19.71.85-37.98,10.31-55.26,2.61-4.77,5.54-9.37,8.29-14.07.58-.99,1.26-1.29,2.35-.91,1.16.4,2.36.72,3.71,1.12-.21.64-.3,1.15-.52,1.61-3.54,7.31-4.64,15.14-4.77,23.12-.16,9.83.11,19.66-.19,29.48-.17,5.71-.88,11.44-1.75,17.1-1.05,6.77-4.66,12.47-8.47,18.01-.59.86-1.22,1.7-1.94,2.71Z"></path><path class="cls-1" d="m218.7,382.04c0-11.49,0-22.98,0-34.47,0-2.02.7-2.81,2.76-2.84,3.73-.06,7.46-.07,11.19-.01,2.44.03,3.31.97,3.31,3.34.03,22.74.06,45.49.08,68.23,0,2.87-.54,3.41-3.41,3.43-3.55.02-7.11.03-10.66,0-2.4-.01-3.17-.8-3.17-3.22,0-11.49,0-22.98,0-34.47h-.1Z"></path><path class="cls-1" d="m227,319.77c-.93-3.16-1.99-6.29-2.75-9.49-2.17-9.07-7.04-16.68-12.54-24.03-4.94-6.6-9.17-13.64-12.39-21.25-.24-.57-.12-1.3-.16-1.96.55.07,1.2-.03,1.65.22,11.21,6.21,20.96,14.17,25.97,26.21,3.78,9.09,5.24,18.82,1.43,28.54-.23.59-.53,1.16-.79,1.74-.14,0-.28,0-.43,0Z"></path><path class="cls-1" d="m106.87,332.79c.53-.76.78-1.38,1.24-1.75,5.64-4.54,11.72-8.38,18.23-11.55,1.31-.64,2.59-.44,3.31.73,1.32,2.13,2.52,4.37,3.54,6.66.6,1.35-.52,2.25-1.59,2.8-3.99,2.05-7.99,4.07-12.04,6-2.13,1.02-4.38,1.78-6.54,2.73-1.22.54-2.25.35-2.98-.7-1.1-1.57-2.09-3.23-3.16-4.92Zm18.82-5.03c2.03-.72,1.75-2.32,1.77-3.82-.86.07-1.68.14-2.49.21-.09-.16-.19-.31-.28-.47-.78,1.53-1.56,3.06-2.34,4.59.21.14.41.28.62.41,1.15-1.11,2.29-2.23,3.44-3.34.12.12.23.25.35.37-.35.68-.71,1.37-1.06,2.05Z"></path><path class="cls-1" d="m267.48,529.61c2.04,0,4.08,0,6.11,0,2.24,0,4.44.19,6.31-1.61,1.02-.98,1.58-1.87,1.58-3.32-.05-16.99-.05-33.98-.06-50.97q0-3.13,3.04-3.13c3.61,0,7.22-.09,10.83.03,1.76.06,2.62-.7,2.74-2.27.24-3.12.29-6.25.51-9.37.06-.86-.69-2.35.79-2.44,1.57-.09,1.22,1.43,1.23,2.44.03,3.49.04,6.99.01,10.48-.01,2.18-.59,2.76-2.74,2.77-4.08.03-8.17.05-12.25,0-1.51-.02-1.86.56-1.84,2.02.18,17.63.32,35.27.39,52.91.01,3.58-.63,4.06-4.2,4.06-3.37,0-6.75.04-10.12-.03-.83-.02-1.66-.42-2.48-.64.05-.31.1-.62.15-.93Z"></path><path class="cls-1" d="m184.16,130.49c.39.37,1.28.9,1.75,1.69,6.07,10.28,11.07,21.04,14.53,32.48,1.08,3.56,1.91,7.2,2.85,10.8.1.4.22.81.23,1.22.01,1.35-.38,2.52-1.88,2.81-1.54.3-2.32-.63-2.66-1.98-.59-2.35-1.07-4.73-1.7-7.07-3.36-12.48-8.62-24.15-15.05-35.32-.35-.61-.71-1.25-.87-1.93-.35-1.5.72-2.73,2.8-2.7Z"></path><path class="cls-1" d="m168.42,160.74c-2.87-.05-3.85-1.12-3.52-3.97.16-1.35.3-2.73.69-4.01,1.22-3.92.63-7.7-1.21-11.17-3.07-5.79-6.45-11.41-9.63-17.13-.62-1.11-1.08-2.35-1.33-3.58-.1-.5.4-1.4.89-1.67.35-.19,1.27.19,1.66.59.89.93,1.67,1.99,2.4,3.06,5.1,7.49,9.74,15.24,13.16,23.66,1.29,3.18,2.48,6.42,1.96,9.96-.45,3.07-1.97,4.3-5.06,4.25Z"></path><path class="cls-1" d="m203.87,245.33c.35-.9.78-1.8,1.03-2.75.63-2.32,1.13-4.68,1.81-6.99.22-.76.76-1.45,1.24-2.1.23-.31.75-.38,1.04-.65,2.71-2.61,5.64-2.32,8.75-.8,1.75.85,3.6,1.49,5.41,2.21,1.36.54,1.58,1.26.75,2.56-2.6,4.05-6.19,7.11-9.84,10.12-.18.15-.38.28-.57.43-2.56,1.97-2.51,1.9-5.22.12-1.3-.86-2.82-1.38-4.41-2.14Z"></path><path class="cls-1" d="m377.29,521.15c-.48-1.04-.66-1.59-.98-2.06-.18-.27-.57-.39-.86-.58-.12.34-.45.83-.33.99,1.2,1.61.09,2.61-1.01,3.39-2.59,1.85-5.24,3.62-7.95,5.3-.7.43-1.68.41-2.53.59-.06-.15-.12-.31-.18-.46.3-.46.6-.92.98-1.51-.49-.22-.91-.41-1.32-.6,2.91-2.18,5.9-4.19,8.64-6.5,11.54-9.68,16.05-21.86,12.75-36.72-.49-2.19-.92-4.39-1.37-6.6-.04-.2.04-.42.23-.66,3.43,6.92,5.89,14.11,4.63,21.93-1.38,8.57-3.84,16.77-10.71,23.47Z"></path><path class="cls-1" d="m157.97,476.22c8.64,10.92,5.23,37.53-5.66,45.01-.42-.74-.82-1.47-1.31-2.34-.85-.02-1.37.35-.74,1.32.73,1.13.31,2.02-.54,2.62-3.04,2.13-6.14,4.2-9.27,6.19-.45.29-1.22.09-2.27.14.65-.91.97-1.35,1.38-1.94-.54-.19-.93-.33-1.52-.53,1.98-1.41,3.83-2.68,5.63-4,5.64-4.16,10.67-8.92,13.59-15.42,3.52-7.84,4.6-15.97,2.14-24.39-.63-2.17-.96-4.43-1.42-6.66Z"></path><path class="cls-1" d="m124.58,135.08c1.24-9.36,5.37-16.43,13.44-20.92,1.92-1.07,3.22-.89,4.54.87,1.17,1.57,1.99,3.43,2.76,5.25.37.88.03,1.79-1.29,1.7-2.53-.17-4.57,1.06-6.51,2.43-2.77,1.96-5.14,4.31-6.86,7.31-.87,1.52-2.01,2.92-3.17,4.25-.44.5-1.53,1.06-1.9.85-.57-.32-.77-1.29-1-1.74Z"></path><path class="cls-1" d="m463.67,530.1c.15-.22.17-.3.21-.31,3.05-.98,3.16-3.31,3.15-6.05-.1-21.61-.08-43.22-.09-64.82,0-.86.08-1.72.12-2.58.17-.09.35-.18.52-.27.45.56.96,1.09,1.31,1.71.18.32.09.81.09,1.22.02,23.27.04,46.53.06,69.8,0,1.25,0,2.46-1.61,2.68-1.46.19-3,.48-3.77-1.38Z"></path><path class="cls-1" d="m67.15,457.12c2.06,0,2.07,1.18,2.07,2.43,0,11.01,0,22.03.02,33.04,0,12.26.02,24.51.02,36.77,0,1.09.27,2.38-1.27,2.74-1.5.35-3.05.7-4.17-1.12.35-.32.65-.78,1.03-.88,2.1-.58,2.37-2.07,2.36-3.97-.06-22.14-.06-44.29-.07-66.43,0-.82,0-1.63,0-2.58Z"></path><path class="cls-1" d="m35.69,423.24c2.47,0,4.94,0,7.41,0,3.53,0,5.98-2.47,5.99-6.09,0-6.39-.02-12.78-.02-19.17,0-2.7.01-2.7,2.74-2.71,6.04,0,12.08-.15,18.11.04,3.07.1,4.16-.82,5.01-4.26.63-2.59.28-5.4.46-8.11.05-.72.44-2.01.67-2.01,1.25,0,1.35,1.04,1.35,2.04,0,3.55.03,7.1,0,10.65-.02,2.38-.61,2.94-2.96,2.95-6.75,0-13.49,0-20.24,0-2.57,0-2.75.19-2.76,2.7,0,7.28,0,14.56,0,21.84,0,2.58-.54,3.12-3.13,3.13-3.61.01-7.22.03-10.83,0-.63,0-1.27-.21-1.9-.32.03-.22.07-.44.1-.67Z"></path><path class="cls-1" d="m238.84,423.69c0-1.18,0-2.17,0-3.16-.04-5.61-.09-11.22-.11-16.83,0-3.08.06-6.16.07-9.23.02-14.27.01-28.53.06-42.8,0-.71.46-2.06.62-2.04,1.39.12,1.04,1.31,1.05,2.18.11,13.97.21,27.94.27,41.9.04,9.16,0,18.33.03,27.49,0,1.44-.36,2.42-2,2.49Z"></path><path class="cls-1" d="m233.82,467.97c1.83,2.23,2.61,4.81,2.94,7.5.58,4.71.33,9.35-1.9,13.68-2.34,4.53-5.74,8.09-10.21,10.53-1.48.81-1.71,1.67-.95,3.12,3.17,6.02,6.3,12.06,9.41,18.12,1.08,2.1,2.11,4.24,3.07,6.4.99,2.25.13,3.55-2.3,3.56-4.32.02-8.65.02-12.97,0-.57,0-1.14-.2-1.7-.3l.07-.56c.66.03,1.32.11,1.97.08,3.23-.16,6.53.03,9.66-.62,3.22-.66,4.11-3.2,2.61-6.17-3.92-7.77-7.89-15.51-11.93-23.22-.68-1.29-.41-1.97.63-2.83,2.4-2,4.95-3.9,6.99-6.24,5.18-5.93,6.62-12.91,5.03-20.57-.17-.83-.29-1.66-.44-2.49Z"></path><path class="cls-1" d="m299.29,384.74c-2.37-2.27-2.68-3.34-1.14-5.74,3.63-5.66,7.43-11.22,11.12-16.85,2.23-3.39,4.37-6.84,6.56-10.26.41-.65.75-1.4,1.31-1.88.5-.43,1.42-.91,1.87-.71.52.23.94,1.14,1.03,1.8.07.56-.29,1.25-.62,1.78-5.41,8.46-10.86,16.9-16.26,25.36-1.33,2.08-2.53,4.24-3.86,6.49Z"></path><path class="cls-1" d="m179.93,349.53c1.68.37,2.23,1.31,2.24,2.53.03,3.9-.01,7.81-.01,11.71,0,1.12.06,2.23.06,3.35.01,10.53.02,21.07.03,31.6,0,.35.1.78-.06,1.05-.23.39-.68.97-.98.94-.45-.04-1.06-.45-1.25-.87-.23-.49-.11-1.16-.11-1.75-.01-15.5-.02-31.01-.02-46.51,0-.63.06-1.25.1-2.04Z"></path><path class="cls-1" d="m144.68,408.65c1.89.01,2.65.66,2.63,2.26-.03,3.55-.04,7.1.06,10.65.04,1.5-.6,2.2-2,2.36-2.17.25-4.34.67-6.51.69-9.64.07-19.29.05-28.93,0-2.54-.01-5.08-.21-7.61-.4-.75-.06-1.48-.38-2.21-.58.03-.18.05-.36.08-.55.73-.04,1.45-.11,2.18-.11,12.42-.02,24.85-.03,37.27-.04,3.25,0,5.03-1.76,5.04-4.98,0-3.06,0-6.12,0-9.3Z"></path><path class="cls-1" d="m174.46,119.71c-1.25-.85-2.34-1.32-3.04-2.13-1.21-1.39-2.71-1.85-4.4-1.93-2.93-.13-5.78.19-8.44,1.57-1.41.73-2.04.43-1.92-1.16.14-1.87.49-3.74,1.01-5.54.19-.66.99-1.41,1.68-1.63,7.08-2.27,13.33,1.22,15.23,9.03.09.36-.04.78-.11,1.79Z"></path><path class="cls-1" d="m139.91,144.39c-1.16-.69-2.39-1.02-2.77-1.77-.34-.67,0-1.97.47-2.72.64-1.02,1.59-1.94,2.59-2.62,1.85-1.24,3.05-2.86,3.92-4.88,1.29-2.99,2.92-3.18,4.88-.57.87,1.16,1.56,2.52,2.07,3.89.8,2.12.16,4.17-2.08,5.25-2.88,1.39-6.01,2.28-9.09,3.42Z"></path><path class="cls-1" d="m420.25,493.26c1.55.94,2.27,2.04,2.26,3.81-.06,8.1-.02,16.2,0,24.3,0,2.36.03,4.72.1,7.07.04,1.48-.85,2.06-2.09,2.08-4.32.06-8.63.05-12.95.02-.44,0-.88-.28-1.32-.43.03-.18.06-.35.09-.53,2.39,0,4.78,0,7.17,0,3.97-.02,6.4-2.05,6.62-5.94.19-3.35,0-6.73-.02-10.09-.02-6.44-.03-12.89-.03-19.33,0-.27.09-.54.17-.95Z"></path><path class="cls-1" d="m6.89,530.68c2.58-.12,5.16-.25,7.75-.35,3.03-.11,5.77-2.51,5.83-5.53.1-5.44-.03-10.88-.07-16.32-.03-4.5-.06-8.99-.07-13.49,0-.21.13-.42.23-.75,1.48.74,2.16,1.74,2.15,3.36-.03,7.69-.02,15.38.02,23.08.01,2.66.13,5.32.22,7.98.06,1.76-.72,2.66-2.5,2.69-4.08.06-8.16.15-12.24.2-.47,0-.94-.21-1.41-.33l.09-.53Z"></path><path class="cls-1" d="m80.53,349.5c1.69.32,2.52,1.06,2.51,2.66-.03,3.55-.04,7.11.01,10.66.02,1.47-.7,2.23-2.04,2.42-2.1.3-4.22.7-6.33.73-6.81.1-13.62.04-20.43.06-2.41,0-2.44.06-2.45,2.53,0,1.01-.01,2.01,0,3.02.01.86-.19,1.72-1.21,1.46-.5-.13-1.1-.96-1.16-1.52-.16-1.64,0-3.31-.08-4.97-.07-1.47.51-2,1.97-1.95,4.97.17,9.95.53,14.9.31,3.92-.17,7.82-1.01,11.69-1.72,1.81-.33,2.54-1.69,2.47-3.57-.09-2.72-.03-5.45-.01-8.17,0-.62.1-1.23.16-1.95Z"></path><path class="cls-1" d="m282.88,403.03c.75,1.01,1.37,1.62,1.68,2.35.24.56.37,1.45.09,1.89-3.16,5-6.41,9.94-9.62,14.91-.87,1.34-2.07,1.7-3.64,1.66-3.9-.09-7.81.03-11.72.03-.77,0-1.54-.19-2.31-.3,0-.18.01-.37.02-.55.54-.05,1.07-.13,1.61-.14,2.9-.05,5.8.02,8.69-.17.97-.06,2.18-.52,2.79-1.23,1.93-2.23,3.75-4.57,5.37-7.03,2.4-3.64,4.59-7.42,7.04-11.43Z"></path><path class="cls-1" d="m166.29,423.02c.68-.03,1.36-.09,2.03-.1,10.29-.02,20.59-.03,30.88-.05,4.97,0,8.14-3.11,8.32-8.17.06-1.6-.05-3.2.04-4.79.03-.46.46-.91.71-1.36.31.45.87.9.88,1.36.08,4.08.11,8.17,0,12.24-.02.6-.81,1.42-1.44,1.68-.83.36-1.85.36-2.79.37-12.13.03-24.26.04-36.39.03-.79,0-1.58-.28-2.37-.42.04-.26.08-.53.12-.79Z"></path><path class="cls-1" d="m145.84,349.43c.4.79,1.12,1.57,1.15,2.37.12,3.72.07,7.45.05,11.18,0,1.45-.63,2.34-2.24,2.36-8.69.08-17.38.19-26.08.28-2.67.03-2.67,0-2.66,2.69,0,.3,0,.59,0,.89,0,.88-.04,1.73-1.24,1.73-1.17,0-1.09-.87-1.08-1.63.06-5.96-.83-4.9,4.73-4.96,6.92-.07,13.85-.02,20.77-.04,2.89,0,5.68-2.83,5.69-5.76.01-2.31,0-4.62,0-6.92,0-.63.08-1.25.12-1.88.26-.1.52-.2.79-.3Z"></path><path class="cls-1" d="m128.88,394.11c-3.61,0-7.22.04-10.83-.02-1.47-.03-2.05.53-1.96,1.98.07,1.12.13,2.27-.04,3.37-.09.61-.68,1.14-1.04,1.7-.42-.59-1.12-1.14-1.2-1.77-.19-1.4,0-2.84-.09-4.25-.1-1.56.55-2.07,2.08-2.06,6.16.05,12.31.03,18.47.02,3.69,0,4.67-.96,4.62-4.61-.03-1.95-.18-3.9-.25-5.84-.02-.71-.18-1.53.12-2.1.35-.67,1.13-1.12,1.72-1.66.51.56,1.06,1.1,1.51,1.71.15.2.08.57.08.87,0,3.37.02,6.75-.02,10.12-.03,2.07-.49,2.51-2.52,2.52-3.55.02-7.1,0-10.66,0v.02Z"></path><path class="cls-1" d="m135.62,326.46c3,2.27,3.25,6.36.29,7.95-4.46,2.4-9.15,4.37-13.77,6.46-1.45.66-2.97,1.17-4.49,1.67-.53.18-1.21.33-1.7.15-.54-.2-.94-.79-1.4-1.21.38-.38.69-.91,1.15-1.12,5.51-2.6,11.02-5.19,16.56-7.71,2.11-.96,3.28-2.41,3.14-4.8-.03-.43.13-.87.21-1.39Z"></path><path class="cls-1" d="m181.56,530.3c4.45-.66,9.43,1.08,13.04-2.85.21-1.28.56-2.76.67-4.24.16-2.28.23-4.57.19-6.85-.07-4.6-.28-9.21-.33-13.81,0-.45.78-1.34.99-1.28.58.16,1.27.62,1.51,1.14.28.59.15,1.39.14,2.1-.1,6.27-.19,12.53-.33,18.8-.03,1.29-.25,2.58-.38,3.87-.04.4-.24,1.01-.06,1.16,1.56,1.31.02,1.82-.69,2.08-1.25.45-2.64.69-3.97.73-3.07.11-6.15.06-9.23.03-.52,0-1.04-.2-1.56-.31v-.56Z"></path><path class="cls-1" d="m174.78,198.36c-1.23-.36-2.52-.59-3.67-1.13-1.31-.62-1.63-1.84-1.12-3.17.53-1.37,1.61-1.82,3.02-1.5.4.09.79.27,1.19.33,1.67.24,2.65-.44,3.07-2.1.46-1.81,1.53-2.67,2.95-2.36,1.42.31,2.2,1.58,2.01,3.29-.43,3.94-3.32,6.44-7.46,6.65Z"></path><path class="cls-1" d="m250.14,287.97c-2.68-.01-4.72-2.21-4.66-5,.06-2.55,2.16-4.67,4.64-4.7,2.44-.02,4.64,2.29,4.67,4.89.02,2.72-2.01,4.82-4.65,4.81Z"></path><path class="cls-1" d="m258.3,297.02c2.59,0,4.63,2.09,4.65,4.79.02,2.74-1.94,4.85-4.54,4.88-2.55.03-4.63-2.12-4.67-4.8-.03-2.69,2.01-4.86,4.56-4.87Z"></path><path class="cls-1" d="m177.27,133.49c-.03,2.96-3.13,5.24-5.95,4.36-1.37-.42-1.79-1.63-1.39-3.33.39-1.63.48-3.34.91-4.95.23-.85.78-2,1.45-2.24.8-.28,2.38-.05,2.77.54,1.11,1.65,1.79,3.59,2.64,5.42-.15.07-.29.13-.44.2Z"></path><path class="cls-1" d="m489.74,458.28c-.02,2.9-2.3,5.2-5.16,5.21-2.9,0-5.33-2.46-5.26-5.34.07-2.85,2.46-5.13,5.31-5.09,2.94.04,5.13,2.28,5.11,5.22Zm-5.29,3.66c2.05.03,3.75-1.61,3.76-3.62.01-2.05-1.65-3.74-3.67-3.73-1.95,0-3.62,1.62-3.68,3.56-.06,2.06,1.55,3.76,3.58,3.79Z"></path><path class="cls-1" d="m356.33,531.56v-1.51c-4.98,3.25-10.1,1.62-15,1.07,5.68-.9,11.48-1.81,17.39-2.75.01.28.03.65.06,1.06.58.08,1.15.15,1.73.23,0,.1,0,.2,0,.3-1.34.51-2.68,1.03-4.19,1.6Z"></path><path class="cls-1" d="m136.04,530.16c-1.75.76-2.97,1.29-4.33,1.87-.26-1.34-.66-2.11-1.71-.69-.22.3-.64.58-1,.64-4.46.7-8.87.48-13.22-.78,5.5.44,10.7-1.17,15.99-2.12,1.17-.21,2.53.61,4.27,1.08Z"></path><path class="cls-1" d="m319.32,418.23c.61.73,1.15,1.26,1.54,1.89,1.07,1.7.18,3.45-1.8,3.47-4.73.05-9.46.04-14.18,0-.57,0-1.13-.27-1.69-.41.02-.16.03-.31.05-.47.49-.05.97-.15,1.46-.15,2.6-.01,5.2,0,7.8,0q4.43,0,6.83-4.33Z"></path><path class="cls-1" d="m261.97,171.51c-.87-1.57-2.03-2.99-2.5-4.62-1.43-4.89.25-8.87,3.94-12.25,1.77-1.62,3.59-3.38,4.72-5.44,1.06-1.94,1.35-4.35,1.79-6.59.33-1.66,1.14-2.67,2.55-2.61,1.41.06,2.28,1.08,2.31,2.82.1,5.61-2.07,10.24-6.09,14.06-.86.82-1.82,1.52-2.67,2.34-1.97,1.9-2.57,4.65-1.54,6.82.97,2.05,2.98,3.07,5.85,2.71,1.81-.23,3.56-.91,5.38-1.13,1.6-.19,3.3-.26,4.86.06,1.51.31,2.15,1.87,1.69,3.2-.5,1.45-1.52,1.9-3.05,1.74-1.24-.13-2.52.12-3.76.46,3.67.68,7.33,1.4,11.01,2.03,4.13.71,7.03,3.15,8.97,6.64,2.68,4.8,5.12,9.74,7.56,14.68.99,2,.63,3.94-.63,5.1-1.37,1.26-4,1.79-5.64.62-2.57-1.83-4.7-1.35-7.16.21-2.97,1.9-5.16,1.48-7.59-1.14-1.29-1.38-2.39-2.93-3.61-4.38-1.4-1.67-2.42-1.82-4.29-.61-1.04.68-2.05,1.4-3.06,2.14-1.47,1.08-2.83.93-4.19-.22-1.44-1.22-2.86-2.49-4.43-3.54-1.9-1.26-3.06-1.08-4.82.39-.73.6-1.43,1.24-2.19,1.81-2.01,1.51-4,1.91-6.4.52-1.14-.65-2.8-.44-4.22-.53-.45-.03-.91.25-1.37.34-2.74.54-4.18-.63-3.94-3.38.11-1.27.42-2.6.96-3.75,2.63-5.69,6.07-10.85,10.79-15.04,3.08-2.73,6.51-4.54,10.77-3.47Z"></path><path class="cls-1" d="m264.89,218.79c-4.47-.15-9.04-4.93-8.86-9.37.06-1.42.71-2.41,2.17-2.58,1.48-.17,2.22.71,2.67,2.05.37,1.1.78,2.26,1.48,3.14,1.36,1.73,3.4,1.73,4.87.03.95-1.1,1.65-2.43,2.42-3.69.92-1.5,2.09-2.02,3.37-1.37,1.4.72,1.75,2.02,1.22,3.32-1.32,3.22-3.14,6.12-6.48,7.65-.89.41-1.9.55-2.86.81Z"></path><path class="cls-1" d="m290.16,122.91c3.3.13,5.82,2.13,7.27,5.23,1.19,2.54,1.89,5.32,2.62,8.04.41,1.53-.56,2.84-1.92,3.08-1.35.24-2.45-.66-2.93-2.22-.68-2.19-1.24-4.45-2.25-6.49-1.4-2.81-3.26-2.98-5.58-.84-1,.92-2.1,1.13-3.21.31-1.24-.91-1.34-2.16-.68-3.47.98-1.97,3.85-3.6,6.68-3.64Z"></path><path class="cls-1" d="m291.32,157.5c-.42-.06-1.3-.16-2.16-.34-2.87-.6-4.46-2.17-4.1-5.05.38-3.06,1.39-6.06,2.35-9,.45-1.38,1.82-1.36,2.76-.47.92.87,1.75,1.96,2.24,3.12,1.03,2.44,1.92,4.95,2.67,7.5.87,2.94-.25,4.28-3.75,4.26Z"></path><path class="cls-1" d="m260.69,140.48c-.96,3.25-1.04,6.06-.21,8.94.35,1.24-.61,2.21-1.82,1.98-1.69-.33-3.51-.8-4.84-1.79-.78-.57-1.28-2.47-.93-3.42.87-2.39,2.17-4.67,3.57-6.82.5-.78,2.06-1.66,2.64-1.4.81.36,1.16,1.76,1.59,2.51Z"></path><path class="cls-1" d="m264.61,224.54c1.88.27,2.78.96,2.99,2.4.17,1.16.36,2.31.51,3.47.17,1.3-.24,2.34-1.53,2.85-1.32.52-2.37.01-2.98-1.15-.94-1.75-1.48-3.68-.72-5.6.34-.85,1.26-1.47,1.73-1.98Z"></path><path class="cls-1" d="m350.41,471.72c-6.82.36-12.47,3-16.69,8.44-4.2,5.42-5.53,11.52-3.83,18.45-3.96-2.67-4.24-12.49-.96-18.59,4.35-8.1,14.44-10.86,21.48-8.3Z"></path><path class="cls-1" d="m125.54,472.35c-6.94.05-12.5,2.9-16.75,8.24-4.27,5.37-5.49,11.51-3.9,18.42-4.17-2.91-4.18-13.07-.38-19.36,4.63-7.66,14.9-10.08,21.02-7.3Z"></path><path class="cls-1" d="m210.59,472.11c-.62.04-1.24.12-1.86.12-3.07.01-6.15.07-9.22-.02-1.56-.04-2.12.57-2.04,2.08.09,1.53.11,3.08-.03,4.6-.06.62-.62,1.18-.96,1.77-.35-.55-.97-1.09-1-1.66-.12-2.24-.03-4.49-.06-6.74-.02-1.06.3-1.68,1.5-1.67,3.9.03,7.8-.02,11.7.05.72.01,1.43.48,2.15.73-.06.24-.12.48-.18.71Z"></path><path class="cls-1" d="m397.52,393.54c-.51.13-.97.25-1.33.34.77.42,1.5.83,2.23,1.23-.48.73-.96,1.45-1.45,2.18.17.13.34.27.51.4.5-.64.99-1.28,1.64-2.11,1.12,1.1,2.33,2.12,3.33,3.33.76.92-.04,1.68-1.85,1.74-.07.38-.15.77-.28,1.44,1.13-.52,2.04-.94,2.95-1.36-.56.93-.01,2.62-1.85,2.62-.21,0-.62.45-.61.68.09,1.65-1.08,2.17-2.28,2.7-1.53.68-2.86,1.32-4.12,2.77-1.3,1.48-4.15,1.64-6.34,2.3-.64.19-1.39.02-2.02.23-2.11.71-6.29.32-8.34-.93.31-.64.63-1.3,1.12-2.32-.95-.05-1.65-.08-2.72-.13.49.91.74,1.39,1.11,2.08-1.93.24-3.29-.62-4.44-1.79-2.47-2.51-3.75-5.6-3.95-9.08-.1-1.64.13-3.31.36-4.94.11-.8.41-1.67.9-2.29,1.72-2.19,3.38-4.48,5.41-6.35,2.07-1.91,4.54-3.38,6.86-5.01,1.26-.88,2.31-.63,3.42.51,3.84,3.96,7.78,7.82,11.73,11.77Zm-21.95,3.29c-.15,2.11.53,3.88,1.62,5.68,2.66,4.39,13.42,5.07,17.31.75.73-.81.94-1.54.3-2.66-2.64-4.58-7.33-7.4-10.06-11.89-.03-.04-.1-.06-.15-.09-2.22-1.46-4.33-1.21-6.26.79-2,2.07-2.8,4.61-2.77,7.42Z"></path><path class="cls-1" d="m389.09,352.75c1.46-1.36,2.63-1.18,3.69.28.13.18.31.37.5.47,3.71,1.83,5.41,5.17,4.92,9.28-.39,3.26-2.05,5.84-4.38,7.89-2.51,2.22-5.35,4.07-8.06,6.06-.91.66-1.78.48-2.53-.34-2.45-2.7-5.16-5.23-7.28-8.17-1.69-2.34-2.56-5.06-1.74-8.29.35-1.37,1.12-2.37,1.44-3.5.49-1.73,1.67-2.41,2.85-3.11,1.24-.74,2.69-1.26,4.11-1.56,1.84-.38,3.74-.51,5.62-.62,1.03-.06,1.71.32.84,1.62Zm3.44,9.92c.02-3.5-1.48-5.66-4.22-6.57-2.58-.86-6.22.22-7.71,2.27-1.3,1.79-1.08,4.75.81,7.07,1.37,1.69,3.08,3.1,4.55,4.72.78.86,1.42.81,2.28.2,2.82-2.01,4.06-4.82,4.29-7.69Z"></path><path class="cls-1" d="m484.45,459.9c-.34.24-.8.58-1.26.91-.22-.55-.51-1.08-.63-1.65-.11-.51-.11-1.07,0-1.58.14-.69.41-1.91.65-1.92,1.11-.04,2.29.11,3.3.55.35.15.33,1.32.33,2.02,0,.37-.34.72-.45,1.11-.14.49-.21,1-.31,1.5-.56-.32-1.11-.64-1.63-.94Z"></path></g></g></svg> 