<?xml version="1.0" encoding="UTF-8"?> <svg xmlns="http://www.w3.org/2000/svg" id="Layer_1" data-name="Layer 1" viewBox="0 0 551.18 385"><defs><style> .cls-1 { stroke-width: 0px; } </style></defs><g id="pu5RpZ"><g><path class="cls-1" d="m341.11,94.27c0-24.82-.07-49.65.02-74.47.05-13.7,3.82-17.65,17.52-17.47,15.33.2,30.84-.28,45.93,1.9,20.92,3.03,32.18,16.73,32.44,37.85.43,35.27.44,70.56,0,105.83-.27,22.03-14.99,36.33-39.31,38.09-14.32,1.04-28.77.59-43.14.23-9.6-.24-13.33-4.76-13.4-15.51-.16-25.48-.05-50.96-.06-76.43Zm35.29-.19c0,17.3-.1,34.6.05,51.89.07,8.29.83,8.83,9.03,9.05,13.05.35,16.44-2.73,16.49-15.73.1-30.03.04-60.05.01-90.08,0-2.28.03-4.63-.49-6.81-1.6-6.72-8.3-9.47-18.5-8.81-7.76.5-6.53,5.86-6.56,10.56-.1,16.64-.04,33.29-.03,49.93Z"></path><path class="cls-1" d="m453.15,93.59c0-16.96-.09-33.92.01-50.88.13-23.73,10.31-36.19,33.49-41.11,12.73-2.7,25.38-1.9,37.76,1.78,17.19,5.12,26.38,18.71,26.6,39.99.29,28.05.09,56.1.08,84.14,0,6.85.27,13.72-.16,20.54-1.44,23.06-12.42,36.27-34.65,39.32-10.47,1.44-21.65,1.12-32.03-.89-20.27-3.93-30.71-17.49-31.04-38.12-.29-18.26-.06-36.53-.07-54.79Zm35.34.71s.03,0,.04,0c0,16.63-.19,33.26.07,49.89.14,9.11,3.78,12.46,12.47,12.79,9.92.37,14.55-3.55,14.63-13.91.25-32.28.22-64.56.03-96.84-.06-10-4.47-14.39-13.28-14.54-9.35-.16-13.84,4.39-13.93,14.69-.14,15.98-.04,31.95-.04,47.93Z"></path><path class="cls-1" d="m3.34,93.69c0-24.82-.07-49.64.03-74.47.05-13.25,3.65-17.04,16.98-16.89,15.65.18,31.5-.31,46.9,1.91,21.61,3.12,32.18,16.84,32.54,38.7.18,11.1.34,22.22-.07,33.31-.42,11.45-3.65,22.01-13.37,29.25-4.66,3.47-4.29,7.38-2.66,12.11,5.32,15.44,10.48,30.93,15.61,46.43,1.12,3.39,2.67,6.96,2.52,10.37-.15,3.23-1.39,7.41-3.69,9.36-8.24,6.96-26.19,2.38-29.87-7.77-5.01-13.8-9.04-27.95-13.54-41.94-1.4-4.35-2.96-8.65-4.41-12.98-1.34-4-4.1-5.74-8.26-5.19-4.56.61-4.43,4.15-4.44,7.43-.05,15.35-.08,30.7-.03,46.05.02,6.01.37,13.33-6.3,14.99-6.9,1.72-14.84,1.51-21.82-.08-5.6-1.28-6.13-7.75-6.12-13.21.02-24.17,0-48.34,0-72.51,0-1.63,0-3.27,0-4.9Zm34.3-35.48s-.01,0-.02,0c0,6.51.06,13.01-.02,19.52-.05,4.38,1.81,6.74,6.37,6.63,3.25-.08,6.52.07,9.76-.21,6.44-.55,10.36-4.2,10.58-10.62.34-9.74.24-19.51,0-29.26-.15-5.64-3.72-9.02-9.06-9.96-3.8-.67-7.77-.46-11.67-.58-4.05-.12-5.96,1.95-5.94,5.95.02,6.18,0,12.36,0,18.54Z"></path><path class="cls-1" d="m290.13,92.91c0-9.12,0-18.24,0-27.36,0-15.35-.11-30.7.04-46.05.14-14.22,7.78-20.03,21.76-16.79,6.07,1.41,9.83,4.96,10.12,11.48.1,2.28.1,4.57.1,6.86,0,48.99.02,97.98,0,146.97,0,12.48-2.41,17.32-10.42,18-12.87,1.08-21.11,2.14-26.07-12.46-8.51-25.04-16.81-50.16-25.23-75.23-1.02-3.04-2.2-6.02-4.68-9.02-.19,2.35-.53,4.7-.54,7.05-.06,11.1-.08,22.21-.02,33.31.03,5.77-.21,12.48-6.44,13.95-6.28,1.48-13.54,1.18-19.82-.45-5.13-1.33-5.65-7.4-5.65-12.5,0-15.68-.02-31.35-.02-47.03,0-21.56-.07-43.11.05-64.67.06-10.41,2.94-15.3,10.51-16.22,12.95-1.58,22.16-1.17,26.17,9.36,4.53,11.9,8.49,24.01,12.62,36.06,5.15,15.05,10.21,30.13,15.31,45.19.74-.15,1.47-.3,2.21-.45Z"></path><path class="cls-1" d="m196.43,186.4c-12.41-.07-16.05-3.12-18.43-15.52-.98-5.13-1.82-10.29-2.9-15.4-1.83-8.62-1.89-8.6-18.06-8.48-10.88.08-10.95.07-12.72,8.98-1.21,6.08-2.15,12.22-3.25,18.32-.99,5.51-3.41,10.34-9.34,11.29-6.99,1.12-14.44,2.78-20.6-2.63-4.25-3.73-3.6-8.67-2.65-13.67,3.85-20.2,7.56-40.43,11.34-60.64,5.63-30.16,11.27-60.32,16.89-90.48,2.28-12.24,6.07-15.78,18.25-15.88,20.91-.17,26.46-2.33,30.91,24.31,7.9,47.32,17.56,94.34,26.37,141.5,2.64,14.11-1.2,18.37-15.8,18.29Zm-27.36-69.91c-2.89-18.79-5.63-36.57-8.36-54.35-.59,0-1.18.01-1.77.02-2.78,17.77-5.56,35.54-8.5,54.33h18.63Z"></path><path class="cls-1" d="m358.44,277.51c8.73,7.16,11.35,16.17,10.86,26.54-.33,6.84-.49,13.74.02,20.56,1.61,21.69-12.78,33.92-30.93,35.74-14.24,1.43-28.72.62-43.1.53-5.67-.04-9.01-3.64-10.1-8.98-.64-3.16-.68-6.48-.68-9.73-.04-41.46-.05-82.93-.01-124.39.01-15.49,2.61-18,18.43-18.02,10.46-.02,20.93-.2,31.38.18,22.18.81,34.24,13.26,34.61,35.32.06,3.92.03,7.84.02,11.75-.04,14.66-1.23,18.23-10.48,30.5Zm-42.44,13.49c0,13.48-.06,25.15.07,36.82.02,1.48.92,4.15,1.64,4.23,5.05.57,10.38,1.54,15.17.43,2.42-.56,5.27-5.05,5.55-7.99.77-8.06.58-16.25.19-24.36-.27-5.64-3.89-8.8-9.59-9.08-3.81-.19-7.64-.04-13.03-.04Zm.01-64.33c0,11.7-.08,22.08.09,32.46.02,1.43.85,3.35,1.95,4.19,6.12,4.63,18.5-.5,19.1-8.07.49-6.16.19-12.39.1-18.59-.09-5.83-3.5-9.08-8.95-9.89-3.45-.51-7.03-.1-12.28-.1Z"></path><path class="cls-1" d="m86.45,281.05c0,15.36-.07,30.71.03,46.07.1,16.06-6.17,28-22.04,33.2-5.5,1.8-5.47,5.47-5.7,9.85-.65,12.21-3.87,15.17-15.52,14.8-9.54-.3-13.48-3.28-13.6-12.85-.09-7.46-2.97-10.72-9.75-13.25-10.56-3.93-16.74-12.29-18.27-23.57-.83-6.13-1.44-12.34-1.49-18.52-.17-24.18-.13-48.36-.02-72.53.02-5.21.41-10.45,1.1-15.61,2.3-17.23,10.55-26.98,27.66-29.55,10.14-1.52,20.99-1.3,31.09.54,17.86,3.26,26.21,14.33,26.45,32.41.22,16.33.05,32.67.05,49.01Zm-30.43-.82h.05c0-12.06.03-24.12,0-36.18-.04-14.1-2.68-18.1-11.93-18.22-9.61-.13-12.42,4.06-12.48,18.68-.02,5.22,0,10.43,0,15.65,0,20.21-.09,40.42.08,60.63.07,9.17,2.72,12.96,8.96,14.14,9.47,1.79,15.02-2.49,15.25-12.64.33-14.01.08-28.03.08-42.05Z"></path><path class="cls-1" d="m184.81,272.68c0,18.28.12,36.56-.03,54.84-.17,20.22-8.93,31.31-28.89,34.36-9.17,1.4-19,1.09-28.15-.55-17.52-3.14-25.92-13.66-26.27-31.4-.37-18.6-.13-37.21-.14-55.82,0-19.91,0-39.82.01-59.73,0-5.31-.22-11.89,5.83-13.15,6.38-1.33,13.68-1.02,19.87.88,2.52.77,4.41,7.59,4.47,11.69.41,25.13.21,50.26.22,75.4,0,10.77-.27,21.56.19,32.31.16,3.69,1.26,8.05,3.52,10.8,4.86,5.91,15.83,2.88,17.69-4.7.99-4.06,1.15-8.39,1.16-12.6.09-32.97.02-65.94.07-98.9.02-14.7,10.55-21.34,24.28-15.38,5.43,2.35,6.16,7.12,6.16,12.24,0,19.91,0,39.82,0,59.73Z"></path><path class="cls-1" d="m496.82,280.44c0,12.73-.04,25.46.03,38.19.02,2.92.07,5.93.76,8.74,1.36,5.54,5.29,7.87,10.93,7.74,5.29-.12,9.09-2.5,9.71-7.76.84-7.09.86-14.28,1.22-21.43.52-10.01,3.91-13.38,13.85-13.73,11.56-.41,16.76,2.71,17.16,12.54.46,11.01.13,22.23-1.54,33.1-1.85,12-10.14,19.48-21.76,22.79-12.86,3.66-25.87,3.61-38.69-.15-13.36-3.92-21.69-14.06-21.84-28.05-.37-34.59-.29-69.19-.03-103.79.1-13.58,7.51-22.88,19.98-27.44,14.24-5.21,28.88-5.08,43.2.04,11.05,3.95,18.01,12.03,19.52,23.67,1.17,9,1.73,18.22,1.21,27.26-.59,10.13-5.87,13.26-18.09,12.55-9.09-.53-12.55-4.11-12.95-13.65-.19-4.56.15-9.16-.26-13.7-.73-8.24-4.44-11.7-11.64-11.47-6.65.22-10.35,3.65-10.56,11.49-.38,14.35-.11,28.72-.11,43.08-.04,0-.08,0-.12,0Z"></path><path class="cls-1" d="m200.02,280.15c0-20.9-.08-41.81.03-62.71.07-14.69,3.15-17.64,17.97-17.68,14.06-.04,28.12-.12,42.18.05,10.36.13,14.25,3.86,14.35,13.08.1,9.63-4.18,14.14-14.37,14.58-6.86.29-13.74.3-20.6.07-5.94-.2-8.23,2.42-8.04,8.21.24,7.5.12,15.02.09,22.53-.02,4.43,2.01,6.63,6.52,6.6,5.23-.04,10.47-.11,15.69.13,9.45.44,13.24,4.69,13.22,14.43-.02,9.58-3.16,12.94-12.79,13.35-4.57.19-9.16.25-13.73.04-6.01-.27-9.23,1.83-9.01,8.39.27,8.16.19,16.33.02,24.49-.11,5.34,2.07,7.8,7.53,7.67,7.19-.17,14.39-.17,21.58.05,10.35.32,14.37,4.55,14.16,14.47-.2,9.58-3.7,13.02-14.2,13.15-15.04.18-30.09.15-45.13.03-11.56-.09-15.28-3.59-15.39-15.27-.22-21.88-.06-43.77-.06-65.65h-.02Z"></path><path class="cls-1" d="m382.19,279.96c0-21.21-.07-42.42.03-63.64.07-13.97,2.7-16.52,16.65-16.56,14.38-.05,28.75-.11,43.13.04,9.85.1,14.52,4.39,14.7,13,.21,9.46-4.33,14.27-14.33,14.68-6.85.28-13.72.21-20.58.09-5.1-.09-8.1,1.64-7.99,7.27.14,7.83.08,15.66.06,23.49-.01,4.46,2.17,6.55,6.6,6.54,5.23,0,10.47-.14,15.68.2,9.15.6,13.34,5.46,13.16,14.74-.17,9.1-3.74,12.64-13.36,12.98-4.9.18-9.81.22-14.7.05-5.49-.19-7.6,2.35-7.47,7.68.19,8.15.28,16.32-.03,24.47-.25,6.52,2.79,8.64,8.88,8.41,6.85-.25,13.73-.27,20.58.07,10.64.53,15.25,6.36,13.76,16.84-.89,6.3-4.33,10.46-10.83,10.56-17.64.25-35.29.37-52.92-.03-7.67-.17-10.73-4.27-10.91-13.34-.26-12.4-.09-24.8-.1-37.2,0-10.12,0-20.23,0-30.35Z"></path><path class="cls-1" d="m239.6,184.5c-9.16,0-14.19-5.25-14.15-14.76.04-9.2,5.42-14.66,14.49-14.69,8.44-.03,14.87,6.25,14.99,14.62.14,9.44-5.44,14.83-15.33,14.83Z"></path></g></g></svg> 