<?xml version="1.0" encoding="UTF-8"?> <svg xmlns="http://www.w3.org/2000/svg" id="Layer_1" data-name="Layer 1" viewBox="0 0 1091.51 276.25"><defs><style> .cls-1 { fill-rule: evenodd; } .cls-1, .cls-2 { fill: #231f20; stroke-width: 0px; } </style></defs><g><path class="cls-2" d="m770.89,75.67c4.78-1.08,8.65-.36,13.07.9,1.71.55,4.42,2.7,2.97,5.23-1.17,2.25-3.42,1.89-5.59,2.61-3.43,1.08-7.02-1.44-9.82-.45-7.21,2.52-9.19,10.72-7.03,17.66,2.25,7.38,10.45,11.26,17.66,8.83,2.71-.9,6.4-4.96,8.84-3.15,2.88,2.34,4.59,5.4,1.53,7.56-6.49,4.78-14.6,4.6-22.53,2.17-3.42-1.08-7.12-2.43-10.01-4.77-4.96-4.15-6.04-10.45-5.23-16.58,1.35-9.2,6.13-17.67,16.14-20.01"></path><path class="cls-2" d="m814.87,62.69c.81-1.25,5.13-2.43,6.04-.45,4.78,10.18,6.49,21.18,9.37,32.53,0,1.17,1.98,1.17,2.8,2.44.45.81.45,1.98,0,2.43-2.8,6.04,2.88,10.99,2.07,16.67-.36,2.44-5.13,3.51-6.94,1.17-3.06-4.15-.81-10.82-5.23-13.42-3.33-1.9-8.56-1.27-11.81,1.26-4.15,3.15-1.26,17.03-10.54,12.62-1.27-5.67,1.98-11,3.25-16.68,1.62-7.3,3.6-15.05,6.04-22.35,1.98-5.77,1.71-11.8,4.96-16.22m-1.71,34.07c2.16,1.17,7.75,1.63,8.56-1.17,1.62-5.67-1.62-11.35-4.05-16.67-1.99,2.43-2.44,5.32-2.79,8.11-.54,3.7-4.06,8.48-1.71,9.74Z"></path><path class="cls-2" d="m842.09,111.18c1.44-12.18.36-23.98,2.98-36.23.36-1.81,4.78-1.44,5.86-.36,5.59,7.39,5.95,17.39,11.54,24.78,1.44-3.69.72-7.39.72-11.08,0-7.03-3.7-14.06-2.62-21.09.36-2.61,5.77-2.97,6.67-.72,3.61,9.28,3.33,19.56,3.33,29.56,0,4.42-.36,9.64-3.69,12.97-1.54,1.8-5.14,2.08-6.67.36-3.6-4.15-5.94-9.64-8.47-14.42-2.26,5.85.09,11.8-1.53,17.75-.63,2.26-5.13,2.88-7.39.36-.54-.63-.72-1.53-.72-1.89"></path><path class="cls-2" d="m891.21,62.69c.82-1.25,5.14-2.43,6.04-.45,4.77,10.18,6.49,21.18,9.37,32.53,0,1.17,1.98,1.17,2.8,2.44.45.81.45,1.98,0,2.43-2.8,6.04,2.88,10.99,2.07,16.67-.36,2.44-5.14,3.51-6.94,1.17-3.07-4.15-.82-10.82-5.23-13.42-3.33-1.9-8.56-1.27-11.81,1.26-4.14,3.15-1.26,17.03-10.55,12.62-1.26-5.67,1.99-11,3.25-16.68,1.62-7.3,3.6-15.05,6.04-22.35,1.98-5.77,1.71-11.8,4.95-16.22m-1.71,34.07c2.16,1.17,7.75,1.63,8.56-1.17,1.62-5.67-1.62-11.35-4.05-16.67-1.98,2.43-2.44,5.32-2.8,8.11-.54,3.7-4.05,8.48-1.71,9.74Z"></path><path class="cls-2" d="m919.52,108.56c.72-1.17,2.98-1.8,3.07-3.33.26-10.27-.81-20.72-1.98-31.44,0-1.09-1.54-2.26-2.25-3.43-.36-.36,0-1.54,0-1.89.72-3.07,4.15-3.43,6.13-3.07,3.43,0,7.57.82,11,3.07,4.59,3.06,8.11,6.4,11.53,11.08,8.83,12.16,0,27.49-11.53,33.17-3.79,1.98-8.02,3.06-12.17,1.53-2.25-.81-4.59-3.42-3.79-5.68m19.47-6.48c2.7-4.24,5.77-9.19,3.96-14.15-1.98-5.68-7.12-11.99-14.06-12.8,0,2.98.9,31.63,1.71,31.63,3.43.73,6.94-2.43,8.39-4.68Z"></path><path class="cls-2" d="m959,71.34c.72-4.78,5.41-6.49,9.82-3.43.45.46,1.44,1.72.99,2.62-4.96,14.33-1.53,29.2-1.98,43.61-.09,1.27-3.42,2.08-5.86.82-4.41-2.17-3.96-7.39-3.96-11.72,0-10.45-.73-20.91.99-31.9"></path><path class="cls-2" d="m978.11,71.97c5.05-7.39,17.03-8.29,24.51-2.43,1.62,1.26,0,4.14-2.88,4.6-3.79.45-7.57-2.53-11.27-.9-4.59,2.07-.81,8.73-2.52,12.88,5.41,2.98,13.34-2.44,16.22,4.6-3.34,5.86-11.53,1.35-14.96,5.05-2.79,2.97-1.26,9.09-.81,14.05,6.67,1.27,12.44-3.24,18.75-4.96.36-.44,1.17.46,1.63.82.81,2.97-.45,5.41-2.88,6.31-6.67,2.34-12.53,5.77-19.56,5.41-2.08-.45-5.05.36-5.41-1.71-2.07-6.68.45-13.34-1.26-19.92-.36-1.36-2.53-2.98-1.27-4.6,0-.45.81-.81,1.27-1.27.81-1.71.45-3.79.45-5.4,0-4.15-2.44-9.11,0-12.53"></path><path class="cls-2" d="m1013.89,111.18c1.44-12.18.36-23.98,2.97-36.23.36-1.81,4.78-1.44,5.86-.36,5.59,7.39,5.95,17.39,11.53,24.78,1.44-3.69.73-7.39.73-11.08,0-7.03-3.7-14.06-2.62-21.09.36-2.61,5.77-2.97,6.67-.72,3.61,9.28,3.34,19.56,3.34,29.56,0,4.42-.36,9.64-3.7,12.97-1.53,1.8-5.13,2.08-6.67.36-3.61-4.15-5.95-9.64-8.47-14.42-2.25,5.85.09,11.8-1.53,17.75-.63,2.26-5.14,2.88-7.4.36-.54-.63-.71-1.53-.71-1.89"></path><path class="cls-2" d="m1048.32,74.04c7.84-9.81,21.09-9.9,32.44-12.79,2.43-.63,5.05.99,5.86,2.98,1.08,2.43-1.89,4.41-3.88,4.86-6.94,2.52-14.24,1.53-20.64,4.95-.99.55-1.98,1.45-1.53,2.44,7.39,11.36,27.58,15.32,23.61,30.01-3.43,12.8-22.17,14.96-33.43,9.82-5.05-2.25-1.99-8.83,2.43-10.81,2.53-.45,2.53,2.97,4.42,3.51,1.98.45,3.96,0,5.94,1,3.97,1.89,7.4-.55,10.82-1.98,1.98-1.54,1.98-3.96.99-5.95-6.94-8.83-17.21-12.26-24.15-21.18-2.08-2.7-4.87-4.41-2.88-6.85"></path><path class="cls-2" d="m419.14,165.69c4.78-1.08,8.65-.36,13.07.89,1.72.55,4.42,2.71,2.98,5.23-1.17,2.26-3.42,1.9-5.59,2.62-3.43,1.08-7.03-1.44-9.83-.46-7.21,2.53-9.19,10.72-7.03,17.67,2.25,7.38,10.45,11.26,17.67,8.83,2.7-.9,6.4-4.96,8.83-3.15,2.88,2.34,4.59,5.41,1.53,7.57-6.49,4.77-14.6,4.6-22.53,2.17-3.43-1.08-7.12-2.43-10.01-4.78-4.95-4.15-6.04-10.45-5.23-16.58,1.35-9.19,6.13-17.67,16.13-20.01"></path><path class="cls-2" d="m446.27,181.27c.18-1.35.9-3.06,1.17-4.86.18-6.94-1.89-14.69,1.44-20.64,1.17-2.07,5.05-2.43,8.02-.99,1.26,1.09,2.34,2.7,2.16,4.05-.99,5.86-4.32,12.71-1.44,17.75,1.17,1.63,7.39,3.07,8.2.9,2.43-6.57.36-14.33,1.53-21.53.72-4.5,7.66-4.33,8.66-1.89,2.97,7.84-.36,16.68.18,25.06.27,1.44,2.71,2.79,2.98,4.59.18,1.43-1.72,2.07-1.89,2.98-1.62,8.02,2.07,16.04,2.16,24.42-12.44,2.61-9.74-15.33-12.89-23.79-1.36-3.88-7.93-2.62-8.56-1.35-3.61,5.4,1.98,13.69-.54,20.72-12.08.37-9.28-13.96-10.45-21.54-.18-1.43-.9-2.97-.72-3.87"></path><path class="cls-2" d="m484.67,161.36c.72-4.78,5.41-6.49,9.82-3.43.45.45,1.44,1.72,1,2.62-4.96,14.33-1.53,29.19-1.99,43.62-.09,1.25-3.42,2.06-5.86.81-4.41-2.17-3.97-7.39-3.97-11.72,0-10.45-.72-20.91.99-31.9"></path><path class="cls-2" d="m502.51,154.6c.72-3.51,8.11-4.78,8.74-.62,2.43,14.78-5.59,29.64-1.98,44.96,5.59,0,12.71.18,17.84-2.34,1.53-1.08,3.51-2.07,5.59-1.08,1.53,1.53,4.05,4.59,3.06,5.68-8.29,9.64-22.53,2.52-33.7,7.66-5.68-3.61-3.06-10.73-3.06-16.41,0-12.8,1.17-24.96,3.51-37.85"></path><path class="cls-2" d="m540.73,198.58c.72-1.17,2.98-1.81,3.06-3.33.26-10.28-.81-20.73-1.99-31.45,0-1.09-1.53-2.26-2.25-3.43-.36-.36,0-1.53,0-1.89.72-3.07,4.15-3.43,6.13-3.07,3.42,0,7.57.82,11,3.07,4.59,3.06,8.11,6.4,11.54,11.09,8.83,12.16,0,27.49-11.54,33.17-3.79,1.98-8.02,3.06-12.16,1.53-2.26-.81-4.6-3.43-3.79-5.68m19.46-6.48c2.7-4.25,5.77-9.2,3.97-14.16-1.98-5.68-7.12-11.99-14.06-12.79,0,2.97.9,31.62,1.72,31.62,3.42.73,6.94-2.43,8.38-4.67Z"></path><path class="cls-2" d="m577.69,160.46c-.45-2.16-1.71-5.22.45-6.48,10.81-6.49,24.69-.82,31.18,9.55,3.88,6.04-3.42,11.71-8.65,15.15,1.71,9.1,4.41,18.65,8.65,26.85,1.35,2.61-4.32,4.41-6.49,2.61-7.84-6.49-5.49-18.29-12.07-25.59-1.26-1.35-5.68-1.27-6.58.45-2.16,6.93,1.89,14.33,2.16,21.26.09,1.72-3.42,3.07-6.04,2.61-1.26-.46-2.16-1.72-2.62-2.61-2.98-7.84-2.16-16.49-2.16-24.69,0-6.49,4.32-13.44,2.16-19.11m7.84,13.88c5.23,1.25,11.27-.45,15.14-3.88.9-.45,2.61-1.8,1.71-3.06-2.52-5.23-8.2-7.3-12.98-7.84-3.43-.36-2.61,5.68-3.43,8.29-.72,2.07-2.61,5.95-.45,6.49Z"></path><path class="cls-2" d="m615.45,161.99c5.05-7.39,17.03-8.29,24.51-2.43,1.63,1.26,0,4.15-2.89,4.59-3.78.45-7.57-2.52-11.26-.9-4.6,2.07-.81,8.74-2.52,12.88,5.4,2.98,13.34-2.42,16.22,4.6-3.33,5.86-11.53,1.35-14.96,5.05-2.79,2.97-1.26,9.1-.81,14.06,6.67,1.26,12.44-3.25,18.74-4.97.36-.45,1.18.45,1.62.82.81,2.97-.45,5.41-2.88,6.3-6.67,2.35-12.53,5.77-19.56,5.41-2.07-.45-5.05.36-5.4-1.71-2.08-6.68.45-13.34-1.26-19.92-.36-1.35-2.53-2.98-1.27-4.59,0-.45.82-.82,1.27-1.27.81-1.71.45-3.79.45-5.41,0-4.14-2.43-9.11,0-12.53"></path><path class="cls-2" d="m648.08,201.2c1.44-12.17.36-23.98,2.97-36.23.36-1.81,4.77-1.44,5.85-.36,5.59,7.39,5.95,17.39,11.53,24.78,1.45-3.69.73-7.39.73-11.08,0-7.03-3.7-14.06-2.62-21.09.36-2.62,5.77-2.98,6.67-.72,3.6,9.28,3.33,19.55,3.33,29.56,0,4.42-.36,9.64-3.7,12.97-1.53,1.8-5.14,2.08-6.67.37-3.6-4.14-5.95-9.65-8.47-14.42-2.25,5.86.09,11.8-1.53,17.76-.63,2.25-5.14,2.88-7.39.36-.54-.63-.72-1.53-.72-1.89"></path><path class="cls-2" d="m691.62,151.17c1.08,0,2.97,1.9,2.62,2.98-1.89,4.87-4.96,10-9.02,13.79-1.17,1.09-4.05,2.98-4.77,1.17-1.17-4.15,2.52-7.84,4.42-11.63,1.62-3.24,3.33-6.31,6.76-6.31"></path><path class="cls-2" d="m697.02,164.06c7.84-9.82,21.09-9.91,32.45-12.8,2.43-.62,5.05.99,5.86,2.98,1.08,2.43-1.9,4.42-3.88,4.86-6.94,2.53-14.24,1.53-20.64,4.96-.99.54-1.98,1.45-1.53,2.44,7.39,11.36,27.58,15.32,23.61,30.01-3.43,12.8-22.17,14.96-33.44,9.82-5.05-2.25-1.98-8.83,2.43-10.81,2.52-.45,2.52,2.98,4.42,3.51,1.99.46,3.97,0,5.95,1,3.97,1.89,7.39-.54,10.82-1.98,1.98-1.53,1.98-3.97.99-5.94-6.94-8.84-17.21-12.26-24.15-21.19-2.07-2.71-4.87-4.42-2.89-6.85"></path><path class="cls-2" d="m759.56,153.51c0-.82.81-2.44,1.62-2.44,8.2-2.88,17.76-2.16,25.51,2.07,2.97,1.53,0,4.05-1.98,5.32-5.41,2.53-9.91-3.25-15.32-2.43-1.17,7.84,1.71,15.59,3.33,23.07,4.51.36,14.78-3.07,14.51,3.15-.18,4.5-10.45,1.26-12.08,4.6-2.07,4.51,2.52,9.91,3.79,14.87,1.62,4.5-4.6,6.57-7.03,4.5-4.96-4.96-2.88-13.16-7.39-18.47-.45-.9-2.53.36-4.15,0-1.62-.45-3.33-2.07-2.07-3.78,1.26-1.63,4.5-2.44,4.96-4.06.81-3.33-.81-6.58-1.62-9.91-1.44-5.68-2.44-11.08-2.08-16.49"></path><path class="cls-2" d="m820.49,170.63c7.02,9.1,3.96,22.16-4.96,28.11-5.85,3.97-12.79,4.42-18.2.45-5.41-3.96-8.83-10.81-6.94-17.75,3.51-12.07,19.46-24.6,30.1-10.82m-11.81,23.71c5.77-2.71,7.93-9.47,6.4-15.77-.9-3.51-5.95-4.59-8.92-3.97-2.98.54-6.94,9.56-6.41,12.34,1,4.42,3.88,9.65,8.92,7.4Z"></path><path class="cls-2" d="m828.7,161.07c.99-3.24,5.13-5.58,8.92-3.78.9,1,1.8,2.35,1.35,4.23-4.69,10.72-5.05,27.4,5.14,33.53,7.57,4.59,12.16-6.05,13.07-13.08,1.89-7.92-.45-15.77-.45-23.69-.45-3.34,4.15-4.24,7.93-5.14,0,1.35,1.8.9,1.8,1.8,1.9,13.52,2.43,27.13-5.59,38.76-5.5,7.92-18.66,14.87-26.04,6.94-10.01-10.55-10.19-26.05-6.13-39.57"></path><path class="cls-2" d="m869.71,199.38c1.44-12.18.35-23.98,2.97-36.23.36-1.8,4.78-1.44,5.86-.36,5.58,7.39,5.94,17.39,11.53,24.78,1.44-3.7.72-7.39.72-11.09,0-7.03-3.69-14.06-2.61-21.09.36-2.61,5.77-2.96,6.67-.72,3.61,9.29,3.34,19.56,3.34,29.56,0,4.42-.36,9.64-3.7,12.98-1.53,1.8-5.13,2.07-6.67.36-3.6-4.14-5.95-9.64-8.47-14.42-2.25,5.85.09,11.81-1.53,17.75-.63,2.25-5.14,2.88-7.39.36-.54-.63-.72-1.53-.72-1.89"></path><path class="cls-2" d="m901.34,196.77c.72-1.17,2.97-1.81,3.06-3.34.27-10.28-.81-20.73-1.98-31.46,0-1.08-1.53-2.25-2.25-3.42-.36-.36,0-1.53,0-1.89.72-3.07,4.14-3.43,6.13-3.07,3.42,0,7.57.82,11,3.07,4.6,3.06,8.11,6.4,11.53,11.08,8.84,12.16,0,27.49-11.53,33.16-3.79,1.99-8.02,3.06-12.17,1.53-2.25-.81-4.59-3.42-3.79-5.67m19.46-6.49c2.71-4.24,5.77-9.2,3.97-14.15-1.98-5.68-7.12-11.99-14.06-12.8,0,2.98.9,31.64,1.71,31.64,3.42.72,6.94-2.43,8.38-4.69Z"></path><path class="cls-2" d="m948.3,150.89c.81-1.26,5.14-2.44,6.04-.46,4.77,10.19,6.48,21.19,9.36,32.54,0,1.17,1.98,1.17,2.8,2.43.45.81.45,1.98,0,2.44-2.8,6.04,2.88,10.99,2.07,16.67-.36,2.43-5.13,3.51-6.94,1.17-3.07-4.15-.81-10.82-5.23-13.43-3.33-1.9-8.56-1.27-11.81,1.25-4.14,3.15-1.25,17.03-10.54,12.62-1.26-5.68,1.98-11,3.25-16.68,1.62-7.3,3.6-15.05,6.04-22.35,1.98-5.77,1.71-11.8,4.96-16.22m-1.71,34.07c2.16,1.17,7.76,1.62,8.56-1.17,1.63-5.68-1.62-11.35-4.05-16.67-1.98,2.43-2.43,5.32-2.79,8.11-.54,3.7-4.06,8.47-1.71,9.73Z"></path><path class="cls-2" d="m981.12,204.24c-.82-14.96,2.61-29.82,2.61-44.79,0-2.16-3.06-.45-4.41,0-2.61.46-5.68,3.43-8.3,2.17-3.06-1.36-2.61-5.51.45-7.04,13.7-6.84,20.1-4.32,34.61-5.13.45,0,.9,1.26,1.26,1.71.9,2.71-1.26,4.87-3.88,5.77-6.22,1.26-3.96.36-9.64.81-3.06,14.87-3.6,29.83-3.96,44.7,0,2.25-3.07,3.52-5.23,4.41-2.07.82-3.43-1.35-3.51-2.61"></path><path class="cls-2" d="m1011.22,159.55c.73-4.78,5.41-6.49,9.83-3.43.45.45,1.44,1.72.99,2.62-4.95,14.32-1.53,29.2-1.98,43.61-.09,1.27-3.42,2.07-5.86.82-4.42-2.17-3.97-7.4-3.97-11.72,0-10.45-.72-20.91.99-31.9"></path><path class="cls-2" d="m1054.66,170.63c7.03,9.1,3.96,22.16-4.96,28.11-5.86,3.97-12.8,4.42-18.2.45-5.41-3.96-8.84-10.81-6.94-17.75,3.52-12.07,19.47-24.6,30.1-10.82m-11.8,23.71c5.77-2.71,7.93-9.47,6.4-15.77-.9-3.51-5.95-4.59-8.92-3.97-2.98.54-6.94,9.56-6.4,12.34.99,4.42,3.87,9.65,8.92,7.4Z"></path><path class="cls-2" d="m1060.61,199.38c1.44-12.18.36-23.98,2.97-36.23.36-1.8,4.78-1.44,5.86-.36,5.59,7.39,5.95,17.39,11.53,24.78,1.44-3.7.72-7.39.72-11.09,0-7.03-3.7-14.06-2.61-21.09.36-2.61,5.77-2.96,6.67-.72,3.61,9.29,3.33,19.56,3.33,29.56,0,4.42-.36,9.64-3.69,12.98-1.53,1.8-5.13,2.07-6.67.36-3.61-4.14-5.95-9.64-8.47-14.42-2.25,5.85.09,11.81-1.53,17.75-.63,2.25-5.14,2.88-7.39.36-.54-.63-.72-1.53-.72-1.89"></path><path class="cls-2" d="m455.57,128.76c-6.62-13.23-3.79-28.42-9.44-41.65-3.79,6.13-4.77,13.23-8.07,19.85-.49.98.48,2.34,0,3.32-1.46,2.82-4.77,5.25-8.08,3.79-1.85-.48-3.79-2.34-3.79-4.29-.49-4.27-1.46-9.82-4.28-10.9-2.34-.87-.49,4.28-1.36,6.62-1.46,3.79,0,8.56-.49,12.35-.49,3.8-8.17,4.77-10.41,2.34-5.26-5.55.39-14.69,1.36-22.19,1.36-9.54,1.56-18.97,2.92-28.51.49-3.8,7.11-3.8,8.47-1.36,5.26,7.1,5.74,16.05,8.56,24.61.49.49,1.46,1.85,1.85,1.46,6.23-9.05,6.71-28.02,20.44-24.71,6.13,17.61,5.55,36.59,11.39,54.49.77,2.44-1.95,4.29-4.28,4.77-2.14.39-4.29.48-4.77,0"></path><path class="cls-2" d="m499.85,89.45c7.59,9.83,4.28,23.94-5.35,30.36-6.33,4.28-13.82,4.77-19.65.49-5.84-4.28-9.54-11.68-7.49-19.17,3.79-13.04,21.02-26.57,32.5-11.68m-12.75,25.59c6.23-2.92,8.56-10.22,6.91-17.03-.97-3.8-6.42-4.97-9.63-4.28-3.21.58-7.49,10.32-6.91,13.33,1.07,4.77,4.19,10.42,9.64,7.98Z"></path><path class="cls-2" d="m506.27,120.49c1.55-13.15.39-25.89,3.21-39.13.39-1.95,5.16-1.55,6.33-.38,6.03,7.97,6.42,18.77,12.45,26.76,1.56-3.99.78-7.99.78-11.97,0-7.59-3.99-15.18-2.82-22.77.38-2.82,6.22-3.21,7.2-.78,3.89,10.02,3.6,21.12,3.6,31.93,0,4.76-.39,10.4-3.99,14-1.65,1.95-5.54,2.24-7.2.39-3.89-4.48-6.42-10.41-9.14-15.57-2.43,6.32.1,12.75-1.66,19.16-.68,2.44-5.54,3.12-7.98.4-.58-.69-.77-1.65-.77-2.04"></path><path class="cls-2" d="m550.45,125.74c-.88-16.15,2.82-32.2,2.82-48.36,0-2.34-3.31-.49-4.77,0-2.82.49-6.13,3.69-8.95,2.33-3.3-1.46-2.82-5.94.49-7.59,14.79-7.39,21.7-4.68,37.36-5.55.49,0,.97,1.36,1.37,1.85.97,2.92-1.37,5.25-4.18,6.22-6.72,1.37-4.29.39-10.42.88-3.31,16.06-3.89,32.22-4.28,48.27,0,2.43-3.31,3.79-5.64,4.77-2.24.88-3.7-1.46-3.8-2.82"></path><path class="cls-2" d="m583.63,76.51c-.49-2.34-1.85-5.65.48-7.01,11.68-7.01,26.67-.88,33.67,10.31,4.18,6.53-3.7,12.64-9.34,16.35,1.85,9.83,4.76,20.14,9.34,28.99,1.46,2.82-4.67,4.77-7,2.82-8.47-7.01-5.94-19.75-13.04-27.63-1.36-1.46-6.13-1.36-7.1.48-2.33,7.5,2.05,15.48,2.34,22.97.1,1.85-3.7,3.3-6.52,2.82-1.36-.48-2.34-1.84-2.82-2.82-3.22-8.47-2.34-17.81-2.34-26.66,0-7.01,4.68-14.5,2.34-20.63m8.46,14.98c5.64,1.36,12.16-.48,16.35-4.18.97-.48,2.82-1.95,1.85-3.32-2.73-5.64-8.86-7.89-14.01-8.47-3.7-.38-2.83,6.14-3.7,8.96-.78,2.23-2.82,6.41-.49,7.01Z"></path><path class="cls-2" d="m622.65,78.17c5.45-7.99,18.39-8.96,26.47-2.64,1.76,1.37,0,4.48-3.11,4.96-4.08.5-8.17-2.72-12.17-.97-4.96,2.24-.88,9.44-2.72,13.92,5.84,3.21,14.4-2.63,17.52,4.96-3.6,6.33-12.46,1.47-16.15,5.45-3.02,3.21-1.36,9.82-.88,15.18,7.2,1.36,13.43-3.5,20.24-5.35.39-.49,1.27.49,1.75.88.88,3.22-.48,5.84-3.11,6.82-7.2,2.53-13.53,6.22-21.12,5.84-2.24-.49-5.45.38-5.84-1.85-2.24-7.2.48-14.4-1.36-21.5-.39-1.46-2.73-3.21-1.36-4.97,0-.49.87-.87,1.36-1.36.88-1.84.48-4.08.48-5.84,0-4.47-2.63-9.82,0-13.52"></path><path class="cls-2" d="m671.01,68.14c.87-1.37,5.55-2.63,6.52-.49,5.16,10.99,7,22.86,10.12,35.12,0,1.27,2.14,1.27,3.02,2.63.49.88.49,2.14,0,2.62-3.02,6.52,3.12,11.88,2.24,18.01-.39,2.63-5.54,3.79-7.49,1.26-3.31-4.47-.88-11.68-5.64-14.5-3.6-2.04-9.24-1.36-12.75,1.37-4.48,3.4-1.36,18.4-11.38,13.63-1.36-6.14,2.14-11.88,3.5-18.01,1.75-7.88,3.89-16.24,6.52-24.13,2.14-6.24,1.85-12.75,5.35-17.51m-1.85,36.78c2.34,1.26,8.37,1.75,9.24-1.27,1.75-6.13-1.75-12.26-4.38-18-2.14,2.63-2.63,5.74-3.02,8.76-.58,3.98-4.38,9.14-1.85,10.51Z"></path><path class="cls-2" d="m698.74,70.18c.78-3.8,8.76-5.16,9.44-.68,2.63,15.96-6.03,32.01-2.14,48.56,6.03,0,13.72.19,19.27-2.53,1.65-1.16,3.79-2.23,6.03-1.16,1.65,1.65,4.38,4.96,3.3,6.13-8.95,10.41-24.32,2.72-36.39,8.27-6.13-3.9-3.31-11.58-3.31-17.71,0-13.82,1.27-26.95,3.8-40.87"></path></g><g><path class="cls-1" d="m318.97,195.53c-3.02.93-13.95,1.86-33.24,14.42-19.3,12.55-39.98,15.81-49.05,18.37-9.07,2.55-33.75,7.09-41.15,8.83-7.39,1.74-48.82,4.88-58.58,4.88s-31.85-4.42-38.59-7.44c-6.74-3.02-41.4-24.24-51.14-49.75-2.8-7.32-5.81-25.57-5.81-33.01s-.7-16.27-.23-23.71c.46-7.44,1.39-16.74,2.56-24.41,1.16-7.67,4.64-14.38,5.73-16.74,2.17-4.65,5.5-11,7.13-14.26,1.63-3.25,7.13-7.75,12.71-11.47,5.58-3.72,15.34-9.38,20.92-10.77,5.58-1.4,27.66-6.74,35.57-8.6,7.9-1.86,17.67-6.04,25.34-6.04s30.45,0,41.15,1.63c10.7,1.63,60.68,9.53,68.35,11.39,7.67,1.86,62.06,9.36,71.01,13.51,7.33-6.54,15.23-14.21,18.95-17.93,3.72-3.72,5.58-8.83,8.37-12.09,2.79-3.25,14.99-11.22,16.51-12.32,2.56-1.86,5.41-3.42,5.5-5.2.08-1.78-.89-2.9-.89-2.9,0,0-4.02-1.09-7.04-1.32-3.02-.23-25.92-5.69-31.03-4.53-4.65,4.88-8.6,8.83-10.46,12.32-1.86,3.49-3.02,5.35-9.3,4.42-6.28-.93-11.17-1.55-12.56-1.86-7.2-1.63-7.67-1.16-12.78-3.95-5.11-2.79-26.38-8.76-46.03-11.16C231.21,3.45,208.55.26,200.42.03c-8.14-.23-20.46.93-29.52.93s-27.89-1.86-43.24,1.86c-15.34,3.72-20.53,3.57-28.36,6.28-2.5.87-6.74,2.56-14.41,4.42-7.67,1.86-45.1,12.32-53.23,23.01-8.14,10.69-12.79,23.25-18.6,30.45-5.81,7.21-7.21,18.36-8.6,26.27-1.39,7.9-5.88,38.18-3.99,44.54,1.89,6.37-.28,15.56,2.9,27,3.18,11.44,7.6,32.6,8.53,35.39.93,2.79,11.86,18.6,13.02,21.15,1.16,2.56,2.09,1.4,3.25,2.56,1.16,1.16,8.37,8.14,10.93,10.46,2.56,2.32,17.2,19.53,24.18,20.92,6.97,1.4,10,4.65,13.48,6.51,3.49,1.86,14.18,7.67,19.53,9.53,5.35,1.86,33.48,6.04,45.8,4.65,12.32-1.4,27.66-1.86,36.03-2.56,8.37-.7,18.37-3.02,26.27-3.02s26.73-1.39,44.87-6.74c18.13-5.35,39.29-12.55,46.03-14.88,6.74-2.32,13.69-9.39,17.67-12.32,2.63-1.94,3.41-2.56,6.2-4.42,3.13-2.08,6.28-4.8,8.06-6.51,1.88-1.8,7.36-4.65,7.59-8.13.23-3.49-13.25-22.09-15.81-21.85Z"></path><path class="cls-1" d="m141.83,36.68c0,3.72-.93,24.49,0,32.62.93,8.14,1.63,29.76,0,41.15-1.63,11.39,0,32.31,1.16,42.54,1.16,10.23.93,29.06,1.39,35.1.47,6.04,2.09,19.06,0,25.57-2.09,6.51,2.25,24.87,2.71,26.27,4.88,1.86,16.27,1.16,23.71.7,7.44-.46,17.67-.46,20.92-3.95,3.25-3.49-.85-10.23-.62-20.69.23-10.46.71-43.16.82-47.85,5.46-.04,23.52-1.67,26.11-1.79,2.6-.11,5.85.58,5.85.58-.23,7.9.93,26.5,1.63,35.33.7,8.83,4.65,25.34,6.04,26.5,1.4,1.16,5.58.23,14.41-2.32,8.83-2.56,33.71-9.76,33.71-14.18s-5.35-30.45-6.28-37.43c-.93-6.97-1.63-19.53-3.02-30.68-1.4-11.16-2.79-19.53-3.49-28.82-.7-9.3-.93-24.18-1.16-29.29-.23-5.11-1.16-15.58-1.63-18.83-.46-3.25,1.4-17.67-1.63-17.9-3.02-.23-40.15-9.58-43.32-7.93-3.17,1.65-2.94,7.93-2.01,13.28.93,5.35,2.09,29.06,2.09,33.48s.46,15.11,3.49,21.39c-2.56,2.32-5.81-.47-13.02-.93-7.2-.46-21.42.52-25.59,1.3-.22-4.79-2.08-5.72-3-11.3-.93-5.58-.7-16.51-.7-23.94s-.47-38.43-1.86-38.43-33.48-2.79-36.73.46Z"></path></g></svg> 