<?xml version="1.0" encoding="UTF-8"?> <svg xmlns="http://www.w3.org/2000/svg" id="Layer_1" data-name="Layer 1" viewBox="0 0 569.62 561.34"><defs><style> .cls-1 { stroke-width: 0px; } </style></defs><g><path class="cls-1" d="m523.25,264.77c-3.14-4.35-4.63-7.93-7.67-8.51-12.03-2.34-24.12-4.49-36.28-6.45,27.08-107.44-38.07-216.49-145.51-243.57C226.35-20.83,117.3,44.31,90.22,151.76c-8.11,32.18-8.11,65.88,0,98.06-12.15,1.97-24.24,4.12-36.26,6.45-3.05.58-4.53,4.16-7.67,8.51-8.3,11.52-29.02,11.89-29.02,16.37,0,6.54,5.76,18.58,8.36,20.04,2.6,1.47,6.28,1.02,7.71,3.16,4.31,6.35,5.96,8.97,10.05,9.86,4.09.89,24.15-5.98,31.73-1.86,7.58,4.12,18.93,15.9,25.86,14.75,8.3-1.37,16.63-2.64,25-3.81,67.69,87.72,193.68,103.95,281.4,36.26,13.59-10.48,25.77-22.67,36.26-36.26,8.36,1.19,16.72,2.41,25,3.72,6.93,1.15,18.11-10.53,25.86-14.75,7.75-4.22,27.64,2.73,31.73,1.86s5.74-3.51,10.05-9.86c1.43-2.14,5.02-1.71,7.71-3.16,2.69-1.45,8.36-13.51,8.36-20.04-.07-4.38-20.79-4.76-29.09-16.27Zm-5.18,23.24c-15.62-3.29-50.49-9.42-71.54-12.13-5.33-.71-8.9,7.24-3.92,7.89,7.76,1.05,15.51,2.19,23.24,3.4,7.52,1.17,3.72,11.8-5.37,10.44-14.03-2.13-28.14-3.99-42.32-5.57-6.38,9.29-13.7,17.9-21.85,25.69,7.04.69,14.04,1.47,21.05,2.28-65.85,73.24-178.61,79.22-251.85,13.37-4.69-4.22-9.15-8.68-13.37-13.37,18.91-2.23,37.96-3.98,57.14-5.26-4.11-8.63-6.72-17.89-7.69-27.4-31.21,2.23-62.06,5.68-92.55,10.35-9.1,1.36-12.89-9.29-5.37-10.44s15.47-2.34,23.24-3.4c4.98-.65,1.41-8.6-3.92-7.89-21.05,2.71-55.91,8.84-71.54,12.13-4.01.84-9.07-4.05-4.89-6.06,2.47-.88,4.77-2.17,6.8-3.83,5.11-4.81,4.72-5.57,7.34-6.13,47.68-9.1,95.88-15.27,144.32-18.48,1.91-6.02,4.5-11.8,7.71-17.24-33.85,2.01-67.28,5.39-100.31,10.14-25.18-95.22,31.6-192.82,126.82-218,95.22-25.18,192.82,31.6,218,126.82,7.9,29.88,7.9,61.3,0,91.18-5.57-.8-11.15-1.58-16.72-2.28-1.52,5.47-3.33,10.86-5.42,16.14,24.84,3.13,49.44,7.03,73.79,11.68,2.62.48,2.23,1.32,7.34,6.13,2.03,1.65,4.33,2.95,6.8,3.83,4.11,1.95-.95,6.84-4.96,6h0Z"></path><path class="cls-1" d="m316.35,73.12c-39.4,0-75.79,29.72-98.23,29.72-13.64,0-24.65.54-29.91,3.14-21.25,10.44-61.6,51.21-61.6,62.58s28.51,38.75,39.27,43.1c2.1.85,12.85-6.17,29.03-4.11,10.92,1.27,21.12,6.13,28.98,13.82,12.26-13.04,28.39-21.8,46.01-24.97-5.57-24.67,2.64-42.15,11.37-51.44-.01-20.81,14.38-38.86,34.66-43.49,1.5-.36,3,.56,3.36,2.06.28,1.18-.23,2.4-1.26,3.03-9.91,5.87-17.17,15.34-20.27,26.43,3.76-1.72,7.71-2.97,11.78-3.72,1.51-.32,2.98.64,3.3,2.15.26,1.23-.33,2.48-1.45,3.05-18.35,9.44-31.86,33.44-24.63,60.54,22.68,0,40.5,6.72,66.87,8.92,14.53,1.21,24.35-2.54,30.65-7.23,1.24-.91,2.98-.65,3.9.59.64.87.72,2.03.21,2.98-5.07,9.12-18.72,19.06-35.56,19.06-29.89,0-40.12-7.62-67.97-7.62-36.93-.03-66.9,29.89-66.93,66.82-.03,36.93,29.89,66.9,66.82,66.93,80.02,0,144.9-64.87,144.9-144.9,0-60.24-38.84-127.64-113.32-127.64v.17Zm-127.34,73.71c-6.38,1.67-12.87,2.91-19.41,3.72-6.41.28-3.55-9.72,0-14.86,4.2-5.22,13.13-3.36,13.13-3.36,0,0,13,2.08,13.41,7.58.5,3.88-4.25,5.91-7.13,6.93Z"></path></g><g id="wmms"><path class="cls-1" d="m530.44,432.01h19.82v39.64h-19.82v-39.64Zm-34.3,19.82l-1.14.38s6.86,5.72,6.86,6.1c.38.38.76.38.38,1.52-.38,1.14-.76,2.29-.76,2.29,0,0,6.1-1.14,6.86-1.52.76,0,1.14,0,1.14.76s-.38,7.24-.38,7.24h1.91s-.38-6.86-.38-7.24c0-.76.38-.76,1.14-.76s6.86,1.52,6.86,1.52c0,0-.38-1.52-.76-2.29-.38-1.14,0-1.14.38-1.52.38-.38,6.86-6.1,6.86-6.1l-1.14-.38c-.76-.38-.38-.76-.38-1.14s1.14-4.19,1.14-4.19c0,0-3.05.76-3.43.76s-.76,0-.76-.38-.76-1.91-.76-1.91c0,0-3.43,3.81-3.81,4.19-.76.76-1.52,0-1.14-.76,0-.76,1.91-8.77,1.91-8.77,0,0-1.91,1.14-2.67,1.52s-1.14.38-1.14-.38c-.38-.76-2.67-4.95-2.67-5.34,0,0-2.29,4.57-2.67,5.34s-.76.76-1.14.38c-.76-.38-2.67-1.52-2.67-1.52,0,0,1.91,8,1.91,8.77s-.38,1.14-1.14.76l-3.81-4.19s-.38,1.14-.76,1.52c0,.38-.38.76-.76.38-.76,0-3.81-.76-3.81-.76,0,0,1.14,3.81,1.52,4.19,0,.38,0,1.14-.76,1.52Zm-25.54-19.82h19.82v39.64h-19.82v-39.64Z"></path><path class="cls-1" d="m554.45,550.93c-1.52,3.43-4.57,4.57-6.48,4.57-2.29,0-9.15-.38-9.15-18.29v-38.49c0-11.82-9.15-21.34-32.78-21.34-25.54,0-25.92,12.58-25.92,15.63-.38,3.43,1.52,7.24,8,7.24,5.72,0,7.24-6.48,8-8.77.76-2.67,1.14-10.29,11.43-10.29,8.77,0,14.1,7.62,14.48,18.68v6.1h0v.38c-.76,3.81-2.67,5.72-6.1,7.24-4.57,2.29-17.91,4.19-19.44,4.57-5.34,1.14-20.2,4.95-19.82,20.58.38,15.25,15.63,20.58,26.3,20.2,10.29-.38,16.39-4.57,19.06-6.86q1.52-1.14,2.67.38c1.52,1.52,6.48,6.48,18.29,6.48s13.72-5.72,14.48-7.62c.38-1.14-2.29-2.29-3.05-.38Zm-47.64,4.19c-10.67,0-13.34-8.77-13.34-13.34,0-4.19,2.29-12.96,12.96-19.06,0,0,4.95-3.05,14.48-6.86h.76s.38.38.38.76h0v.38h0v.38h0v16.01c0,12.58-6.1,21.72-15.25,21.72Zm-35.06-.38c-1.52-.38-11.05.76-11.05-28.2v-91.09c0-1.14,0-4.19-3.43-4.19s-26.3,1.14-27.82,1.52c-1.52,0-2.67,1.91,0,1.91,2.67.38,14.86,1.14,14.86,21.34v27.82c0,.76,0,1.14-.38,1.52v.38h0c-.38.38-.76,0-1.91-.76-1.91-1.52-10.67-6.86-21.72-6.86-17.91,0-40.02,12.96-40.02,39.64,0,28.59,20.2,42.31,41.16,42.31,10.29,0,17.53-4.57,20.2-6.1,3.05-1.91,2.67-1.52,3.05,1.14.38,1.91,0,5.72,5.34,5.34,5.72-.76,19.44-2.29,22.11-2.67,2.67-1.14,1.91-2.67-.38-3.05Zm-47.26,1.14c-16.77,0-25.54-19.82-25.54-38.88,0-20.96,11.82-35.06,24.39-34.3,16.39,1.14,20.58,14.1,20.96,37.35v4.95c-.38,22.87-9.91,30.87-19.82,30.87Zm-44.59-4.95c-1.52,3.43-4.57,4.57-6.48,4.57-2.29,0-9.15-.38-9.15-18.29v-38.49c0-11.82-9.15-21.34-32.78-21.34-25.54,0-25.92,12.58-25.92,15.63-.38,3.43,1.52,7.24,8,7.24,5.72,0,7.24-6.48,8-8.77.76-2.67,1.14-10.29,11.43-10.29,8.77,0,14.48,7.62,14.48,19.06v3.81c-.38,5.72-1.91,7.62-6.48,9.91s-17.91,4.19-19.44,4.57c-5.34,1.14-20.2,4.95-19.82,20.58.38,15.25,15.63,20.58,26.3,20.2,10.29-.38,16.39-4.57,19.06-6.86q1.52-1.14,2.67.38c1.52,1.52,6.48,6.48,18.29,6.48s13.72-5.72,14.48-7.62c.76-1.52-1.52-2.67-2.67-.76Zm-47.26,4.19c-10.67,0-13.34-8.77-13.34-13.34,0-4.19,2.29-12.96,12.96-19.06,0,0,4.95-3.05,14.48-6.86h.76v.38h0v1.52-.38,16.39c0,12.2-6.1,21.34-14.86,21.34Zm-36.59-.38c-3.05-.76-8.38-4.19-8.38-20.96v-30.49c0-7.24.76-25.92-27.82-25.92-14.86,0-23.25,7.62-24.01,8-1.14,1.14-1.91,1.52-2.29-.38-.38-1.52-1.14-3.81-1.52-5.34-.38-1.14-1.14-2.29-3.81-1.91s-19.44,3.05-22.49,3.81c-2.67.76-1.91,1.91,0,2.29s11.05,1.14,11.05,16.77v32.78c0,19.06-3.81,20.58-7.24,21.72-4.57,1.14-2.29,2.67-.38,2.67h34.68c2.29,0,3.43-2.29-1.14-3.05-4.57-.76-8.77-3.43-8.77-18.29v-20.96c0-8-1.91-32.4,20.2-32.78,15.63-.38,17.15,12.58,17.15,20.96v32.4c0,13.34-3.81,17.53-8.38,18.29-4.19.76-3.43,2.67-1.14,2.67h35.45c1.91.76,3.81-1.14-1.14-2.29Zm-92.62-3.81c-1.52,3.43-4.57,4.57-6.48,4.57-2.29,0-9.15-.38-9.15-18.29v-38.49c0-11.82-9.15-21.34-32.78-21.34-25.54,0-25.92,12.58-25.92,15.63-.38,3.43,1.52,7.24,8,7.24,5.72,0,7.24-6.48,8-8.77.76-2.67,1.14-10.29,11.43-10.29,8.77,0,14.1,7.62,14.48,18.68v4.19c0,.76,0,1.52-.38,1.91v.38h0c-.76,3.81-2.67,5.72-6.1,7.24-4.57,2.29-17.91,4.19-19.44,4.57-5.34,1.14-20.2,4.95-19.82,20.58.38,15.25,15.63,20.58,26.3,20.2,10.29-.38,16.39-4.57,19.06-6.86q1.52-1.14,2.67.38c1.52,1.52,6.48,6.48,18.29,6.48s13.72-5.72,14.48-7.62c.76-1.14-1.91-2.29-2.67-.38Zm-47.64,4.19c-10.67,0-13.34-8.77-13.34-13.34s2.29-12.96,12.96-19.06c0,0,4.95-3.05,14.48-6.86h.76s.38.38.38.76h0v.76h0v.38h0v16.01c0,12.2-6.1,21.34-15.25,21.34Zm-36.59-33.16c-3.81,12.2-11.05,32.02-37.35,32.78-27.44.38-43.83-18.29-44.59-52.98-1.14-36.97,14.86-65.17,39.64-65.94,27.82-.38,37.73,32.78,38.11,37.73.38,3.81,5.34,3.43,5.34-.38,0-1.91-2.29-34.68-3.05-38.49-.76-3.81-3.81-2.29-4.57-.76-.38,1.14.38-1.14-1.14,2.29-1.52,3.43-5.72,1.52-7.24,1.14-4.57-1.91-13.34-6.48-27.44-6.1-32.4.76-65.56,24.77-64.79,66.7.76,40.78,33.54,63.65,64.03,63.27,27.82-.38,43.45-17.91,48.02-38.11,1.52-4.95-3.43-6.1-4.95-1.14Z"></path></g></svg> 