<?xml version="1.0" encoding="UTF-8"?> <svg xmlns="http://www.w3.org/2000/svg" id="Layer_1" data-name="Layer 1" viewBox="0 0 994.99 185.44"><defs><style> .cls-1 { stroke-width: 0px; } </style></defs><g id="Ux4tT0"><g><path class="cls-1" d="m472.42,4.51c1.14-.15,2.27-.42,3.39-.42,43.27.19,86.57-.3,129.81.87,26.91.73,52.33,8.18,73.24,26.27,46.15,39.94,35.6,109.04-20.5,135.5-23.69,11.18-49.01,14.37-74.8,14.57-35.79.28-71.57.08-107.36.07-1.14,0-2.28-.13-3.79-.22V4.51Zm29.45,147.29c1.16.1,1.96.22,2.76.22,29.46-.03,58.92.2,88.37-.22,15-.21,29.82-2.54,44-7.78,17.18-6.35,31.36-16.2,37.78-34.24,8.92-25.04-2.58-51.55-27.88-64.68-16.63-8.63-34.65-11.43-53.09-11.61-29.12-.29-58.25-.1-87.37-.1-1.45,0-2.9.18-4.57.29v118.12Z"></path><path class="cls-1" d="m871.87,185.44c-32.45-.44-60.04-4.65-85.06-19.19-22.71-13.2-38.99-31.8-43.87-58.08-6.53-35.13,7.06-62.58,35.21-83.36,17.92-13.23,38.66-19.78,60.5-22.67,29.5-3.91,58.8-2.87,87.28,6.61,26.86,8.94,48.82,24.21,61.33,50.41,16.41,34.34,6.09,73.87-25.48,98.69-19.51,15.35-42.26,22.66-66.56,25.71-9.06,1.14-18.22,1.49-23.36,1.89Zm1.44-29.33c5.79-.67,16.78-1.33,27.52-3.33,18.96-3.53,36.35-10.67,49.86-25.12,19.29-20.63,19.12-49.95-.36-70.41-8.17-8.58-17.99-14.71-29.04-18.79-28.74-10.6-58.19-11.36-87.93-5.43-18.44,3.68-35.23,10.96-48.25,25.09-18.66,20.25-19.02,48.75-.12,68.75,6.03,6.38,13.58,11.81,21.33,16.03,19.16,10.42,40.33,12.76,66.98,13.22Z"></path><path class="cls-1" d="m116.13.7c38.63,60.19,76.84,119.73,115.81,180.45-7.19,0-13.33-.7-19.24.15-10.42,1.51-16.83-2.31-21.86-11.48-5.4-9.85-12.25-18.94-18.79-28.13-1.19-1.67-3.92-3.18-5.95-3.19-33.46-.2-66.93-.1-100.39-.2-3.03,0-4.84,1-6.46,3.52-7.82,12.13-15.73,24.21-23.89,36.12-1.14,1.67-3.83,3.14-5.85,3.21-9.44.34-18.89.15-29.52.15C39.03,120.61,77.37,60.98,116.13.7Zm-36.6,108.21h72.31c-12.1-18.83-23.79-37.04-35.84-55.8-12.37,18.92-24.13,36.92-36.47,55.8Z"></path><path class="cls-1" d="m288.82,152.1h145.8v28.93h-174.96V4.37h29.15v147.74Z"></path></g></g></svg> 