<?xml version="1.0" encoding="UTF-8"?> <svg xmlns="http://www.w3.org/2000/svg" id="Layer_1" data-name="Layer 1" viewBox="0 0 1076.43 185"><defs><style> .cls-1 { stroke-width: 0px; } </style></defs><g id="QrLD7Q"><g><path class="cls-1" d="m810.15.39c51.37-.08,93.24,41.33,93.37,92.34.14,51.01-41.61,92.21-93.39,92.17-51.07-.05-92.14-40.65-92.56-91.51-.43-51.02,41.29-92.93,92.57-93Zm-.38,20.08c-39.44.23-72.06,32.93-72.13,72.31-.07,39.91,33.08,72.37,73.59,72.05,39.77-.31,72.3-32.79,72.26-72.14-.04-39.71-33.48-72.45-73.73-72.22Z"></path><path class="cls-1" d="m357.48,93.38c-.06,51.88-40.63,91.74-93.14,91.52-51.1-.21-91.43-40.87-91.4-92.13.03-51.75,40.87-92.45,92.68-92.38,51.77.07,91.92,40.72,91.85,92.99Zm-20.09.1c.22-40.88-31.4-72.94-72-73-39.97-.06-72,31.67-72.2,71.53-.21,40.47,30.76,72.36,70.71,72.81,41.21.47,73.26-30.65,73.48-71.34Z"></path><path class="cls-1" d="m104.66,19.13c-2.13,3.69-4.68,8.13-7.89,13.7-5.9-2.54-10.56-5.49-15.63-6.54-11.35-2.36-22.89-5.13-34.36-5.19-10.77-.05-18.82,7.25-22.17,17.49-3.32,10.19-1.23,20.42,7.29,27.35,6.93,5.64,15.16,9.78,23.1,14.05,12.38,6.66,25.98,11.47,37.32,19.52,31.23,22.19,28.23,60.24-5.3,78.64-24.34,13.36-67.44,7.19-87.03-20.25,3.21-3.96,6.69-8.27,10.83-13.39,5.53,3.8,10.01,6.74,14.36,9.88,12.82,9.26,27,12.78,42.61,10.1,10.69-1.84,18.73-7.56,22.05-18.01,3.33-10.49.41-20.21-8.05-27.08-6.63-5.38-14.29-9.61-21.85-13.68-10-5.38-20.6-9.67-30.52-15.19C8.71,78.99-.86,60.54,2.49,39.98,5.58,21.06,20.52,6.77,42.05,1.55c17.76-4.3,53.98,2.38,62.61,17.58Z"></path><path class="cls-1" d="m962.15,157.84c3.69-4.33,7.08-8.31,11.23-13.19,5.21,3.51,9.72,6.36,14.04,9.49,12.78,9.27,26.88,12.99,42.53,10.43,11.3-1.85,19.6-7.9,22.77-18.95,3.03-10.57-.4-20.27-8.99-26.83-7.51-5.73-16.1-10.12-24.47-14.63-9.2-4.95-18.93-8.95-28-14.1-19.91-11.29-29.4-29.64-26.33-49.6,2.98-19.35,18.54-34.36,40.52-39.09,21.02-4.52,47.77,2.43,62.05,17.1-2.51,4.29-5.26,9.01-8.59,14.7-6.29-2.93-10.92-6.15-16.01-7.24-10.9-2.34-22.03-4.83-33.08-4.91-10.82-.08-19.02,6.98-22.49,17.13-3.64,10.65-1.31,21.2,7.73,28.45,6.63,5.32,14.47,9.22,22.04,13.25,12.41,6.59,26.01,11.39,37.39,19.38,31.65,22.22,28.46,61.59-5.76,79.38-23.87,12.41-64.7,7.42-86.59-20.77Z"></path><path class="cls-1" d="m439.81,4.02h17.43v158.63h78.02v18.34h-95.56c-5.16-12.19-5.17-164.51.11-176.97Z"></path><path class="cls-1" d="m617.16,4.1h20.47v177.07h-20.47V4.1Z"></path></g></g></svg> 