<?xml version="1.0" encoding="UTF-8"?> <svg xmlns="http://www.w3.org/2000/svg" id="Layer_1" data-name="Layer 1" viewBox="0 0 986.29 185"><defs><style> .cls-1 { stroke-width: 0px; } </style></defs><g id="vZPFDC"><path class="cls-1" d="m316.32,0c20.61,0,41.21,0,61.82,0,.73.2,1.44.49,2.18.59,30.76,4.16,52.96,20.32,67.2,47.65.47.9.99,1.78,1.6,2.85.55-.65.86-.96,1.1-1.31,10.98-15.92,21.97-31.83,32.92-47.76.41-.59.59-1.34.87-2.02,9.65,0,19.29,0,28.94,0,.42.86.74,1.79,1.27,2.58,18.56,27.95,37.15,55.9,55.73,83.84.46.7,1.04,1.32,1.68,2.13.54-.73.93-1.23,1.28-1.76,18.71-28.25,37.41-56.51,56.1-84.77.41-.62.66-1.35.99-2.02,9.43,0,18.85,0,28.28,0v43.69c.25.08.49.15.74.23C669.09,29.28,679.15,14.64,689.2,0c27.18,0,54.36,0,81.55,0,.93.25,1.85.57,2.79.75,18.54,3.52,32.45,13.45,41.55,29.95,1.52,2.75,2.64,5.71,4.19,9.1,10.68-13.41,21.19-26.6,31.7-39.79,8.33,0,16.66,0,24.99,0v82.33c.33.18.66.36.99.54.54-.8.99-1.69,1.64-2.4,24.23-26.15,48.48-52.28,72.72-78.43.59-.63,1.06-1.36,1.59-2.05,10.08,0,20.17,0,30.25,0-.71.94-1.35,1.95-2.15,2.82-25.51,27.98-51.04,55.94-76.56,83.91-.87.95-1.71,1.93-2.76,3.11,28.13,31.62,56.11,63.07,84.58,95.08-9.74,0-18.5-.08-27.26.06-2.32.04-3.79-.73-5.3-2.42-24.87-27.67-49.81-55.27-74.75-82.89-.81-.89-1.68-1.73-3.16-3.25v88.3h-24.81V37.59c-.97,1.09-1.42,1.53-1.8,2.03-12.75,16.83-25.53,33.63-38.21,50.51-5.07,6.75-11.09,12.38-18.44,16.54-2.84,1.61-5.85,2.92-9.1,4.52,14.47,24.46,28.89,48.85,43.61,73.74-8.66,0-16.63-.09-24.59.06-2.19.04-3.28-.72-4.35-2.55-12.79-21.9-25.7-43.74-38.5-65.64-1.12-1.92-2.31-2.73-4.61-2.7-12.49.12-24.99.05-37.48.07-1.04,0-2.08.13-3.43.22v70.35h-24.65V40.06c-1.24,1.71-1.88,2.56-2.49,3.45-8.82,12.78-17.61,25.59-26.5,38.32-1.51,2.16-2.22,4.28-2.21,6.94.08,30.71.05,61.42.05,92.13,0,1.26,0,2.53,0,3.77h-24.67V41.89c-.2-.05-.41-.09-.61-.14-20.44,29.5-40.87,59-61.55,88.84-20.72-29.91-41.05-59.25-61.38-88.6-.25.08-.5.15-.75.23v142.48h-24.83V40.76c-.8.85-1.19,1.17-1.47,1.57-8.33,12.06-16.68,24.1-24.91,36.23-.76,1.12-.88,2.82-.93,4.27-.33,8.6.23,17.31-.93,25.79-6.14,44.85-42.55,76.29-87.83,76.31-16,0-32,0-48.01,0h-3.87V40.31c-1.19,1.69-1.82,2.57-2.43,3.45-8.94,12.96-17.94,25.89-26.76,38.94-1.13,1.67-1.83,3.98-1.84,6-.11,30.71-.08,61.42-.08,92.13v4.09c-7.4,0-14.39-.14-21.38.07-2.55.08-3.88-.87-5.25-2.86-31.67-46.04-63.41-92.05-95.15-138.05-.69-.99-1.43-1.95-2.14-2.92l-.71.33v143.2h-24.73V41.41c-.22-.08-.43-.15-.65-.23-27.53,39.93-55.07,79.86-83.08,120.48h52.25v23.06H.04c0-1.6,0-3,0-4.4C.02,120.22.01,60.11,0,0h24.99c-.06.65-.16,1.3-.16,1.95,0,51.98,0,103.96,0,155.94,0,.78.19,1.56.35,2.78.68-.85,1.04-1.25,1.34-1.69C63.06,105.99,99.6,53,136.13,0h24.99c.27.47.49.97.8,1.42,32.27,46.81,64.55,93.61,96.84,140.41.38.55.92,1,1.74,1.88.07-1.54.15-2.5.15-3.46,0-45.78,0-91.56,0-137.33,0-.97-.15-1.95-.23-2.92,8.33,0,16.66,0,24.99,0v43.92c1.31-.67,1.97-1.48,2.56-2.34,7.8-11.31,15.61-22.61,23.39-33.94,1.72-2.5,3.31-5.09,4.96-7.64Zm25.32,23.76v137.52c.83.11,1.47.26,2.11.26,9.31,0,18.64.34,27.94-.07,26.96-1.2,46.01-14.42,56.42-39.1,8.41-19.93,8.21-40.37-.14-60.31-8.52-20.35-23.69-33.87-45.7-37.3-13.08-2.04-26.63-1.02-39.97-1.36-.18,0-.37.2-.66.36Zm372.82,67.92c1.23.06,2.29.16,3.35.16,15.11,0,30.22.02,45.34,0,18.93-.03,33.81-15.2,33.83-34.47.02-19.28-14.8-34.32-33.9-34.36-15-.03-30.01,0-45.01,0-1.16,0-2.32,0-3.62,0v68.66Z"></path></g></svg> 