<?xml version="1.0" encoding="UTF-8"?> <svg xmlns="http://www.w3.org/2000/svg" id="Layer_1" data-name="Layer 1" viewBox="0 0 1209.15 185"><defs><style> .cls-1 { stroke-width: 0px; } </style></defs><g id="bGbxGi"><g><path class="cls-1" d="m1209.15,165.65c-5.79.31-11.68,1.34-17.35.65-2.91-.35-6.43-3.19-8.01-5.88-14.64-25-28.92-50.21-43.3-75.36-1.44-2.52-2.89-5.03-5.69-7.27,0,3.32,0,6.63,0,9.95-.03,23.76-.21,47.52.03,71.28.06,5.89-2.04,7.71-7.73,7.72-18.5.05-18.5.22-18.5-18.41,0-40.07,0-80.14,0-120.2,0-9.66.3-9.97,9.72-9.98,1.81,0,3.65.2,5.43-.04,5.64-.77,8.83,1.96,11.48,6.69,14.83,26.51,29.87,52.91,44.85,79.34.87,1.54,1.81,3.05,3.92,4.54,0-2.44,0-4.88,0-7.32-.01-24.97-.03-49.93-.03-74.9,0-8.27.05-8.44,8.55-8.25,5.56.12,11.1.75,16.65,1.16v146.31Z"></path><path class="cls-1" d="m278.1,0c4.9,6.44,3.25,13.8,2.26,20.78-.25,1.74-3.96,3.58-6.4,4.26-2.61.73-5.6.15-8.42.15-84.63,0-169.26.05-253.89-.15C7.77,25.03,3.89,22.91,0,21.76V0h278.1Z"></path><path class="cls-1" d="m0,163.24c3.48-1.14,6.96-3.27,10.45-3.27,86.64-.19,173.27-.15,259.91-.15,9.17,0,11.02,1.57,10.6,10.99-.21,4.77-1.86,9.47-2.85,14.2H0C0,177.72,0,170.48,0,163.24Z"></path><path class="cls-1" d="m577.97,92.3c0,9.67-.4,19.36.08,29.01,1.23,24.79-14.97,45.01-45.31,46.54-12.13.61-23.71-1.58-34.04-8.35-12.25-8.03-18.23-19.72-18.4-34.14-.27-22.16-.21-44.33-.02-66.49.2-23.62,17.3-40.74,42.87-42.92,14.04-1.19,27.39,1.24,38.83,10.08,10.54,8.14,15.79,19.12,15.96,32.41.14,11.28.03,22.57.03,33.85Zm-70.34-.74c0,10.87-.1,21.74.03,32.61.13,11.64,7.58,18.57,20.31,19.13,12.25.54,21.95-6.2,22.23-17.17.59-22.72.62-45.47,0-68.19-.32-11.66-9.44-18.38-21.55-17.76-13.22.68-20.88,7.9-20.99,19.97-.09,10.47-.02,20.94-.02,31.4Z"></path><path class="cls-1" d="m361.54,91.48c0-9.87.42-19.76-.08-29.61-1.33-25.79,15.57-43.2,39.99-45.63,19.42-1.93,37.51,1.44,49.95,18.76,4.48,6.24,4.21,7.21-1.76,11.66-.16.12-.32.24-.49.35-3.84,2.55-7.67,7.05-11.52,7.06-3.52.01-7.08-4.8-10.57-7.54-7.48-5.87-15.82-7.76-24.97-5.16-8.28,2.35-13.63,9.75-13.69,19.24-.14,21.15-.15,42.31,0,63.46.08,11.71,7.78,18.81,20.27,19.22,11.94.4,19.81-6.25,20.96-17.75.14-1.4.17-2.81.2-4.22.22-14.12.22-14.25-13.93-14.64-4.15-.11-5.9-1.69-5.81-5.71.42-20.96-2.76-17.45,16.8-17.73,8.06-.11,16.12.03,24.17-.02,3.15-.02,5.78.58,5.77,4.44-.04,14.7.73,29.47-.47,44.08-1.41,17.29-12.27,28-28.33,33.29-12.79,4.22-25.77,4.03-38.56-.35-17.82-6.1-27.8-20-27.9-38.77-.06-11.48-.01-22.97-.01-34.45Z"></path><path class="cls-1" d="m833.29,92.32c0-21.76,0-43.51,0-65.27,0-8.43.49-8.91,8.8-8.91,23.77,0,47.54-.03,71.31,0,7.58,0,7.99.36,7.94,7.8-.11,19.17,2.09,16.19-16.31,16.37-12.69.13-25.39.26-38.07-.1-5.24-.15-6.56,1.77-6.34,6.6.33,7.44.34,14.92,0,22.35-.25,5.45,2.11,6.98,7.16,6.9,12.49-.21,24.98.1,37.47-.14,4.9-.09,6.76,1.46,6.75,6.56-.03,17.31.13,17.31-17.01,17.31-9.47,0-18.94.12-28.4-.04-4.37-.07-6.08,1.55-5.95,6.04.26,9.46.24,18.94.02,28.4-.1,4.19,1.35,5.61,5.58,5.56,15.91-.19,31.83-.08,47.74-.05,8.05.01,8.6.51,8.57,8.56-.06,18.34,2.18,16.36-16.45,16.41-21.55.06-43.11.03-64.67,0-7.25,0-8.08-.81-8.09-7.86-.03-22.16-.01-44.32-.01-66.48h-.04Z"></path><path class="cls-1" d="m651.62,15.34c12.59,1.48,24.48,3.87,35.46,10.13,4.75,2.71,6.21,5.47,3.19,10.61-8.79,14.98-5.35,15.91-22.68,8.09-8.16-3.68-16.79-5.68-25.85-2.99-7.02,2.08-11.48,6.35-12.54,13.84-.96,6.77,1.5,12.35,7.34,15.28,9.67,4.85,19.81,8.75,29.72,13.12,4.04,1.78,8.15,3.5,11.98,5.69,14.94,8.56,21.88,21.57,20.32,38.71-1.57,17.26-10.56,29.68-26.88,35.39-24.89,8.71-48.4,5.58-69.3-11.29-6.17-4.98-6.06-6.79-.82-12.77,9.34-10.66,9.25-10.52,20.85-3.52,10.06,6.07,20.76,9.67,32.8,7.22,8.55-1.74,14.27-6.5,15.68-13.86,1.59-8.34-1.54-15.05-8.86-18.8-8.91-4.55-18.37-8.02-27.57-12.02-3.69-1.6-7.44-3.12-10.94-5.06-15.2-8.43-22.95-21.18-21.19-38.76,1.73-17.33,11.29-29.13,27.54-34.83,6.9-2.42,14.49-2.84,21.77-4.17Z"></path><path class="cls-1" d="m762.13,15.83c13.75.62,26.83,3.03,38.84,10.08,4.37,2.56,5.55,5.32,2.58,9.74-1.9,2.82-3.46,5.91-4.88,9.01-2.19,4.79-5.4,5.03-9.88,3.23-6.87-2.76-13.78-6.18-20.96-7.14-5.78-.77-12.53.52-17.91,2.96-9.11,4.12-10.63,17.03-3.29,23.92,3.29,3.08,7.42,5.53,11.57,7.36,8.26,3.66,16.89,6.49,25.2,10.05,21.51,9.21,30.04,23.16,27.97,45.25-1.64,17.52-15.19,31.78-35.79,35.73-22.56,4.32-43.61.7-61.4-15.3-3.79-3.41-4.25-6.47-.68-10.19,3.48-3.62,6.33-9.49,10.37-10.42,3.55-.81,8.4,3.76,12.59,6.11,10.09,5.66,20.58,9.07,32.33,6.52,7.67-1.67,13.23-5.47,15.1-13.64,1.82-7.94-1.05-14.18-7.57-18.12-6.31-3.81-13.33-6.44-20.06-9.55-8.01-3.7-16.54-6.55-23.95-11.21-14.83-9.33-19.47-23.78-16.19-40.39,3.31-16.75,14.27-27.09,30.55-31.6,4.99-1.38,10.29-1.63,15.45-2.4Z"></path><path class="cls-1" d="m138.16,149.94c-31.21-.07-56.56-25.73-56.53-57.23.03-32.31,25.33-57.74,57.34-57.64,31.36.1,57.01,26.26,56.74,57.85-.27,31.74-25.85,57.09-57.55,57.02Zm.79-25.4c17.4-.21,31.71-14.96,31.44-32.41-.27-17.84-14.93-31.99-32.8-31.67-16.84.3-31.37,15.53-30.93,32.41.47,17.69,14.94,31.88,32.28,31.67Z"></path><path class="cls-1" d="m971.94,141.43c3.07.23,5.62.58,8.17.59,15.51.07,31.02.18,46.53.03,4.37-.04,6.33,1.35,6.03,5.91-.27,4.01-.32,8.07,0,12.08.41,5.16-1.97,6.7-6.75,6.66-17.93-.12-35.85-.03-53.78-.03-7.05,0-14.1-.05-21.15.01-4.44.04-6.51-1.72-6.49-6.49.1-45.32.08-90.64,0-135.96,0-4.29,1.46-6.35,5.99-6.13,4.62.23,9.29.36,13.89-.03,5.79-.49,7.73,1.64,7.69,7.53-.23,35.65-.13,71.31-.14,106.96,0,2.79,0,5.58,0,8.88Z"></path><path class="cls-1" d="m1080.98,92.31c0,22.35-.15,44.69.1,67.04.06,5.63-2.03,7.66-7.41,7.36-4.21-.24-8.46-.25-12.68,0-5.67.34-7.77-1.85-7.74-7.73.21-36.64.11-73.28.12-109.92,0-8.05.23-16.11-.09-24.15-.22-5.41,2.02-7.19,7.15-6.84,4.41.3,8.87.32,13.28,0,5.42-.39,7.45,1.51,7.38,7.2-.28,22.34-.11,44.69-.11,67.04Z"></path><path class="cls-1" d="m257.08,56.22c-6.04,0-12.08-.09-18.12.02-5.01.09-6.15-2.77-5.8-7.03.35-4.14-1.55-9.69,5.53-9.8,12.27-.19,24.55-.3,36.82-.06,6.8.13,5.33,5.65,5.61,9.9.28,4.31-1.05,7.06-5.94,7-6.04-.07-12.08-.02-18.12-.03Z"></path></g></g></svg> 