<?xml version="1.0" encoding="UTF-8"?> <svg xmlns="http://www.w3.org/2000/svg" id="Layer_1" data-name="Layer 1" viewBox="0 0 762.08 383.25"><defs><style> .cls-1 { stroke-width: 0px; } </style></defs><g id="VR0jnO"><g><path class="cls-1" d="m193.04,164.24h-33.25c0-1.29,0-2.4,0-3.52,0-23.78,0-47.56,0-71.34,0-4.05-.6-7.98-2.11-11.76-2.62-6.53-7.21-10.82-14.28-11.77-3.55-.48-7.29-.68-10.81-.13-9.44,1.48-16.48,9.13-18.01,19.05-.35,2.25-.51,4.56-.52,6.84-.04,23.02-.02,46.03-.02,69.05,0,1.13,0,2.26,0,3.57h-33.96c0-1.25,0-2.36,0-3.48,0-23.78,0-47.56,0-71.34,0-4.15-.62-8.18-2.25-12.02-3.14-7.39-8.79-11.32-16.74-11.97-3.63-.3-7.27-.27-10.8.75-8.46,2.45-13.16,8.48-15.27,16.67-.68,2.64-.81,5.48-.82,8.23-.06,23.21-.03,46.42-.03,69.62,0,1.12,0,2.23,0,3.53H0V38.15c2.03-.62,28.86-.79,32.44-.16v14.25c.85-.89,1.32-1.28,1.65-1.75,2.61-3.74,5.86-6.85,9.78-9.12,14.03-8.14,28.75-9.73,44.03-4.05,7.89,2.93,13.93,8.17,18.08,15.55.31.56.67,1.09,1.16,1.87.73-.95,1.31-1.66,1.84-2.41,7.72-10.92,18.43-16.51,31.57-17.94,6.92-.75,13.75-.39,20.45,1.4,16.29,4.35,26.11,15.19,30.26,31.23,1.14,4.39,1.68,9.05,1.7,13.59.15,27.03.08,54.05.08,81.08,0,.76,0,1.51,0,2.57Z"></path><path class="cls-1" d="m422.02,365.29v13.6c-2.29.63-27.4.84-32.74.34-.59-2-.8-181.75-.22-185.79,1.98-.6,29.13-.8,33.31-.19v72.44c.68-.38,1.02-.48,1.22-.71,6.84-8.04,15.57-12.83,25.88-14.66,10.8-1.92,21.55-1.47,31.91,2.33,16.48,6.05,27.5,17.74,33.13,34.17,6.97,20.34,6.9,40.78-1.67,60.69-7.52,17.47-20.54,29.02-39.27,33.36-11.57,2.68-23.14,2.46-34.27-2.38-6.33-2.75-11.69-6.82-15.83-12.39-.27-.37-.58-.7-.88-1.05l-.58.24Zm63.12-49.54c-.29-3.04-.45-6.09-.9-9.11-2.56-17.24-15.97-25.88-28.29-26.55-11.72-.64-23.47,4.17-29.67,16.51-2.85,5.67-4.06,11.69-4.2,17.97-.18,8.09,1.3,15.8,5.69,22.72,7.07,11.15,17.43,15.77,30.33,14.08,12.03-1.57,20.17-8.49,24.45-19.84,1.91-5.06,2.46-10.38,2.59-15.78Z"></path><path class="cls-1" d="m547.17,119.49c9.54,2.84,18.84,5.6,28.43,8.46-.36,1.28-.57,2.37-.96,3.41-5.57,14.8-15.63,25.31-30.13,31.64-20.18,8.82-48.55,6.59-67.13-8.09-12.87-10.18-20.49-23.53-23.39-39.52-2.51-13.85-1.96-27.64,3.25-40.89,8.46-21.53,23.97-35.17,46.75-39.61,14.38-2.8,28.61-1.15,41.92,5.31,15.12,7.34,24.19,19.79,28.63,35.73,3.03,10.88,3.6,22.01,2.42,33.23-.02.17-.14.34-.35.79h-90.09c.11,1.38.1,2.49.3,3.55,2.31,12.58,12.53,22.55,25.16,24.71,4.87.83,9.71.75,14.53-.18,9.05-1.75,15.12-7.28,19.17-15.32.47-.93.87-1.89,1.48-3.23Zm-59.84-33.13h56.34c-.66-8.28-3.62-15.07-10.55-19.78-4.8-3.26-10.17-4.74-15.91-4.94-11.28-.39-20.27,3.85-26.38,13.51-2.11,3.33-3.32,7.02-3.5,11.2Z"></path><path class="cls-1" d="m761.12,325.08h-89.86c-.4,2.28.15,4.31.76,6.25,3.71,11.78,11.78,18.92,23.69,21.72,5.28,1.24,10.64.99,15.93-.1,8.13-1.68,13.8-6.62,17.81-13.68.8-1.4,1.43-2.89,2.32-4.71,9.36,2.78,18.72,5.55,28.39,8.42-.36,1.27-.59,2.36-.97,3.39-4.59,12.38-12.54,21.95-23.97,28.6-22.23,12.94-55.4,10.78-75.73-6.99-8.4-7.34-14.49-16.28-18.06-26.77-5.73-16.8-6.13-33.86,0-50.57,8.23-22.48,24.3-36.49,47.95-40.88,13.71-2.55,27.29-.9,40.05,4.97,15.16,6.97,24.53,19.07,29.28,34.85,3.4,11.31,4.01,22.89,2.83,34.6-.02.17-.15.34-.4.9Zm-89.24-23.68h56.37c-.73-8.73-4.01-15.74-11.54-20.39-5.93-3.66-12.44-4.66-19.25-4.18-9.28.66-16.5,4.99-21.65,12.67-2.36,3.52-3.73,7.45-3.93,11.91Z"></path><path class="cls-1" d="m333.34,164.27h-31.51c-.44-4.71-.86-9.32-1.31-14.17-.4.33-.7.51-.91.77-8.18,10.42-18.78,16.24-32.09,16.99-12.34.7-23.69-1.95-33.63-9.63-20.35-15.72-18.95-49.52,7.31-61.9,6.82-3.22,14.11-4.62,21.5-5.68,8.97-1.29,17.93-2.66,26.9-4.01.85-.13,1.69-.33,2.5-.59,4.49-1.4,6.84-4.94,6.26-9.62-.72-5.85-3.71-10.35-9.08-12.67-8.18-3.52-16.63-3.58-24.69.35-6.31,3.07-9.73,8.66-11.29,15.41-.17.72-.32,1.44-.53,2.4-10.04-2.13-19.9-4.21-30.08-6.37.16-1.41.18-2.73.47-3.98,3.41-14.51,12.09-24.83,25.24-31.56,7.6-3.89,15.72-5.83,24.23-6.14,9.69-.36,19.29.21,28.54,3.46,9.22,3.24,17.19,8.26,22.85,16.45,4.98,7.21,7.08,15.36,7.72,23.96.19,2.57.12,5.15.12,7.73,0,19.1-.11,38.2.07,57.3.06,6.67.86,13.32,1.32,19.99.03.37.04.74.08,1.49Zm-35.03-56.66c-1.35.14-2.39.21-3.41.36-8.38,1.28-16.76,2.58-25.13,3.88-3.23.5-6.28,1.54-9.06,3.31-5.08,3.24-7.48,8.74-6.19,15.14,1.17,5.76,4.5,9.98,10.42,11.28,3.11.68,6.45.77,9.64.55,11.13-.78,18.95-6.81,22.17-16.86,1.8-5.62,1.87-11.41,1.56-17.67Z"></path><path class="cls-1" d="m374.47,68.15h-22.21c-.7-2.22-.9-26.22-.27-30.53h23.44c.03-3.26.07-6.36.08-9.47.01-3.15,0-6.3,0-9.45v-9.17c0-3.12,0-6.25,0-9.53h33.01v37.4c2.86.47,5.6.17,8.32.22,2.86.05,5.73.01,8.59.01h8.38v30.36c-2.77.26-5.51.09-8.24.12-2.77.03-5.54,0-8.31,0h-8.47c-.09.9-.23,1.63-.23,2.36-.01,16.9-.03,33.81.02,50.71,0,1.89.24,3.81.62,5.67.83,4.12,3.38,6.88,7.44,7.85,2.66.63,5.46.89,8.2.93,2.93.04,5.86-.39,8.97-.62v28.31c-2.87.69-5.69,1.59-8.57,2.03-9.17,1.39-18.31,1.32-27.15-1.84-12.69-4.53-20.26-13.6-22.65-26.81-.71-3.92-.89-7.97-.91-11.97-.09-17.67-.04-35.33-.04-53,0-1.05,0-2.09,0-3.59Z"></path><path class="cls-1" d="m247.61,379.27v-186.17h33.52c.66,2.27.76,183.24.1,186.17h-33.62Z"></path><path class="cls-1" d="m580.48,379.27h-33.81c-.6-2.11-.76-122.76-.16-126.42h32.83v17.62c.7-.78.99-1,1.15-1.29,4.93-8.85,12.72-13.74,22.31-16.09,5.89-1.44,11.89-1.73,17.93-1.26.84.07,1.67.29,2.57.46v34.24c-2.15-.24-4.13-.45-6.11-.67-5.59-.63-11.08-.03-16.43,1.56-9.87,2.93-15.65,9.96-18.38,19.52-1.11,3.9-1.73,8.07-1.77,12.13-.2,18.82-.11,37.63-.13,56.45,0,1.14,0,2.27,0,3.74Z"></path><path class="cls-1" d="m318.24,252.83h34.02v126.08c-2.01.62-30.69.74-34.02.12v-126.21Z"></path><path class="cls-1" d="m314.01,211.14c0-11.98,9.27-21.3,21.15-21.3,11.92,0,21.08,9.27,21.1,21.33.02,11.72-9.32,21-21.13,20.99-11.76,0-21.13-9.33-21.12-21.02Z"></path></g></g></svg> 