<?xml version="1.0" encoding="UTF-8"?> <svg xmlns="http://www.w3.org/2000/svg" id="Layer_1" data-name="Layer 1" viewBox="0 0 466.44 67.35"><defs><style> .cls-1 { fill: #231f20; stroke-width: 0px; } </style></defs><path class="cls-1" d="m104.39,9.71c-15.91,0-28.82,12.9-28.82,28.82s12.9,28.82,28.82,28.82,28.82-12.9,28.82-28.82-12.9-28.82-28.82-28.82Zm0,44.15c-8.52,0-15.43-6.91-15.43-15.43s6.91-15.43,15.43-15.43,15.43,6.91,15.43,15.43-6.91,15.43-15.43,15.43Z"></path><path class="cls-1" d="m11.85,7.71C5.23,13.12,1.23,20.55,0,28.39h15.81c1-3.32,2.95-6.38,5.83-8.73,7.69-6.29,19.02-5.16,25.32,2.53.96,1.18,1.75,2.44,2.37,3.75l14.15-6.2s-.84-1.75-1.32-2.6c-.93-1.64-2.01-3.23-3.25-4.74C47.21-1.89,26.14-3.99,11.85,7.71Z"></path><path class="cls-1" d="m44.42,47.5c-7.69,6.29-19.02,5.16-25.32-2.53-1.49-1.82-2.56-3.84-3.23-5.95H.04c.92,5.6,3.27,11.03,7.12,15.73,11.7,14.29,32.76,16.39,47.05,4.7,4.11-3.36,9.27-12.03,9.27-12.03l-14.15-6.2c-1.11,2.36-2.74,4.52-4.9,6.28Z"></path><path class="cls-1" d="m145.87,67.35h13.55c0-9.25.05-65.27.05-67.31-10.4,2.13-12.84,2.64-13.6,2.79,0,0,0,55.28,0,64.52Z"></path><path class="cls-1" d="m319.9,0s-.03,0-.04,0c0-.01,0-.02,0-.02l-4.62.96c-6.52,1.34-8.31,1.71-8.94,1.83,0,0,0,.27,0,12.07h-11.36v13.31l11.36-.02c0,13.12,0,35.13,0,39.16l13.55.03c0-3.98.02-25.93.03-39.19l11.67.02v-13.31h-11.66c0-12.63.02-13.99.02-14.86Z"></path><path class="cls-1" d="m259.63,13.49c-1.16.45-3.43,1.6-3.43,1.6l.02-5.39-14.07,4.13v53.51c5.05,0,14.04,0,14.04,0,0,0,0-19.71,0-21.45-.02-5.83.04-7.99.04-12.6,0-5.49,8.67-9.81,14.89-5.6,1.54-1.05,10.13-10.12,11.39-10.99-7.91-2.98-14.49-6.48-22.89-3.22Z"></path><path class="cls-1" d="m372.89,9.69c-15.92,0-28.83,12.91-28.83,28.83s12.91,28.83,28.83,28.83c9.09,0,17.19-4.2,22.48-10.77l-11.03-7.76c-1.65,2-3.78,3.66-6.24,4.62-7.98,3.1-16.96-.86-20.06-8.85-3.1-7.98.86-16.96,8.85-20.06,7.21-2.8,15.23.16,19,6.64h-15.65s-3.77,13.2-3.77,13.2l34.67-.05c.38-1.88.59-3.82.59-5.81,0-15.92-12.91-28.83-28.83-28.83Z"></path><polygon class="cls-1" points="447.71 9.69 418.04 67.35 432.68 67.35 462.73 9.69 447.71 9.69"></polygon><polygon class="cls-1" points="455.07 44.53 447.16 58.37 451.61 67.35 466.44 67.34 455.07 44.53"></polygon><polygon class="cls-1" points="433.38 18.66 428.93 9.69 414.09 9.7 425.47 32.51 433.38 18.66"></polygon><path class="cls-1" d="m200.94,9.71c-15.91,0-28.82,12.9-28.82,28.82,0,7.37,2.77,14.1,7.32,19.19l8.62-10.55c-1.66-2.47-2.63-5.44-2.63-8.64,0-8.56,6.94-15.51,15.51-15.51s15.51,6.94,15.51,15.51-6.94,15.51-15.51,15.51c-2.02,0-3.96-.39-5.73-1.09l-8.64,10.57c4.23,2.44,9.14,3.83,14.37,3.83,15.91,0,28.82-12.9,28.82-28.82s-12.9-28.82-28.82-28.82Z"></path></svg> 