<?xml version="1.0" encoding="UTF-8"?> <svg xmlns="http://www.w3.org/2000/svg" id="Layer_1" data-name="Layer 1" viewBox="0 0 508.14 472.72"><defs><style> .cls-1 { stroke-width: 0px; } </style></defs><g id="ZSGY4b"><g><path class="cls-1" d="m62.9,0c4.38.88,8.86,1.43,13.12,2.7,17.88,5.32,29.65,16.43,32.7,35.48.19,1.16.57,2.45.23,3.48-.35,1.04-1.46,2.59-2.27,2.61-7.8.2-15.62.19-23.42.02-.85-.02-2.32-1.36-2.4-2.2-1.24-12.73-10.99-16.7-20.85-17-4.96-.15-10.06.36-14.89,1.45-5.01,1.13-8.78,4.32-9.95,9.78-.93,4.36-.13,7.23,3.88,9.15,4.57,2.2,9.48,3.81,14.37,5.25,10.03,2.95,20.32,5.1,30.15,8.57,5.82,2.05,11.61,5.25,16.33,9.22,15.9,13.4,15.02,37.39-1.5,50.98-9.97,8.21-21.8,11.42-34.47,12.09-14.06.74-27.57-1.17-39.63-9-11.21-7.29-17.91-17.53-19.14-31.03-.34-3.77.07-4.14,3.72-4.15,6.95-.02,13.91,0,20.86,0,1.67,0,3.31,0,3.56,2.24,1.13,10.26,7.78,14.95,17.13,16.67,6.91,1.27,13.88,1.26,20.59-1.01,2.77-.94,5.59-2.36,7.78-4.25,5.91-5.1,5.5-13.14-1.26-16.97-5.03-2.85-10.72-4.71-16.3-6.39-9.5-2.86-19.21-5-28.7-7.89-7.1-2.16-13.72-5.57-18.84-11.15-8.94-9.73-9.8-25.66-2.06-38.23C18.68,9.02,29.65,3.81,42.27,1.35,44.66.89,47.04.45,49.42,0c4.49,0,8.99,0,13.48,0Z"></path><path class="cls-1" d="m0,295.24c2.59-8.11,5.27-16.19,7.76-24.33,10.05-32.75,20.09-65.5,30.01-98.29.77-2.54,1.94-3.37,4.5-3.34,11.66.1,23.32.11,34.98,0,2.59-.02,3.73.89,4.49,3.39,12.25,40.34,24.6,80.64,36.92,120.95,1.11,3.64.73,4.15-3.06,4.16-6.95.02-13.91-.11-20.86.06-2.55.06-3.53-.96-4.2-3.24-3.02-10.23-6.26-20.41-9.26-30.65-.63-2.13-1.56-2.83-3.79-2.81-11.77.11-23.53.11-35.3,0-2.3-.02-3.35.63-4.02,2.92-2.99,10.24-6.27,20.4-9.27,30.64-.7,2.4-1.87,3.17-4.3,3.12-6.95-.14-13.91.01-20.86-.11-1.26-.02-2.5-.78-3.76-1.2,0-.43,0-.86,0-1.28Zm59.76-118.24c-1.26,21.76-7.44,42.34-14.23,62.93h28.51c-6.97-20.68-13.04-41.23-14.29-62.93Z"></path><path class="cls-1" d="m109.9,391.91c-3.53,0-7.07-.13-10.59.05-2.49.12-3.59-.87-4.27-3.22-2.39-8.27-6.66-15.31-14.38-19.66-15.1-8.52-34.18-2.78-41.32,13.04-7.36,16.3-7.33,33.03.45,49.27,4.8,10.04,13.17,15.51,24.43,16.04,11.98.56,21.15-4.35,27.12-14.79,1.58-2.75,2.67-5.81,3.73-8.82.65-1.83,1.41-2.83,3.58-2.8,7.59.12,15.19.06,22.78.04,1.89,0,3.32.49,2.84,2.73-4.03,18.91-12.7,34.95-31.23,42.72-23.61,9.9-46.61,8.57-67.12-8.32-8.39-6.91-13.39-16.28-16.42-26.63-4.97-16.94-5.07-33.97.14-50.84,7.73-25.08,26.78-39.26,53.04-40.03,13.43-.39,26.24,1.71,37.61,9.34,13.81,9.26,20.68,22.92,23.97,38.74.48,2.32-.7,3.14-2.8,3.15-3.85,0-7.7,0-11.55,0Z"></path><path class="cls-1" d="m312.54,405.07c4.38-.2,7.38-2.15,9.74-4.99,2.25-2.7,4.23-5.64,6.23-8.54,12.25-17.84,34.4-20.08,50.18-5.08,9.06,8.61,13.38,19.48,14.48,31.64,1.3,14.37-1.08,28.04-10.31,39.65-8.94,11.24-20.67,16.2-35.09,13.97-5.96-.92-10.9-3.84-14.66-8.47-3.09-3.81-5.76-7.96-8.69-11.91-2.84-3.83-6.05-7.16-12.07-7.58,4.25,4.15,6.91,8.52,7.47,13.73.36,3.34,0,6.78-.2,10.16-.13,2.2-1.49,3-3.71,2.96-6.63-.1-13.27-.17-19.89.02-3.1.09-4.01-.95-4-4.03.1-29.74.06-59.47.06-89.21,0-11.02.08-22.04-.05-33.05-.03-2.81.9-3.76,3.69-3.7,7.06.15,14.12.11,21.18.02,2.42-.03,3.43.69,3.41,3.29-.1,14.65.02,29.31-.08,43.96-.04,5.87-2.15,11.06-6.22,15.38-.42.44-.78.94-1.48,1.78Zm7.53,19.29c.05,6.81,2.42,12.73,6.97,17.76,11.13,12.32,31.54,8.21,36.59-7.41,2.3-7.11,2.21-14.33-.28-21.39-2.37-6.71-7.06-11.11-13.99-12.9-15.17-3.92-29.26,7.62-29.29,23.94Z"></path><path class="cls-1" d="m200.9,270.89c-4.35.33-7.38,2.19-9.77,5.06-1.97,2.38-3.96,4.82-5.48,7.49-14.02,24.74-42.53,17.21-54.22,2.6-9.91-12.38-12.64-26.64-10.97-41.93,1.44-13.22,6.52-24.8,17.43-33.05,8.93-6.75,19.01-8.94,29.98-6.3,6.23,1.5,10.82,5.4,14.54,10.43,2.92,3.95,5.68,8.02,8.68,11.91,2.3,2.99,5.43,4.71,9.88,5.26-.87-1.06-1.4-1.73-1.95-2.37-5.46-6.42-6.83-13.8-5.16-21.91.42-2.02,1.52-2.75,3.6-2.72,6.95.1,13.9.11,20.85,0,2.42-.04,3.14.93,3.14,3.23-.04,39.89-.04,79.78,0,119.67,0,2.44-.85,3.51-3.35,3.48-7.27-.08-14.55-.06-21.82,0-2.14.01-3.09-.77-3.08-3.02.06-13.8-.08-27.59.09-41.39.07-5.38,2.11-10.2,5.78-14.24.54-.59,1.02-1.24,1.81-2.2Zm-7.52-19.13c.01-7.07-2.46-13.2-7.33-18.24-5.91-6.11-13.15-8.12-21.4-6.08-8.09,2.01-13.07,7.25-15.23,15.25-1.51,5.58-1.56,11.19-.25,16.8,2.8,11.96,12.79,18.59,24.94,16.62,10.68-1.73,19.18-12.47,19.26-24.35Z"></path><path class="cls-1" d="m255.28,64.54c4.43-.23,7.27-2.07,9.51-4.74,2.26-2.69,4.28-5.6,6.26-8.51,12.41-18.3,34.65-20.63,50.57-5.06,12.06,11.79,15.53,26.69,14.35,42.91-.92,12.64-5.19,24-14.72,32.83-9.2,8.52-20.09,11.38-32.33,8.93-6.4-1.28-11.15-5.22-14.95-10.33-2.68-3.6-5.1-7.39-7.84-10.94-2.59-3.35-5.68-6.08-10.68-6.33.53.73.82,1.22,1.19,1.62,4.31,4.59,6.36,10.13,6.41,16.32.11,13.05-.01,26.09.07,39.14.02,2.54-.73,3.76-3.44,3.73-7.16-.09-14.33-.08-21.5,0-2.48.03-3.39-.93-3.39-3.41.05-39.89.05-79.78,0-119.67,0-2.56.99-3.34,3.43-3.3,6.74.11,13.48.13,20.21-.01,2.58-.06,3.64,1.05,4.09,3.4,1.48,7.57-.05,14.41-4.76,20.53-.63.82-1.34,1.59-2.48,2.92Zm26.65,44.16c14.93.01,22.77-6.04,25.02-17.2.83-4.11.92-8.51.48-12.69-.92-8.54-4.98-15.22-13.46-18.27-8.7-3.13-16.67-1.64-23.4,4.85-8.74,8.41-10.3,22.08-3.76,32.32,4.35,6.82,10.39,10.9,15.12,10.98Z"></path><path class="cls-1" d="m425.03,232.36c-5.18-4.92-7.64-10.43-8.09-16.83-.06-.85-.14-1.71-.11-2.56.25-6.92.92-7.57,7.74-7.57,5.77,0,11.55.1,17.32-.04,2.54-.06,3.37.91,3.37,3.37-.05,28.55-.05,57.09,0,85.64,0,2.72-1.08,3.5-3.65,3.45-6.63-.13-13.26-.19-19.89.03-2.75.09-3.89-1.06-4.34-3.48-1.38-7.54,0-14.43,4.81-20.51.7-.89,1.44-1.75,2.42-2.93-4.08.18-6.98,1.89-9.24,4.55-2.21,2.59-4.42,5.27-6.11,8.21-13.82,24.1-41.59,17.1-53.43,3.14-6.42-7.57-10.11-16.3-11.44-26.02-1.78-12.91-.3-25.39,6.15-36.93,8.15-14.59,22.21-21.8,38.17-19.73,6.71.87,12.05,4.25,16.17,9.48,3.1,3.94,5.82,8.18,8.84,12.19,2.63,3.49,5.91,6.06,11.3,6.54Zm-53.12,19.16c.11,0,.22.02.33.03,0,1.28-.12,2.57.02,3.84.95,8.59,4.27,15.76,12.77,19.2,8.38,3.39,16.33,2.45,23.36-3.57,12.2-10.44,11.47-30.48-1.44-40.03-12.77-9.45-30.61-2.86-34.01,12.62-.57,2.59-.7,5.28-1.04,7.92Z"></path><path class="cls-1" d="m312.58,270.95c-4.7.14-7.76,2.55-10.24,5.72-2.23,2.85-4.4,5.81-6.19,8.96-12.68,22.27-46.6,15.37-55.51-3.49-3.75-7.93-5.37-16.19-5.45-24.8-.15-15.93-.05-31.86-.04-47.79,0-4,.15-4.13,4.17-4.14,6.52,0,13.04,0,19.57,0q4.66,0,4.67,4.55c.04,14.97.06,29.93.17,44.9.02,2.33.32,4.7.8,6.99,1.7,8,7.11,12.65,15.32,12.86,3.48.09,7.13-.05,10.45-.98,8.98-2.5,13.05-9.39,13.92-18.05.73-7.31.57-14.72.66-22.09.1-8.34.08-16.68-.02-25.02-.03-2.33.71-3.24,3.12-3.2,7.38.11,14.76.1,22.13,0,2.25-.03,3,.87,3,3.04-.04,28.76-.04,57.52,0,86.28,0,2.42-.97,3.15-3.27,3.12-6.63-.09-13.27-.25-19.88.06-3.48.16-4.61-1.5-4.91-4.37-.79-7.52.56-14.47,5.69-20.36.55-.63,1.07-1.28,1.82-2.18Z"></path><path class="cls-1" d="m199.41,103.3c-4.08.19-7.09,2.12-9.41,5.03-2.32,2.92-4.51,5.98-6.45,9.16-6.98,11.48-17.23,15.72-30.27,13.98-12.53-1.66-21.61-7.99-26.78-19.69-3.27-7.38-4.19-15.22-4.26-23.15-.14-15.5-.05-31-.04-46.51,0-4.22.15-4.37,4.29-4.38,6.74-.01,13.48.12,20.21-.06,3.08-.08,4.12.97,4.1,4.05-.11,14.43-.08,28.87-.02,43.3.01,2.55.24,5.13.63,7.65,1.41,9.01,6.25,13.53,15.3,14.47,13.81,1.43,23.24-5.76,24.63-19.52.78-7.73.51-15.58.6-23.37.08-7.7.09-15.4-.02-23.09-.03-2.42.65-3.5,3.25-3.46,7.27.11,14.54.09,21.81,0,2.31-.03,3.21.76,3.21,3.16-.06,28.65-.06,57.31,0,85.96,0,2.47-.79,3.43-3.33,3.39-6.84-.12-13.69-.12-20.53,0-2.24.04-3.35-.76-3.78-2.91-1.6-8.01-.09-15.26,5.16-21.62.48-.58,1.01-1.1,1.51-1.65.06-.07.06-.2.2-.75Z"></path><path class="cls-1" d="m256.96,443.99c-3.98-.24-6.67,1.48-8.77,3.9-2.37,2.73-4.62,5.64-6.44,8.76-7.67,13.14-19.02,17.8-33.69,14.92-14.18-2.78-22.82-11.63-26.24-25.37-1.41-5.64-2-11.59-2.11-17.41-.28-15.5-.1-31.01-.09-46.51,0-4,.16-4.14,4.16-4.14,6.84,0,13.69.1,20.53-.05,2.86-.06,3.69,1.04,3.68,3.77-.09,14.44-.13,28.87.02,43.31.04,3.6.49,7.27,1.32,10.77,1.56,6.64,6.08,10.37,12.75,11.41,15.97,2.48,26.6-6.17,26.97-22.4.32-14.11.09-28.23.11-42.34q0-4.46,4.49-4.47c6.84,0,13.69.07,20.53-.04,2.34-.04,3.26.79,3.26,3.15-.04,28.77-.04,57.53,0,86.3,0,2.17-.74,3.08-2.99,3.06-7.06-.08-14.12-.09-21.17,0-2.14.03-3.09-.93-3.49-2.88-1.64-8.04.03-15.25,5.27-21.59.52-.62,1.08-1.21,1.9-2.14Z"></path><path class="cls-1" d="m368.94,89.11c-.41,12.78,10.76,22.53,23.76,21.07,6.52-.73,12.21-2.89,15.8-8.96.53-.89,2.34-1.41,3.57-1.44,6.52-.14,13.05-.1,19.57-.05,3.51.03,4.25,1.08,2.99,4.34-4.7,12.21-13.27,20.58-25.63,24.73-11.86,3.98-23.99,4.18-35.96.54-11.65-3.54-20.2-11.04-25.11-22.23-6.12-13.93-6.59-28.25-1.12-42.43,8.02-20.8,27.04-30.31,47.79-28.41,28.12,2.57,42.51,25.65,41.81,49.77-.09,3.01-1.82,3.09-4.04,3.09-19.89-.03-39.78-.02-59.67-.02h-3.76Zm40.49-14.84c.83-8.66-7.68-16.37-18.21-16.74-13.1-.45-22.55,6.58-22.21,16.74h40.42Z"></path><path class="cls-1" d="m165.72,405.97c0,20.1,0,40.2,0,60.3,0,4.28-.02,4.29-4.26,4.3-6.84,0-13.69-.08-20.53.04-2.65.05-3.52-.9-3.52-3.55.06-40.95.06-81.9,0-122.86,0-2.64.87-3.6,3.53-3.56,7.06.12,14.12.15,21.17-.01,2.86-.06,3.66.99,3.65,3.74-.09,20.53-.05,41.06-.05,61.59Z"></path><path class="cls-1" d="m467.66,64.25c4.18-.05,7.02-1.87,9.18-4.55,2.67-3.32,5.04-6.89,7.43-10.42,4.48-6.61,10.05-11.57,18.24-12.99,5-.86,5.61-.44,5.61,4.62,0,5.88.02,11.76,0,17.64-.02,3.72-.67,4.19-4.12,3.16-14.93-4.47-27.78,4.33-28.35,20.04-.52,14.41-.21,28.86-.25,43.29q-.02,5.17-5.12,5.17c-6.63,0-13.26-.08-19.89.04-2.48.04-3.44-.84-3.44-3.34.05-28.65.04-57.3,0-85.95,0-2.33.85-3.25,3.2-3.22,6.84.09,13.69.15,20.53-.03,2.78-.07,3.82,1.19,4.21,3.62,1.25,7.92-.33,15.06-5.78,21.14-.41.45-.76.95-1.45,1.8Z"></path></g></g></svg> 