<?xml version="1.0" encoding="utf-8"?><svg viewBox="0 0 1 1" xmlns="http://www.w3.org/2000/svg" xmlns:xlink="http://www.w3.org/1999/xlink"><style>:root>svg{display:none}:root>svg:target{display:block}</style><svg fill="none" viewBox="0 0 34 26" id="arrow" xmlns="http://www.w3.org/2000/svg"><g clip-path="url(#aclip0_10_103)" stroke="#000" stroke-width="2" stroke-miterlimit="10"><path d="M.238 12.845h31.95M20.207.845l11.981 12-11.981 12"/></g><defs><clipPath id="aclip0_10_103"><path fill="#fff" transform="rotate(-90 13 13)" d="M0 0h26v34H0z"/></clipPath></defs></svg><svg fill="none" viewBox="0 0 24 24" id="arrow-circle" xmlns="http://www.w3.org/2000/svg"><path fill-rule="evenodd" clip-rule="evenodd" d="M12 24c6.627 0 12-5.373 12-12S18.627 0 12 0 0 5.373 0 12s5.373 12 12 12zm-.089-16.448l3.316 3.698H6v1.5h9.227l-3.316 3.698 1.117 1 4.437-4.947.45-.501-.45-.5-4.437-4.949-1.117 1.001z" fill="#000"/></svg><svg fill="none" viewBox="0 0 32 8" id="arrow-long" xmlns="http://www.w3.org/2000/svg"><path d="M31.354 4.354a.5.5 0 000-.708L28.172.464a.5.5 0 10-.707.708L30.293 4l-2.828 2.828a.5.5 0 10.707.708l3.182-3.182zM0 4.5h31v-1H0v1z" fill="#0E0E0E"/></svg><svg fill="none" viewBox="0 0 12 12" id="arrow-short" xmlns="http://www.w3.org/2000/svg"><path d="M0 6h10.907M6.47 1.052L10.907 6 6.47 10.948" stroke="#0E0E0E" stroke-width="1.5" stroke-miterlimit="10"/></svg><svg fill="none" stroke="currentColor" stroke-width="1.5" stroke-linecap="round" stroke-linejoin="round" class="efeather efeather-x" viewBox="0 0 24 24" id="clear" xmlns="http://www.w3.org/2000/svg"><path d="M18 6L6 18M6 6l12 12"/></svg><svg fill="none" viewBox="0 0 16 16" id="instagram" xmlns="http://www.w3.org/2000/svg"><path fill-rule="evenodd" clip-rule="evenodd" d="M4.702.048C5.555.008 5.827 0 8 0s2.445.01 3.297.048c.853.039 1.435.175 1.944.372a3.936 3.936 0 011.417.923c.407.4.72.882.922 1.416.197.51.333 1.091.372 1.942.04.855.048 1.127.048 3.299 0 2.173-.01 2.445-.048 3.298-.038.851-.175 1.433-.372 1.942a3.925 3.925 0 01-.922 1.418c-.4.407-.884.72-1.417.922-.51.197-1.091.333-1.942.372-.854.04-1.126.048-3.299.048s-2.445-.01-3.298-.048c-.851-.038-1.433-.175-1.942-.372a3.924 3.924 0 01-1.417-.922A3.922 3.922 0 01.42 13.24c-.197-.51-.333-1.091-.372-1.942C.008 10.444 0 10.172 0 8c0-2.173.01-2.445.048-3.297.039-.853.175-1.435.372-1.944a3.924 3.924 0 01.923-1.416C1.743.936 2.226.62 2.76.42 3.27.223 3.85.087 4.701.048zm6.53 1.44c-.843-.039-1.096-.047-3.232-.047s-2.39.008-3.233.047c-.78.036-1.203.166-1.486.276-.373.145-.64.317-.92.597-.265.259-.47.573-.597.92-.11.283-.24.706-.276 1.486-.039.844-.047 1.097-.047 3.233s.008 2.39.047 3.233c.036.78.166 1.203.276 1.486.128.347.332.661.597.92.259.265.574.47.92.597.283.11.706.24 1.486.276.844.038 1.096.046 3.233.046s2.39-.008 3.233-.046c.78-.036 1.203-.166 1.486-.276.373-.145.64-.318.92-.598.265-.258.47-.572.597-.92.11-.282.24-.705.276-1.485.038-.844.046-1.097.046-3.233s-.008-2.39-.046-3.233c-.036-.78-.166-1.203-.276-1.486a2.485 2.485 0 00-.598-.92 2.481 2.481 0 00-.92-.597c-.282-.11-.705-.24-1.485-.276zm-4.254 8.978a2.669 2.669 0 10.76-5.122 2.669 2.669 0 00-.76 5.122zM5.092 5.092a4.112 4.112 0 115.816 5.816 4.112 4.112 0 01-5.816-5.816zm7.932-.592a.973.973 0 10-1.335-1.415.973.973 0 001.335 1.415z" fill="#0E0E0E"/></svg><svg fill="none" viewBox="0 0 15 16" id="linkedin" xmlns="http://www.w3.org/2000/svg"><path fill-rule="evenodd" clip-rule="evenodd" d="M5.572 5.727h2.785v1.387C8.76 6.316 9.787 5.6 11.333 5.6 14.296 5.6 15 7.188 15 10.102V15.5h-3v-4.734c0-1.66-.401-2.596-1.423-2.596-1.416 0-2.005 1.009-2.005 2.595V15.5h-3V5.727zM.428 15.372h3V5.6h-3v9.774zm3.43-12.96a1.898 1.898 0 01-.566 1.352 1.942 1.942 0 01-2.729 0 1.911 1.911 0 01-.563-1.352A1.9 1.9 0 01.565 1.06a1.937 1.937 0 012.728 0c.361.359.564.845.564 1.353z" fill="#0E0E0E"/></svg><svg fill="none" viewBox="0 0 28 27" id="logo-min" xmlns="http://www.w3.org/2000/svg"><path d="M27.444 6.696L20.897.265a.776.776 0 00-1.082 0l-5.622 5.522a1.267 1.267 0 01-.896.365 1.287 1.287 0 01-.897-.365L7.205.684a.862.862 0 00-1.196 0L.316 6.514a.845.845 0 00-.228.56v12.694c0 .208.082.408.228.56L6.01 26.17a.862.862 0 001.196 0l5.693-5.844a.803.803 0 00.228-.56V9.465a.731.731 0 01.131-.405.767.767 0 011.15-.113l5.309 5.216h.085a.776.776 0 001.082 0L27.43 7.73a.734.734 0 00.014-1.034z" fill="#000"/></svg><svg fill="none" viewBox="0 0 15 17" id="play" xmlns="http://www.w3.org/2000/svg"><path d="M15 8.5L0 16.727V.273L15 8.5z" fill="#000"/></svg><svg fill="none" viewBox="0 0 24 24" id="play-circle" xmlns="http://www.w3.org/2000/svg"><path fill-rule="evenodd" clip-rule="evenodd" d="M24 12c0 6.627-5.373 12-12 12S0 18.627 0 12 5.373 0 12 0s12 5.373 12 12zM9.5 16.33L17 12 9.5 7.67v8.66z" fill="#000"/></svg><svg viewBox="0 0 17 32" id="pretentieux" xmlns="http://www.w3.org/2000/svg"><path d="M12.328 22.149c.522-.912.84-2.001.864-3.161v-.007c0-.259-.029-.49-.029-.662v-5.732-.051c0-.205.011-.408.031-.607l-.002.025a6.5 6.5 0 00-.477-2.348l.016.044a6.812 6.812 0 00-2.595-3.181l-.026-.016c-1.152-.662-2.247-1.008-3.226-1.008H0v26.527h5.012v-6.481c0-.029 0-.029.029-.029h1.008l.081-.001c.185 0 .367.011.546.032l-.022-.002a9.252 9.252 0 001.353-.153l-.057.009a6.802 6.802 0 003.145-1.618l-.005.005a7.819 7.819 0 001.219-1.549l.02-.035zm-4.119-3.744c0 .605-.058 1.037-.202 1.267a1.542 1.542 0 01-.853.688l-.011.003c0 .086-.403.115-1.239.115H5.04c-.029 0-.029 0-.029-.029l.029-9.966h1.095c.605 0 1.037.058 1.267.202.327.193.572.494.688.853l.003.011c.086 0 .115.403.115 1.239zm0 11.089h8.814V32H8.209zM9.937 0L1.123.893v2.535l8.814-.922V0z"/></svg><svg fill="none" viewBox="0 0 16 14" id="vimeo" xmlns="http://www.w3.org/2000/svg"><path d="M15.992 3.236c-.07 1.577-1.158 3.733-3.26 6.473C10.556 12.57 8.715 14 7.208 14c-.933 0-1.722-.873-2.366-2.612-.43-1.599-.86-3.197-1.293-4.791-.478-1.74-.99-2.613-1.543-2.613-.118 0-.539.257-1.253.763L0 3.763c.789-.705 1.57-1.404 2.336-2.108C3.387.733 4.181.251 4.707.202c1.244-.119 2.011.74 2.3 2.586.312 1.988.527 3.228.65 3.71.359 1.652.754 2.476 1.182 2.476.333 0 .838-.536 1.508-1.607.67-1.072 1.03-1.886 1.078-2.445.096-.925-.263-1.386-1.078-1.386-.38 0-.775.09-1.183.266.785-2.607 2.287-3.874 4.505-3.799 1.643.045 2.42 1.125 2.323 3.232v.001z" fill="#0E0E0E"/></svg></svg>